<svg xmlns="http://www.w3.org/2000/svg" width="113.8" height="46.167" viewBox="0 0 113.8 46.167"><g transform="translate(320.995 -486.027)"><g transform="translate(-320.995 486.027)"><g transform="translate(0 0)"><g transform="translate(0 0)"><path d="M-79.853,500.181c1.929-.482,4.1-1.849,4.1-4.179,0-3.456-3.3-3.456-4.983-3.456h-6.912c.321.161.482,1.045.482,2.25,0,1.447-.08,3.456-.321,6.188l-.08,1.125c-.321,4.742-.482,7.474-1.286,8.117h6.188c4.742,0,7.635-2.411,7.635-5.545.08-2.893-2.009-4.179-4.822-4.5Zm-4.1-1.768c.08-1.286.241-2.572.4-3.777a6.486,6.486,0,0,1,1.206-.081c2.09,0,3.054.884,3.054,2.09,0,2.09-2.09,2.893-4.34,2.893h-.4Zm1.125,9.564c-1.206,0-1.688-.321-1.688-.482,0-1.125.08-2.009.161-3.215l.161-2.572h1.286c2.331,0,4.179.723,4.179,3.054,0,2.09-1.607,3.215-4.1,3.215Zm103.835-8.036c-1.768-1.125-3.456-2.09-3.456-3.375,0-1.607,1.366-2.25,2.893-2.25a4.7,4.7,0,0,1,4.018,2.331l.482-4.179c-1.206,0-2.411-.322-4.34-.322-3.3,0-6.51,1.286-6.51,5.063,0,2.572,1.848,3.938,4.742,5.706,1.366.8,2.491,1.688,2.491,2.974,0,1.607-1.366,2.491-3.215,2.491a5.249,5.249,0,0,1-4.9-3.215l-.321,4.42a13.293,13.293,0,0,0,4.983.964c3.777,0,6.992-2.09,6.992-5.385,0-2.572-1.929-4.018-3.858-5.224Zm-12.618.723c.884-1.447,4.983-7.956,5.947-8.117H9.6a1.824,1.824,0,0,1,.241,1.045,3.412,3.412,0,0,1-.482,1.527c-1.125,1.768-1.929,3.134-3.215,4.983-.482-1.447-1.366-3.375-2.491-6.028-.723-1.607-1.045-1.768-2.25-1.768-.643,0-2.09.081-3.134.161.643.322,1.607,1.849,2.491,3.456a34.979,34.979,0,0,1,2.893,6.992c.08,1.527-.321,6.51-1.125,7.313H7.345a3.754,3.754,0,0,1-.482-2.25,28.33,28.33,0,0,1,.4-4.983,10.313,10.313,0,0,1,1.125-2.331Zm-52,6.59-3.617-4.822a6.008,6.008,0,0,0-.884-1.045c2.331-.723,4.259-2.25,4.259-5.063,0-3.456-2.974-3.777-5.063-3.777H-55.5c.321.161.482.964.482,2.25,0,1.447-.08,3.456-.321,6.188l-.08,1.125c-.4,5.465-.643,7.555-1.366,8.117h4.822c-.321-.161-.482-1.045-.482-2.25,0-1.045.08-2.491.161-4.34l.08-1.286h.08c.643,0,.884.4,1.286.884l4.983,6.912c.4.563.723.8,2.09.8.884,0,2.25-.081,3.215-.161-.563-.4-.8-.563-3.054-3.536Zm-7.474-7.153a2.727,2.727,0,0,1-.8-.081l.08-1.206c.161-2.09.241-3.456.4-4.179a7.784,7.784,0,0,1,1.366-.081c1.688,0,2.652.8,2.652,2.17,0,2.09-1.527,3.375-3.7,3.375Zm-9.885,2.17-.723-2.732c-.884-3.215-1.929-6.992-1.929-6.992h-3.858a1.545,1.545,0,0,1,.241.964,43.746,43.746,0,0,1-2.331,5.465l-1.205,2.652c-2.17,4.581-3.7,7.394-4.9,8.6h4.259a2.473,2.473,0,0,1-.08-.8,12.592,12.592,0,0,1,1.205-3.456l.4-.723h2.09a11.616,11.616,0,0,0,4.179-.563l.4,1.527c1.205,4.179,1.366,4.259,2.893,4.259.482,0,1.688-.08,2.732-.161-1.205-1.045-2.009-3.3-3.375-8.037Zm-7.956.482,2.893-6.188,1.768,6.188Zm31.182-.884c0-3.536,1.527-7.635,5.3-7.635a4.533,4.533,0,0,1,4.179,2.652l.482-4.5c-1.527,0-2.411-.321-4.34-.321-6.108,0-9.323,4.581-9.323,10.448,0,4.259,2.652,8.037,7.233,8.037a6.341,6.341,0,0,0,6.59-4.742c-2.25,1.607-3.617,2.009-5.144,2.009-2.813,0-4.983-2.09-4.983-5.947Zm34.478.4-.723-2.732c-.321-1.206-1.929-6.992-1.929-6.992H-9.773a1.545,1.545,0,0,1,.241.964,33.611,33.611,0,0,1-2.331,5.465l-1.205,2.652a55.573,55.573,0,0,1-2.732,5.385c-1.366.884-2.09.964-4.983.964-.8,0-1.125-.161-1.125-.964,0-1.768.241-3.536.321-5.3l.08-1.045c.321-4.742.563-7.635,1.286-8.037h-4.822a4.2,4.2,0,0,1,.482,2.25c0,1.447-.08,3.456-.321,6.188l-.08,1.125c-.321,4.742-.563,7.313-1.286,8.117h12.537a2.474,2.474,0,0,1-.08-.8,11.128,11.128,0,0,1,1.206-3.456l.4-.723h2.09a11.614,11.614,0,0,0,4.179-.563l.4,1.527c1.206,4.179,1.366,4.259,2.893,4.259.482,0,1.768-.081,2.733-.161-1.286-1.125-2.09-3.375-3.375-8.117Zm-7.956.482,2.893-6.188,1.768,6.188Z" transform="translate(88.854 -464.784)" fill="#9da1b2"/><path d="M4.893,442.3a2.688,2.688,0,0,0-.776.081.612.612,0,0,0-.282.162l-.036.036H3.654c-.144,0-.433,0-.752.037a2.724,2.724,0,0,0-.964.25,1.486,1.486,0,0,0-.669.7,3.017,3.017,0,0,0-.209.859h0l-.023.185.055-.04a1.56,1.56,0,0,1,.388-.2,2.284,2.284,0,0,1,.873-.162,1.322,1.322,0,0,1,.836.348,1.588,1.588,0,0,1,.467.894,2.329,2.329,0,0,1-.137,1.319,2.618,2.618,0,0,1-.98,1.181,2.392,2.392,0,0,1-1.276.318,2.229,2.229,0,0,1-.873-.162,1.852,1.852,0,0,1-.433-.266l-.073-.058.076-.067a1.64,1.64,0,0,0,.363-.436,1.8,1.8,0,0,0,.238-.922,1.259,1.259,0,0,0-.47-.965,2.556,2.556,0,0,0-1.3-.418,2.888,2.888,0,0,0-1.563.275,4.541,4.541,0,0,0-1.777,1.484,6.086,6.086,0,0,0-.876,2.375,11.81,11.81,0,0,0-.131,2.091c0,.662,0,1.334.052,2.036a9.166,9.166,0,0,0,.443,2.3,21.016,21.016,0,0,0,1.236,2.8c.215.42.435.826.7,1.237a3.048,3.048,0,0,0,.492-.329,5.247,5.247,0,0,0,.941-1.123c.243-.369.4-.661.479-.806l.079-.146-.086.436a14.711,14.711,0,0,1-.5,1.974,8.83,8.83,0,0,1-.726,1.455c.084-.036.371-.066.633-.14a3.2,3.2,0,0,0,.971-.558,5.578,5.578,0,0,0,.765-.953c.4-.514.726-.96.968-1.33s.4-.661.479-.806l.079-.146-.086.436a14.711,14.711,0,0,1-.5,1.974,9.436,9.436,0,0,1-1.008,1.862c-.167.268-.353.571-.548.85a24.939,24.939,0,0,0,2.518,1.86A12.682,12.682,0,0,0,4.676,465.5a2.193,2.193,0,0,0,2-.275,43.983,43.983,0,0,0,3.9-2.219,12.738,12.738,0,0,0,1.168-.823,2.925,2.925,0,0,1-1.13-1.035,5.779,5.779,0,0,1-.939-1.636,14.711,14.711,0,0,1-.5-1.974l-.086-.436.079.146c.079.146.236.437.479.806s.571.816.968,1.33a5.672,5.672,0,0,0,1.381,1.4,1.356,1.356,0,0,0,1.006.069,5.132,5.132,0,0,1-.672-1.277,14.709,14.709,0,0,1-.5-1.974l-.086-.436.079.146c.079.146.237.437.479.806a5.247,5.247,0,0,0,.941,1.124,3.128,3.128,0,0,0,.558.365,24.537,24.537,0,0,0,1.776-3.774,9.072,9.072,0,0,0,.559-3.205c.02-.907.02-1.835-.035-2.561a7.445,7.445,0,0,0-.319-1.743,6.979,6.979,0,0,0-.606-1.392,5.137,5.137,0,0,0-.9-1.187,2.542,2.542,0,0,0-1.123-.629,3,3,0,0,0-1.3-.018,3.237,3.237,0,0,0-1.174.469,1.454,1.454,0,0,0-.583.722,1.2,1.2,0,0,0,0,.733,1.33,1.33,0,0,0,.286.5.8.8,0,0,0,.235.178l.044.023-.128.1a2.475,2.475,0,0,1-.673.4,1.994,1.994,0,0,1-.9.06A1.886,1.886,0,0,1,8.139,448a2.592,2.592,0,0,1-.636-.626,1.137,1.137,0,0,1-.2-.717c-.019-.377-.019-.99-.051-1.508a6.585,6.585,0,0,0-.187-1.275,2.058,2.058,0,0,0-.39-.807,1.933,1.933,0,0,0-.761-.576,2.929,2.929,0,0,0-1.026-.182Zm-7.341,18.733C-2.556,460.923-2.352,461.148-2.448,461.037Z" transform="translate(51.223 -442.304)" fill="#9da1b2"/></g></g></g></g></svg>