<svg xmlns="http://www.w3.org/2000/svg" width="50" height="50" viewBox="0 0 50 50"><path d="M50,50H0V29.625L1.839,43.178l10.29-1.4c1.059-.144,2.08-.324,3.034-.535a28.417,28.417,0,0,0,2.819-.772,21.567,21.567,0,0,0,2.564-1.032c.405-.2.8-.4,1.174-.622s.748-.454,1.095-.7L22.289,40.4l8.045-1.092,1.116-5.82,11.974-1.625,2.626,5.312L50,36.642V50ZM8.385,35.954h0l-2.564-18.9,3.04-.413a22.465,22.465,0,0,1,3.014-.23,13.24,13.24,0,0,1,1.53.084,9.577,9.577,0,0,1,1.447.279,7.441,7.441,0,0,1,1.341.512,6.515,6.515,0,0,1,1.212.786,6.716,6.716,0,0,1,1.059,1.1,8.2,8.2,0,0,1,.882,1.45,11.36,11.36,0,0,1,.682,1.841,16.853,16.853,0,0,1,.459,2.272c.069.507.116,1,.141,1.47s.028.906.011,1.328a11.054,11.054,0,0,1-.112,1.194A8.916,8.916,0,0,1,20.3,29.8a7.494,7.494,0,0,1-.335.948,6.693,6.693,0,0,1-.435.837,6.32,6.32,0,0,1-.526.734,6.446,6.446,0,0,1-.61.638,7.021,7.021,0,0,1-.686.55,8.065,8.065,0,0,1-.755.47c-.256.141-.53.274-.815.4s-.566.23-.868.333a16.138,16.138,0,0,1-1.863.5c-.6.127-1.245.237-1.979.336l-3.04.413ZM50,28.535h0L38.021,6.447l-8.139,1.1L27.128,19.466c-.146-.42-.308-.832-.48-1.224s-.355-.766-.55-1.125-.4-.7-.618-1.029-.444-.639-.683-.936-.486-.578-.745-.845-.527-.519-.805-.757-.565-.462-.862-.672-.6-.406-.917-.59a13.431,13.431,0,0,0-1.986-.944A15.947,15.947,0,0,0,17.31,10.7a19.751,19.751,0,0,0-2.336-.372c-.788-.079-1.622-.119-2.48-.119-.726,0-1.487.029-2.263.085-.753.055-1.541.138-2.341.247L0,11.607V0H50V28.535h0Zm-17.352-1.3,2.317-12.414L40.6,26.152l-7.952,1.079Z" transform="translate(0 0)" fill="#fcd805"/></svg>