<?xml version="1.0" encoding="UTF-8"?><svg id="Layer_2" xmlns="http://www.w3.org/2000/svg" viewBox="0 0 442.82794 503.0626"><defs><style>.cls-1{fill:#050505;}.cls-1,.cls-2,.cls-3{stroke-width:0px;}.cls-2{fill:#d9d9d9;}.cls-3{fill:#fdfdfd;}</style></defs><g id="Layer_1-2"><path class="cls-1" d="m424.55809,447.93796c-11.19714,7.70229-23.22773,13.86305-35.57245,19.48821-30.67143,13.97611-62.60184,23.85383-95.81034,29.54329-37.78426,6.4734-75.73477,7.84628-113.90533,3.84287-39.30809-4.12272-77.43488-12.8407-113.88473-28.32308-16.25524-6.90452-31.97356-14.87993-46.8153-24.5076.85361-2.38205,1.64746-4.78753,2.57092-7.14217,4.60737-11.74802,9.77327-23.12451,18.799-32.36703,9.04253-9.25981,20.02489-15.44758,31.65628-20.57103,30.47867-13.42525,61.54892-25.40475,92.60525-37.40728,1.59069-.61473,2.04894-1.25364,2.02553-2.86436-.09497-6.53398-.10952-13.07079-.01872-19.6047.02193-1.57928-.48318-2.42938-1.82452-3.23611-6.81978-4.1015-12.76802-9.23963-17.98211-15.26833-7.72362-8.93028-12.96444-19.17786-16.36399-30.41089-.53988-1.78396-1.30837-2.72794-3.31056-2.89944-3.11197-.26666-6.09464-1.26304-9.02519-2.35208-20.71381-7.6975-36.19396-34.52942-32.47963-56.49055,1.73948-10.28482,5.19444-19.65539,14.98617-25.17384,1.09697-.61819.56868-1.11835.23399-1.83022-1.83908-3.91173-2.24116-8.06113-1.68696-12.28234.2433-1.85314.15006-2.78816-2.04094-3.49916-6.58427-2.13668-11.93272-9.8704-11.62164-16.39759,1.60546,1.51918,3.3721,2.43088,5.41383,2.89131,1.26284.28481,1.54385-.07552,1.47236-1.24891-.16065-2.63744-.11222-5.277.72633-7.81447.27587-.8347-.06418-1.07841-.64612-1.59491-6.13596-5.44575-8.06808-12.37543-6.94952-20.32114.60413-4.2917,2.51946-8.10915,4.82768-11.9977-2.84262-.46879-4.7548.83645-6.73803,1.77096-.97536.45959-1.66732.919-2.20713-.53105-1.37359-3.68988-2.63393-7.41301-1.72261-11.39674,2.52941-11.05703,9.3519-18.11177,20.17373-21.38772,1.16323-.35212,2.52632.01476,3.62317-.98607-4.07584-6.24671-5.99803-12.92305-4.21778-20.32474,1.58246-6.57934,5.11562-11.75017,11.18165-14.9702,1.05876-.56201,2.25629-1.36648,3.53043-.32889,1.17037.95309.58252,2.14026.38616,3.25112-.22037,1.24665-.60631,2.46895-.76051,3.72151-.5747,4.66801.04443,9.14191,2.17775,13.72146,2.88101-14.73043,11.34307-24.46225,24.1907-30.74632,7.23297-3.53781,15.12955-4.27233,22.89408-5.65539,10.11497-1.80173,19.44817-10.83876,21.01436-20.04586.58335-3.42926,1.85908-4.80001,5.25579-5.1681,6.63749-.71927,11.68071,2.02506,15.59998,7.28755,1.32125,1.7741,1.02868,5.23994,2.95684,5.45662,1.94578.21866,4.14437-1.81308,6.23222-2.85885.08718-.04366.17215-.09299.26228-.12942,12.92765-5.22629,25.65439-5.41383,37.91721,1.86669,4.57876,2.71843,8.66471,6.16373,10.22802,11.55425.54888,1.89268,1.08554,2.1435,2.93005,1.65171,20.75303-5.53324,38.02695.50298,52.19031,16.16714,5.0631,5.5996,8.0984,12.37204,9.85976,20.42193,2.96023-5.80577,3.6034-11.12575,2.08834-16.72819-.39077-1.44501-.6206-2.91292.88404-3.96358,1.3292-.92814,2.44731-.11656,3.50271.52069,5.31207,3.20733,8.93979,7.73467,10.6135,13.76402,2.04562,7.36937,1.07879,14.34989-3.04823,20.74988-1.48281,2.29953-.7871,2.83048,1.46835,3.27098,3.27838.64028,6.36347,1.97809,9.15291,3.75929,7.53838,4.8136,12.24236,11.34031,11.83773,20.74667-.08993,2.08985-.42859,3.46023-3.19702,3.09849-2.72922-.35661-5.56483-.18071-8.50717.61973.88871,1.34529,1.69828,2.43177,2.36378,3.60029,4.9847,8.75292,6.11264,17.86078.65249,26.60874-2.24009,3.58897-4.19017,6.65243-3.00098,10.92009.35937,1.28961-.92865,3.33006.07615,3.72146,1.54021.59996,3.33503-.53148,4.92106-1.3026.54584-.26539.79175-1.19517,1.77525-.74531-1.34788,7.70327-5.39661,13.22751-12.89031,15.87088-1.64925.58176-1.98083,1.25311-1.69875,2.91372.49056,2.88799.85382,5.98518-.3453,8.67119-1.68382,3.77166-.80103,5.65579,2.63936,8.12089,7.66481,5.49199,10.77851,13.853,11.85041,22.96719,2.69472,22.91357-11.3395,53.99545-42.12572,58.53618-1.49613.22069-2.02394.86124-2.39713,2.32111-1.25741,4.91848-3.01084,9.67807-5.33518,14.20944-6.80053,13.25779-16.83697,23.54998-29.14558,31.74315-1.26462.84181-2.30574,1.58189-2.27384,3.38278.11575,6.53273.14454,13.06839.08343,19.60184-.01704,1.82265.59167,2.74462,2.32902,3.4179,13.53645,5.24601,27.04468,10.56543,40.53987,15.91696,17.74555,7.03701,35.6026,13.81036,53.00384,21.68079,14.94147,6.75788,28.42062,15.5291,37.91483,29.32156,6.36158,9.24166,9.84958,19.85993,13.93043,30.18141ZM196.57791,191.15354c-.02732-.39769-.1836-.64608-.63704-.55045-.04102-.15264-.08204-.30526-.12308-.45789.05918.13265.11836.26529.17978.39572.20799.18993.41598.37986.62399.56977.01916.37495.07366.71291.59179.56551.0002.27668-.09524.60057.01464.82309,2.46215,4.98637,2.60196,10.45437,3.30714,15.80506.09188.69717-.36723.77074-.87387.80484-.40078-5.56309-3.09361-10.20675-6.37226-14.41014-5.00249-6.41335-11.84359-9.07177-19.87183-7.84557-13.1332,2.00597-21.18912,10.2092-25.88965,22.14419-1.98242,5.03354-2.34361,10.2763-1.21351,15.71424-2.00955-1.70373-3.56531-3.59329-4.51226-5.94803-.01013-.57027.02422-1.14535-.03689-1.71013-1.46374-13.53002,5.35049-26.95538,17.01052-33.47964.9569-.53539,1.93563-1.03169,2.90421-1.54617-1.76782-.13851-3.39959.0683-5.02533.31485-6.7714,1.02695-13.36046,2.69984-19.53078,5.74809-1.17742.58169-2.62114,1.08216-2.76036,2.73964-.40553,4.82809-1.07329,9.6496-.46627,14.51079-.29791,3.13929.19904,6.2283.66067,9.30848,2.25754,15.06272,11.14851,25.20689,24.9328,28.32301,6.84199,1.54674,13.79283,1.64724,20.60631.07021,11.8233-2.7366,19.6208-9.79758,22.54622-21.88567,1.14048-4.71257,1.45697-9.41322.93022-14.20215-.40041-5.8063-1.89763-11.15137-6.4028-15.23175.00364-.3992-.15815-.6262-.59235-.5699Zm-107.06168-83.82226c-.1489.01868-.40169-.00434-.42882.06323-.1204.29999-.02388.50435.35271.45691,4.6044-.6008,9.24138-.49401,13.8651-.55088,2.28275-.02806,4.47318-1.29206,6.79826-.44361-.42511.94667-1.39306,1.2271-2.15882,1.75292-5.7242,3.93068-9.89101,9.02598-11.82555,15.79413-1.18699,3.58498-1.18582,7.30846-1.24023,11.01766-.03268,2.22664.58672,4.30525,1.64734,6.50042,3.09932-3.83648,6.06398-7.41655,10.36046-9.51599.18735.16594.37468.33191.56201.49787-1.4799,2.83814-3.18452,5.55461-4.29534,8.58837-2.18214,5.95969-1.2305,8.50804,4.9352,11.96989-1.47472-5.6136-1.31202-10.78358,2.20534-15.78899.66378,1.75605-.09647,2.94116-.13351,4.19228-.16717,5.64886,2.64004,7.44356,7.72398,4.9172,4.42272-2.19778,7.45761-5.82988,10.34437-9.66939,2.41817-3.21628,3.26765-6.65695,2.58662-10.68604-.90866-5.37591-1.01034-10.77865,1.77393-15.76816.72605-1.30112.43741-1.91431-.73655-2.79702-2.91117-2.18894-4.40384-5.27019-4.97351-9.04338,6.82839,4.87721,13.74924,4.37727,19.19537-1.28989,1.96063-2.04021,3.70187-4.27061,4.8572-6.88897,1.5714-3.56131,3.00077-7.19008,4.693-10.6923,3.3876-7.01094,8.2787-12.68268,15.23982-16.4005l-.04579-.06178c.38087,1.21362-.67433,1.72858-1.24798,2.42933-1.66869,2.03848-3.11859,4.21065-4.23046,6.59551-5.4809,11.75597-2.63166,21.11629,8.43209,27.0845-1.98567-7.95826-.26928-15.10161,3.94411-21.78804,2.84358-4.51261,6.12229-8.56799,11.07835-10.89104.89207-.41815,2.49471-1.49304,2.52784.70822.09597,6.38013,3.43816,11.39885,6.77644,16.34846,7.30519,10.83135,17.74689,17.56464,29.81468,21.95611,3.00534,1.09365,6.1305,2.2412,9.70272,1.25438-6.46391-8.15741-14.95924-14.05286-21.30205-22.35912,2.03262-.44736,3.32489.66954,4.7808,1.00546,27.99936,6.46007,47.14153-3.61357,62.64145-22.20855.55663-.66779,1.5731-1.31749,1.06701-2.51233.83618-.74607,1.67235-1.49215,2.50853-2.23822.47516,2.25992-.19704,4.8187,1.56921,6.86553.82939-.65809.33798-2.03051,1.795-2.03294.49406,1.24879.87539,2.5501.97829,4.00863.32094,4.54888-.52806,8.91517-1.7915,13.23393-.2338.79931-.90304,1.52933.44516,2.09324,4.97799,2.08208,8.69407,5.87381,12.42354,9.56969,6.16814,6.11258,13.4538,8.28939,21.93368,6.75399.73742-.13353,1.49506-.47935,2.48857.164-4.4605,5.53784-9.71675,9.36448-17.55161,9.18412,3.66111,4.9619,4.16656,10.60478,2.6735,15.64694-2.84122,9.59502,7.28426,21.12793,14.70367,23.59308,3.79462,1.26082,5.75602-.02834,5.92903-4.13834.08636-2.05187.015-4.11037.015-6.16587,2.63504,3.59068,2.80097,7.60337,2.77004,11.65374-.00525.68349-.78764,1.64926.48781,1.87157,1.89626.33049,5.45033-4.01219,4.94156-5.91697-1.1404-4.26923-3.13681-8.14112-5.4664-11.86069.1654-.17212.33076-.34425.49616-.51639,4.54336,2.05568,7.78843,5.57409,10.66283,9.82203,2.714-6.1242,1.3437-11.97412.2868-17.81927-2.41956-8.14882-7.66442-13.92492-15.03861-17.91275.15922-.7714.76878-.88509,1.32805-.69662,6.33029,2.13305,12.84602.48208,19.57862,1.18847-.823-.99625-1.41666-1.71493-2.01037-2.43361-4.50893-8.02278-17.92434-12.63208-27.83821-9.56473-.48873-1.11918.25269-1.50758,1.06822-1.96927,1.24359-.70399,2.75576-1.00911,3.61015-2.32105,8.07412-6.3654,11.49297-17.96329,7.45977-25.20538-3.28292,9.79801-7.99851,18.63837-16.87512,24.63475-.66703-.17966-1.11337-.57854-.57292-1.2076,2.81558-3.27715,2.85447-7.1496,2.09991-11.00973-.83936-4.29389-1.40366-8.80511-5.09264-11.92311.35062-1.04827-.13893-1.8721-.68624-2.70199-10.24317-15.53293-28.29823-25.34007-49.06029-19.87527-7.15318,1.88279-14.19144,4.20071-21.29612,6.272-.61603.17958-1.52167.98908-1.95933-.16306-.27037-.71171.75485-.95379.9884-1.54496,3.51925-1.8603,6.45741-4.48673,9.3881-7.12304,2.36928.56058,1.88261-.90708,1.46624-2.1611-1.25223-3.77135-3.78926-6.54217-7.07297-8.64304-8.2808-5.29793-17.18792-5.72603-26.40263-3.17047-6.75617,1.87372-12.65368,5.45535-18.30727,9.49602-4.4709,3.1954-9.19252,5.90799-14.7748,7.41101.18704-1.68977,1.43584-2.25546,2.33654-2.96839,3.27963-2.59589,5.75086-5.82781,7.46407-9.58262,2.68172-5.87741.47554-12.50961-4.63305-14.49097-.57663,10.22562-6.29949,17.06259-14.66253,22.09941-6.8384,4.11858-14.62192,5.14863-22.26396,6.6401-12.10273,2.36204-22.0691,7.99278-28.46316,18.94092-.58506,1.00178-1.58937,1.92598-1.13355,3.31126l.05498-.07285c-.65135-.28501-.54895.27905-.66824.5934-2.66572,6.1579-4.00382,12.43054-1.46801,18.9761.43655,1.12687,1.3142,2.20077-.84428,2.26731-7.47191-6.33246-12.32965-14.43722-15.81161-23.52683-1.33009,8.51125-.33714,16.27104,6.38501,22.37057,1.57351,3.00747,4.98465,3.24092,7.60777,4.76002-1.13292,1.07053-2.42622-.50064-3.35942.59626-5.24709-1.32129-10.44025-1.0982-15.47335.85876-5.96214,2.31819-10.72658,5.97098-12.76481,12.38325l.11118-.07982Zm203.21362,293.70903c3.81741-.8786,7.08236-2.82531,9.04898-6.15859,3.95905-6.71045,5.85599-14.15261,6.89825-21.83386.13951-1.02824-.11315-1.56185-1.03011-2.09074-3.69629-2.13196-4.11335-1.96132-4.60855,2.19172-.06904.57919-.17326,1.15434-.26637,1.73049-1.52031,9.40645-4.77098,18.15412-9.92505,26.17547.071.19943.14197.39883.21297.59826.06832-.05633.13665-.11267.20497-.16903-.17836-.14792-.35673-.29581-.53509-.44373Zm-144.26743-127.5582c-2.26604,5.38293-3.81962,10.81794-.99342,16.64775,1.37754-4.05327,3.10209-7.94551,5.8217-11.30165.37864.23226.75728.46452,1.1359.69682-.50895,4.09614-1.19223,8.16695-1.08512,12.3296.08145,3.16545,1.19742,5.74157,3.59154,8.02607,1.75418-4.58984,2.52816-9.41059,5.8577-13.11701-1.51604,9.1554-1.68035,18.06403,3.04493,26.39151.88266-.86864,1.00426-2.17418,1.41927-3.34767.97004-2.7428,1.49065-5.65202,3.03359-8.18263.30007-.4921.58433-1.16813,1.27544-.90629.72274.27384.37639.96487.2823,1.50691-.60379,3.47837-.44746,6.99329-.24851,10.47505.14335,2.50843.42168,5.1087,2.01005,7.37672.87057-.86114.60465-1.80104.75389-2.63099.83294-4.63203,2.68223-8.77121,5.88335-12.26438.19815.41212.3963.8242.59443,1.23632-2.27175,7.80816-2.73877,15.43733,2.07385,22.85067.95768-1.33862.49757-2.53933.64238-3.64984.55368-4.2456,1.48151-8.34827,4.31864-11.7522,2.09826,1.47537,4.40466,2.49793,6.87608,3.16142-.2416.93472-.42802,1.88795-.73442,2.80092-1.28903,3.84044-1.74216,7.79123-1.4804,11.81068.16885,2.5927,1.03972,4.74027,4.41248,5.04008-.54206-5.76776.00743-11.19663,3.63554-15.87099-.37589,4.44785-1.10104,8.80247-.71115,13.32144.30051,3.48316,1.79482,4.84832,4.99542,5.61237,2.00683.4791,2.01898.24644,1.76552-1.55077-1.02508-7.26834.81205-13.97618,4.13956-20.5825.27919.40762.46614.55533.45407.68453-.05395.57779-.17558,1.14891-.25308,1.72502-.84805,6.30429-1.19603,12.59916.38689,18.85333.33948,1.3413.66421,2.40209,2.50062,2.65832,5.83149.81366,5.76824.9229,5.93787-4.9182.1522-5.24112.29121-10.49431,1.6966-15.6059.4552,2.41966.76203,4.82514.9905,7.23802.2293,2.42148.48772,4.84782.54533,7.27652.15904,6.70409.11461,6.65201,6.71445,5.9559,1.63375-.17228,2.42946-.74297,2.67111-2.40334.61817-4.2477,1.10462-8.48634.67821-12.7898-.18061-1.82319-.2144-3.66091-.33623-5.87996,1.30598,1.00945,1.47145,2.00808,1.83786,2.87629,1.92533,4.56202,2.66193,9.32336,2.43228,14.26727-.0345.74279-.74871,2.12235,1.06029,2.08945,2.87387-.05222,4.75669-1.82426,5.29718-4.69819.80943-4.30425-.24783-8.49587-.53824-12.73433l-.063.04712c1.5116.24884,1.49138,1.64508,1.83036,2.64606,1.2942,3.8213,2.26895,7.71361,1.46117,11.82079,3.73447-.40522,4.65558-2.71161,4.76616-5.7116.14422-3.9121-.0615-7.77544-1.31641-11.52166-.27565-.82284-.73046-1.61914-.21726-2.50571,2.3357-.72543,4.45032-1.88541,6.44544-3.28026.84539,5.17475,3.97288,9.7538,3.49693,15.79376,2.45578-2.331,3.29067-4.66757,3.94202-7.07513,1.51549-5.60187.28048-11.12061-.58767-16.64621l.04661-.08077c2.35838.31563,2.49171,2.47196,2.99494,4.0318,1.21255,3.75829,2.09112,7.62438,3.19456,11.78717,2.33027-4.88447,3.10623-9.63821,2.37006-14.67107-.33376-2.28196-1.07233-4.51879-.86529-6.86998l-.06315.04454c1.40081.00307,1.55078,1.29662,2.08462,2.1196,1.74143,2.68471,2.80151,5.7095,4.10602,9.00748,6.61631-8.07711,2.89258-17.00046,2.75201-26.34183,3.35189,5.58936,5.73723,10.59286,6.95275,16.24203,3.58015-3.11569,4.73912-7.06148,4.39397-11.17894-.28215-3.36603-.34044-7.20826-3.99677-9.28671,1.00126-.63831,2.00255-1.27661,3.00384-1.91492,2.58875,2.4103,3.29292,5.92218,5.10271,9.26195.15879-4.91766,2.5441-9.35529-.03082-13.79047-.13951-.24026.14172-.72497.22708-1.09586l.00932-.01182c2.66543.60394,1.94833,3.95418,4.19421,5.10527,1.06465-3.06765,1.59485-6.20359,2.25531-9.31214.24883-1.17134-.18069-3.02432.9885-3.36163,1.48317-.42791,1.50674,1.66172,2.35356,2.43674.85904.78612,1.22662,1.8683,2.11573,3.09472,3.36274-14.67221,5.63927-29.08209,7.22508-43.65362-2.0323,4.05359-3.94984,8.13352-7.37673,11.21801-7.47256,8.39651-17.09066,12.44366-28.05486,13.29822-9.71972.75756-19.37147.14774-28.03164-5.01534-12.72166-7.58455-19.0241-19.07234-19.83452-33.72608-.06272-1.13392.12058-2.1645-1.24269-2.95034-4.53401-2.61363-9.18346-2.99894-14.05102-1.24469-1.95608.70494-2.98384,1.81754-3.08014,4.23551-.48423,12.15843-4.59358,23.06783-14.56886,30.30785-15.26059,11.07603-32.06581,11.0855-49.17545,4.4434-5.38372-2.09001-9.26432-6.30928-13.45812-10.05443l.03879.1314c-.00691-.19416-.05407-.378-.14151-.55152-1.81241-2.93794-4.0769-5.58358-5.39347-8.8421.2022,8.68793,5.37143,38.18047,7.14804,42.18345.91997-1.38181,1.81923-2.75941,2.74906-4.11604.37635-.54911.7329-1.41868,1.4574-1.25593.97213.2184.80748,1.27886.74096,1.98493-.34301,3.64065,1.33854,6.76246,2.21264,10.21379,1.9849-1.18527,1.66898-4.17265,4.25255-4.38648.06934.10474.15292.1965.25072.27534Zm203.12597,173.87318c.9974-.21329,1.23894-1.16148,1.70775-1.84337,7.07829-10.29505,15.07604-19.79777,23.73976-28.81332,3.35849-3.49488,6.5677-5.03993,11.14138-3.42783.07961.02808.23308-.15346.35744-.24098-12.84892-12.24166-35.1629-21.0153-67.08063-17.37229-.18908.02158-.27898-.18536-.16336.13242.80228.16539,1.64192.40158,2.49764.50524,9.51564,1.15287,18.76755,3.42029,27.75835,6.70952,6.30529,2.30678,12.58898,4.69208,18.30596,8.31498,1.17858.74683,2.11551,1.31644.67021,2.81613-9.12698,9.47042-14.43334,21.13257-18.89088,33.26992l-.10533.49349c.02057-.18132.04114-.36261.06172-.54393ZM124.60172,254.92668c-.93445-6.34925-1.84275-12.70253-2.81492-19.046-.4528-2.95448-4.22562-6.84094-7.16974-7.36809-3.51388-.62916-5.34472,1.66347-6.97655,4.2235-.25262.39633-.53541.77337-1.11255,1.60191.40695-4.06611.87266-7.83144,3.54411-10.1449,2.6012-2.25266,1.84881-3.53746-.00068-5.33444-.48266-.46899-.82459-1.08282-1.23144-1.62991-.98008-1.31792-1.69246-1.17272-2.54387.23707-1.54372,2.55608-2.66988,5.2932-3.87364,8.06539-.79869-2.98994-.50604-5.96653.55122-8.70263,1.09233-2.82678.21396-3.9612-2.51344-4.27373-.86482-.09913-1.73116-.18507-2.5968-.27704,1.46767-3.68445,4.33566-5.04067,8.11399-4.87506,3.07366.13471,5.53539,1.62048,7.86741,3.47451,2.3839,1.89525,4.29109,4.26562,6.53521,6.98282,0-5.11273.01009-9.56571-.01505-14.01849-.00261-.46322-.11861-.97875-.34317-1.3797-2.98076-5.32233-12.34447-7.24923-17.40671-3.61833-2.4468,1.75498-4.0961,4.12236-5.37858,6.79594-10.56774,22.03057,1.09601,50.8338,24.27153,59.9414,1.76755.6946,3.54798,1.26715,5.65932,1.2221-.88566-4.09978-1.72564-7.98806-2.56564-11.87633Zm220.45309-42.66228c-.48006.02243-.96029.06655-1.44017.06378-3.35364-.01934-4.01524.77476-3.04784,3.8338,1.20212,3.80122,1.2903,7.62009.29319,11.90843-.71985-2.90031-.95615-5.54303-2.1698-7.87934-.75332-1.45018-1.26077-3.61644-2.85219-3.81358-1.69128-.20947-2.1938,2.13123-3.32478,3.25147-1.36916,1.35622-1.07629,2.35608.25555,3.79815,2.8064,3.03878,3.99448,6.83972,4.11463,11.31887-.42377-.46379-.68671-.63073-.77207-.86298-1.40527-3.82298-3.57729-5.70055-6.50219-5.58704-3.4111.13237-7.52163,3.17754-8.14365,6.54257-1.2353,6.68237-2.40074,13.38701-2.91983,20.17845-1.42231,3.69356-1.06511,7.7239-2.67543,11.64339,3.16488-.21686,5.65516-1.01602,8.03758-2.08581,14.15001-6.35377,21.78982-17.83677,24.84169-32.54987,2.09594-10.10455,1.26223-20.12707-4.27782-29.10125-4.82434-7.81486-15.24723-8.16925-21.19415-1.15598-.54624.64415-.7696,1.26459-.76417,2.09751.03261,5.02988.01618,10.06006.01618,15.03336.70342-.29461.82496-1.26436,1.27923-1.96386,2.26634-3.48932,5.01163-6.4764,8.74261-8.42495,4.31335-2.25272,10.19945-1.93403,12.50344,3.75487Zm-36.11787-5.91556c.53345-2.61127.2134-5.23853.0805-7.85146-.44913-8.83012-.86039-9.35955-9.1123-12.57276-6.75013-2.6284-14.82086-4.31879-18.73144-3.84596.47941.27622.78821.47381,1.11351.63873,9.61071,4.87313,15.59074,12.63706,18.42772,22.96726,1.06944,3.89404,1.04336,7.88623,1.38349,11.84944-1.04172,2.6855-2.34763,5.13652-5.11896,6.29165,1.13112-3.80758.93843-7.47705.00071-11.05333-2.73786-10.44207-8.93208-18.17062-18.52783-23.20574-15.3307-8.04443-33.5858,1.78468-35.56399,19.20054l-.95254-.01329c.05064-.98468.10125-1.96934.15186-2.95402,1.01936-4.2032,2.03873-8.40637,3.19234-13.16316-3.18731,3.26013-5.42004,8.98629-5.67155,13.81845-.1254,1.74472-.35169,3.48893-.36051,5.23424-.0884,17.43669,11.05534,30.04267,28.32169,32.02655,3.4895.40092,7.01396.39729,10.49557.00071,9.14394-1.04153,17.50007-3.75918,23.34956-11.53475,5.76831-7.66774,7.55877-16.4812,7.52216-25.83312Zm-37.75165,200.17114c9.61482-9.16676,15.44509-20.3178,17.5345-33.43371.12168-.7638.45202-1.56145-.44234-2.08502-4.67101-2.73472-8.675-6.31662-12.68255-10.39915-1.29734,7.72933-3.73815,14.70008-5.6403,22.36571-1.65578-12.96337-1.44152-25.44947-1.82518-37.96079-4.9162,5.30802-9.92487,10.16703-15.48842,14.46921-12.39029,9.58098-26.03963,13.91013-41.61116,10.0235-10.38662-2.59245-18.9816-8.42454-26.74082-15.57268-3.09622-2.85235-5.99207-5.92229-9.41181-9.32354.07666,12.85631.39571,25.14641-1.8175,37.83683-2.59389-7.36665-4.2713-14.39151-5.85645-21.69493-3.70612,3.7864-7.39105,6.94453-11.76728,9.15336-1.26807.64002-1.29403,1.42425-1.12653,2.58752,2.04305,14.18876,8.56472,25.91124,19.34488,35.30533,8.62232,8.39192,18.74198,14.22948,30.40694,17.09866,25.73221,6.32919,48.01523-.30881,67.12404-18.37031Zm-33.91021-218.65097c6.59498-8.69422,15.95429-12.05444,26.25182-13.56903,7.34551-1.08039,14.73903-1.27261,22.14923-1.05996,9.02719,1.49455,17.71783,3.9901,25.68526,8.63715,1.59628,1.45697,3.19259,2.91394,5.12267,4.67556,0-5.87937-.17836-11.31301.0669-16.72743.14704-3.24633-.58317-5.83602-2.97248-8.09569-1.70928-1.61654-2.63125-3.84505-3.66933-5.94376-3.68154-7.44307-4.85916-15.35972-4.48979-23.57756.34941-7.7726-2.01794-14.60836-7.25976-20.37367-5.37747-5.91455-12.08739-10.09985-18.7883-14.2915-1.01201-.63302-1.58139-.1-2.28831.47642-7.52606,6.13647-16.17305,8.76578-25.83116,8.22517-1.00911-.05649-2.02415-.00761-3.40417-.00761,2.06423,2.96093,3.9273,5.544,5.69473,8.19097,2.26284,3.38889,2.23631,3.47598-1.61564,4.81496-10.43807,3.62844-21.01847,3.64191-31.71406,1.26554-6.40751-1.42362-12.35336-4.04833-18.29716-6.70657-6.82512-4.43721-13.50384-9.03632-17.87707-16.18273-.25801-.42166-.59952-.96629-1.10037-.64956-.72408.45793-.30871,1.10747-.08434,1.7649,1.77138,5.19031,4.24894,9.9458,8.26393,13.78381,1.16487,1.11353.86862,1.57242-.61454,2.07368-3.78982,1.28079-7.62933,1.42855-11.50981.80625-8.41004-1.34875-14.49898-6.17484-19.19082-13.03104-.1829-1.05838-.56243-1.98024-1.7147-2.50187-2.47896,4.04799-5.75729,7.36448-10.0467,9.1142-5.61982,2.29244-7.49547,6.92083-8.92465,12.09543-1.34832,4.88176-.68024,9.86454-.87111,14.81035-.40019,10.37073-3.06913,19.96598-10.33787,27.81701-.52356.56549-1.1273,1.09102-1.12697,1.96629.00227,6.4654.00123,12.93079.00123,20.27579,2.23532-2.7039,4.55106-3.86925,6.66993-5.31427,7.18079-3.64601,14.76473-6.00932,22.73375-7.14741.48086.0144.96954.09218,1.4414.03385,9.58845-1.18534,19.02596-.04599,28.4065,1.86451,8.12796,1.6554,14.48723,6.24423,19.98998,12.21637.76067,1.75915,1.61476,3.48539,2.24984,5.28877.43773,1.24302.81309,1.14312,1.82304.51996,6.06246-3.74055,12.44908-3.79792,19.10578-1.72681,1.71875.53475,3.27581,2.93889,4.92088,1.69214,1.48485-1.1253,2.06994-3.43858,3.04937-5.22929.04625-.08455.06911-.18193.10286-.27332ZM90.6116,445.98225c-.15492-.65356-.24433-1.33123-.47456-1.95707-3.66086-9.95106-8.68853-19.14371-15.34913-27.4115-3.41612-4.24042-3.44673-4.21595,1.5092-6.92263.25624-.13996.51449-.27634.7735-.41112,9.99589-5.20143,20.59947-8.65773,31.56152-11.14358,4.58506-1.03974,9.27147-1.42753,13.87798-2.28742-25.05133-2.49525-49.02007-.69592-69.35896,17.25648.6204.19729.7098.25819.786.24466.47607-.08437.9763-.11677,1.41908-.29167,4.31002-1.70213,7.15167-.1979,10.31125,3.18514,8.85869,9.48525,17.03578,19.48385,24.94412,29.73872Zm49.07304-76.78753c-5.62805,1.47151-5.77538,1.83076-4.73901,7.2896,1.08231,5.70078,3.37712,10.95326,5.44933,16.3169,1.87145,4.84404,5.66191,7.29892,10.42616,9.72251-6.11914-10.68702-10.40003-21.42931-11.13647-33.32901Zm-10.61927-142.50795l-.00063.23037-.09349-.02236.09411-.20801Z"/><path class="cls-2" d="m424.55809,447.93796c-4.08085-10.32149-7.56884-20.93975-13.93043-30.18141-9.49421-13.79247-22.97337-22.56368-37.91483-29.32156-17.40125-7.87043-35.2583-14.64378-53.00384-21.68079-13.49519-5.35153-27.00342-10.67095-40.53987-15.91696-1.73736-.67328-2.34606-1.59525-2.32902-3.4179.06111-6.53345.03232-13.06911-.08343-19.60184-.03189-1.80089,1.00922-2.54097,2.27384-3.38278,12.30861-8.19317,22.34506-18.48537,29.14558-31.74315,2.32434-4.53137,4.07777-9.29096,5.33518-14.20944.37319-1.45986.901-2.10042,2.39713-2.32111,30.78622-4.54073,44.82044-35.62261,42.12572-58.53618-1.0719-9.11419-4.1856-17.4752-11.85041-22.96719-3.44039-2.4651-4.32318-4.34922-2.63936-8.12089,1.19912-2.68602.83586-5.78321.3453-8.67119-.28208-1.66062.0495-2.33197,1.69875-2.91372,7.4937-2.64337,11.54244-8.16761,12.89031-15.87088-.9835-.44986-1.22941.47992-1.77525.74531-1.58603.77112-3.38085,1.90256-4.92106,1.3026-1.00479-.3914.28323-2.43184-.07615-3.72146-1.18919-4.26765.76089-7.33112,3.00098-10.92009,5.46015-8.74796,4.33221-17.85581-.65249-26.60874-.66549-1.16852-1.47506-2.255-2.36378-3.60029,2.94233-.80045,5.77795-.97634,8.50717-.61973,2.76843.36173,3.10709-1.00865,3.19702-3.09849.40462-9.40637-4.29935-15.93307-11.83773-20.74667-2.78944-1.78119-5.87453-3.11901-9.15291-3.75929-2.25545-.4405-2.95116-.97145-1.46835-3.27098,4.12703-6.39999,5.09385-13.38051,3.04823-20.74988-1.67371-6.02935-5.30143-10.5567-10.6135-13.76402-1.0554-.63725-2.17352-1.44883-3.50271-.52069-1.50463,1.05066-1.2748,2.51856-.88404,3.96358,1.51506,5.60244.87189,10.92242-2.08834,16.72819-1.76136-8.04989-4.79666-14.82233-9.85976-20.42193-14.16336-15.66415-31.43728-21.70037-52.19031-16.16714-1.8445.49179-2.38117.24097-2.93005-1.65171-1.56331-5.39052-5.64927-8.83582-10.22802-11.55425-12.26282-7.28052-24.98956-7.09299-37.91721-1.86669-.09013.03643-.1751.08575-.26228.12942-2.08785,1.04577-4.28644,3.07751-6.23222,2.85885-1.92815-.21668-1.63558-3.68252-2.95684-5.45662-3.91927-5.26249-8.96249-8.00682-15.59998-7.28755-3.39671.36809-4.67244,1.73884-5.25579,5.1681-1.56619,9.2071-10.89939,18.24413-21.01436,20.04586-7.76453,1.38305-15.6611,2.11757-22.89408,5.65539-12.84763,6.28407-21.30969,16.01589-24.1907,30.74632-2.13332-4.57955-2.75245-9.05345-2.17775-13.72146.1542-1.25256.54015-2.47486.76051-3.72151.19637-1.11086.78421-2.29803-.38616-3.25112-1.27414-1.03759-2.47167-.23313-3.53043.32889-6.06603,3.22004-9.5992,8.39086-11.18165,14.9702-1.78025,7.40169.14193,14.07803,4.21778,20.32474-1.09685,1.00083-2.45994.63395-3.62317.98607-10.82183,3.27595-17.64433,10.33069-20.17373,21.38772-.91132,3.98372.34901,7.70686,1.72261,11.39674.53981,1.45006,1.23176.99064,2.20713.53105,1.98322-.93451,3.89541-2.23975,6.73803-1.77096-2.30822,3.88854-4.22355,7.706-4.82768,11.9977-1.11856,7.94571.81355,14.8754,6.94952,20.32114.58193.5165.92198.76021.64612,1.59491-.83855,2.53747-.88698,5.17703-.72633,7.81447.07149,1.17339-.20953,1.53372-1.47236,1.24891-2.04173-.46043-3.80837-1.37213-5.41383-2.89131-.31108,6.52719,5.03737,14.26092,11.62164,16.39759,2.191.711,2.28424,1.64602,2.04094,3.49916-.5542,4.22122-.15211,8.37062,1.68696,12.28234.33469.71187.86298,1.21203-.23399,1.83022-9.79172,5.51846-13.24668,14.88902-14.98617,25.17384-3.71433,21.96113,11.76582,48.79305,32.47963,56.49055,2.93055,1.08904,5.91322,2.08542,9.02519,2.35208,2.00219.1715,2.77068,1.11547,3.31056,2.89944,3.39955,11.23303,8.64037,21.48061,16.36399,30.41089,5.21409,6.0287,11.16233,11.16683,17.98211,15.26833,1.34134.80673,1.84645,1.65683,1.82452,3.23611-.09081,6.53391-.07625,13.07071.01872,19.6047.02341,1.61071-.43484,2.24963-2.02553,2.86436-31.05632,12.00254-62.12657,23.98203-92.60525,37.40728-11.63139,5.12345-22.61375,11.31122-31.65628,20.57103-9.02573,9.24252-14.19163,20.61901-18.799,32.36703-.92346,2.35465-1.71731,4.76013-2.57092,7.14217-4.74041-1.1926-7.27391-5.30631-5.61872-9.58898,5.21785-13.50059,11.03393-26.64739,21.67728-37.01153,4.57099-4.45114,9.70434-8.11612,14.92758-11.69408,3.07945-2.10942,3.13382-2.09417.73129-5.10677-10.12322-12.69382-18.77174-26.33368-26.04573-40.83622-10.87176-21.67554-18.06084-44.55499-21.68184-68.50992-1.89318-12.52436-2.9916-25.17977-2.39873-37.84594.97192-20.76437,3.93105-41.24108,10.20249-61.155,10.5151-33.38904,28.26898-62.49702,51.92465-88.12608,8.40213-9.10305,17.43463-17.54134,27.15078-25.23395,1.10626-.87584,1.70827-1.91669,2.20082-3.25693,2.98809-8.13051,8.30193-14.22837,16.26868-17.83107,3.60604-1.63073,7.26999-1.4355,10.67801.47207,1.23603.69185,1.82211.51728,2.70929-.33822,10.49011-10.11542,23.38253-14.31902,37.60929-15.16741,6.47126-.3859,14.01314-7.04821,16.06683-14.27973C177.20823,4.59722,182.10425.17505,189.95518.0062c7.69519-.16549,14.31891,2.98389,19.18828,8.95235,1.50036,1.83899,2.46162,1.79121,4.26082,1.12188,13.75344-5.11654,27.32331-4.54525,40.55978,1.74316,4.97585,2.36395,9.24434,5.81342,12.57512,10.24639,1.08087,1.43855,2.19102,1.93027,3.92248,1.6929,17.78751-2.43858,33.26964,2.83334,46.85827,14.21634,1.62846,1.36412,2.96894,3.07894,4.39729,4.67212.64392.71822,1.19033,1.28402,2.1488.43315,4.42332-3.92678,9.13705-2.87781,13.52884-.26022,6.43587,3.83595,11.35761,9.15224,13.89096,16.39031.56381,1.61085,1.55721,2.82363,2.8983,3.91897,25.89027,21.14556,47.06099,46.22023,62.84074,75.75801,11.9587,22.38522,19.70773,46.21747,23.34831,71.26732,3.0482,20.97377,3.32614,42.01206.44848,63.15574-5.42672,39.87395-20.84696,75.39061-45.07052,107.28322-1.17769,1.55052-2.36881,3.11634-3.74108,4.48743-1.91822,1.9166-1.19869,3.01049.78575,4.22859,8.54553,5.24537,15.89965,11.79325,22.15387,19.69321,6.10278,7.70864,9.64889,16.64082,13.27515,25.57903.54931,1.35402,1.09126,2.71326,1.56985,4.09325,1.4297,4.12239-.75403,7.96066-5.23657,9.2586Z"/><path class="cls-3" d="m255.75517,313.69922c-1.99512,1.39485-4.10974,2.55483-6.44544,3.28026-5.92721,1.76053-11.76352.9478-17.37914-1.10593-6.57723-2.40552-13.06543-2.32804-19.69861-.49506-5.718,1.57999-11.49229,2.82421-17.48152,1.64983-2.47144-.66349-4.77784-1.68605-6.8761-3.16142-2.34497-2.48289-4.68992-4.96574-7.03486-7.44863-.19815-.41212-.3963-.8242-.59445-1.23632-1.15758-2.44892-2.56589-4.81314-3.42659-7.36233-2.79565-8.28012-2.50639-17.33439,6.98804-22.14045.17174-.08695.19028-.4766.33767-.88339-1.85508,0-3.61033-.22404-5.28847.04072-5.74636.90657-11.73268,1.38242-15.31341,7.06762-.60208.95594-1.60065.50789-2.39488.21719-2.25493-.82534-4.48247-1.72552-6.72079-2.59627-.37862-.2323-.75726-.46456-1.1359-.69682-1.60942-1.78203-3.21885-3.56407-4.82829-5.3461-.09781-.07884-.18138-.17061-.25072-.27534-7.09572-10.77422-10.09161-23.0636-13.06446-35.3615,4.1938,3.74516,8.0744,7.96443,13.45812,10.05443,17.10965,6.64209,33.91487,6.63263,49.17545-4.4434,9.97528-7.24002,14.08463-18.14942,14.56886-30.30785.09631-2.41796,1.12406-3.53056,3.08014-4.23551,4.86756-1.75424,9.51701-1.36893,14.05102,1.24469,1.36327.78584,1.17998,1.81642,1.24269,2.95034.81043,14.65374,7.11286,26.14154,19.83452,33.72608,8.66018,5.16308,18.31193,5.7729,28.03164,5.01534,10.9642-.85456,20.5823-4.90171,28.05486-13.29822.59785.41403.49888,1.02501.36991,1.57919-2.66925,11.46981-5.30675,22.95342-12.12557,32.89347l-.00932.01182c-1.76632,1.87477-3.53264,3.74957-5.29897,5.62437-1.00129.63831-2.00258,1.27661-3.00366,1.91492-.51884-.26152-.93711.05548-1.35502.26441-2.93973,1.46976-5.84213,3.1098-7.84686-1.3463-.35091-.78008-1.40424-1.36291-2.25884-1.77807-5.44769-2.64649-11.25325-3.13498-18.04842-2.97091,2.0988,1.44018,3.47664,2.43456,4.90238,3.35463,4.05402,2.61634,5.80027,6.42782,5.71527,11.13222-.10758,5.95444-1.74086,11.46697-5.03242,16.45993l-.04661.08077c-2.28374,2.64253-4.56751,5.28505-6.85128,7.92758Zm-53.37245-52.35937c.00868.23319.01738.46634.02607.69953.04523.27584.00277.61412.14829.81852,6.01044,8.44061,17.82546,11.95478,27.48578,8.07622,4.83073-1.93949,8.97872-4.82653,11.66648-9.46092,3.78415-6.6504,3.97602-8.77482,1.01793-14.20471v7.01143c-3.03098-4.30441-7.41841-4.09653-11.80459-3.32206-4.51436.79711-9.01555,1.41575-13.56704.67969-5.80624-.93892-11.62337-2.51748-17.04791,1.31073-.01084-.32819-.02168-.65636-.03252-.98455,2.03523-2.89295,2.35135-6.33634,3.2319-9.62003-2.06221,1.1263-2.46651,3.23423-3.34585,5.04197-.91207,1.50927-1.31071,3.19766-1.56526,4.90296-.55265,3.70211,1.09946,7.53127,3.84437,9.12955,0,0-.05768-.07834-.05766-.07834Zm4.76336,43.9941l-.1024-.04247c-.4427.60944.16106.86153.45466,1.12315,3.79419,3.38071,8.21175,5.54118,13.24774,6.1479,5.85801.70578,14.11495-3.47623,16.30486-8.01746.0685-.82892,2.25777-2.45038-.815-2.09574-7.41509.85589-14.83595,1.42211-22.29764.51189-2.30304-.28095-4.62712-.49631-6.944-.52193-1.77652-.01965-1.79522.17157-1.01947,2.2213.32057.346.39241,1.12476,1.17124.67335Zm10.68583-11.0795c15.43081.05305,26.16243-1.32626,36.04576-6.69801,1.54692-.84077,3.01259-1.80004,4.0572-3.26637.52413-.73575.4688-1.39606-.23094-2.04516-.78732-.73036-1.00701-.04976-1.57042.36832-2.61439,1.93996-5.69895,2.92476-8.75243,3.91082-13.78563,4.45185-27.87021,4.15826-41.95012,2.14711-6.88419-.9833-13.79055-2.3824-19.59225-6.79539-.96043-.73054-1.35441.23047-1.28798,1.07746.09877,1.25979.98402,2.09667,1.89008,2.83696,2.75111,2.24759,5.91019,3.74589,9.26993,4.82028,8.625,2.75823,17.51739,3.61361,22.12117,3.64398Zm10.39578-59.07841c-4.53111-1.49671-9.02808-1.60025-13.47751.19397,4.49315-.33964,8.98333-.68124,13.47751-.19397Zm-17.04239,1.37626l.21478-.07603-.2109-.07087-.00388.1469Zm18.71117-.7591l-.01446.16328.23826-.06203-.22379-.10125Zm-16.72804.11061c-.12722-.01416-.25442-.02831-.38162-.04247.05852.04101.1142.10908.17635.11558.06513.00686.13649-.04535.20528-.0731Z"/><path class="cls-3" d="m311.3614,181.87718c-7.96743-4.64705-16.65807-7.1426-25.68526-8.63715-.36562-1.60748-.26619-3.22316-.08536-4.84027,7.89293,1.55617,15.57392,3.71219,22.57178,8.38439-1.13815-8.69064-7.23344-17.56068-15.39213-22.47155-13.43191-8.0849-27.87496-8.82526-42.94079-6.19397-5.94821,1.03889-8.85918,4.20938-9.76776,9.81698-.20254,1.25023-.50216,2.49798-.55977,3.75591-.15722,3.43297.53681,6.59199,3.32331,8.95132-3.72433,5.13799-5.26318,10.98037-5.55033,17.22619-.03375.09139-.05661.18877-.10286.27332-.97943,1.79071-1.56453,4.104-3.04937,5.22929-1.64507,1.24675-3.20213-1.15739-4.92088-1.69214-6.6567-2.07111-13.04332-2.01374-19.10578,1.72681-1.00995.62316-1.38531.72305-1.82304-.51996-.63508-1.80338-1.48917-3.52961-2.24984-5.28877.83011-.49503.35307-1.15371.23122-1.777-1.07056-5.47722-2.80685-10.74216-5.03847-15.84986,5.56278-6.63238,1.49772-19.56053-6.85314-21.5196-8.04599-1.88754-16.2007-2.29933-24.39737-1.11417-11.56335,1.67196-21.78093,5.86715-29.06903,15.57232-2.90178,3.86416-4.83977,8.09376-5.70832,13.15405,6.81937-4.09417,13.9508-6.28495,21.39159-7.58451-.13145,1.66801-.2629,3.33602-.39437,5.00403-7.969,1.13808-15.55294,3.50139-22.73373,7.14741-.54792-.28656-.45834-.71041-.36103-1.22946,2.19082-11.68678,4.83123-23.27682,7.32219-34.90041,3.1334-14.62152,8.12989-28.21974,18.21767-39.56636.62733-.70562,1.34784-1.45456,1.17199-2.5667,4.69183,6.8562,10.78078,11.68229,19.19082,13.03104,3.88048.6223,7.71999.47454,11.50981-.80625,1.48317-.50126,1.77941-.96016.61454-2.07368-4.01499-3.83802-6.49255-8.5935-8.26393-13.78381-.22437-.65743-.63974-1.30697.08434-1.7649.50084-.31673.84236.22789,1.10037.64956,4.37323,7.14641,11.05195,11.74552,17.87707,16.18273.23599,2.33986,2.29486,3.05856,3.86693,3.99217,11.65973,6.92452,24.20908,9.35908,37.58259,6.87635,15.54435-2.88572,30.62107-7.30537,44.86576-14.28706,1.24252-.60898,1.8045-.42366,2.49664.77776,1.75221,3.04182,3.42225,6.12065,4.75073,9.36669,5.47983,13.38933,8.08579,27.59622,11.74287,41.50385,1.72061,6.54339,1.56067,13.4804,4.14035,19.84541Z"/><path class="cls-3" d="m125.747,68.20513c-.45582-1.38528.54849-2.30948,1.13355-3.31126,6.39406-10.94814,16.36044-16.57888,28.46316-18.94092,7.64204-1.49147,15.42556-2.52152,22.26396-6.6401,8.36304-5.03682,14.0859-11.87379,14.66253-22.09941,5.10858,1.98136,7.31476,8.61356,4.63305,14.49097-1.71321,3.75481-4.18444,6.98672-7.46407,9.58262-.9007.71293-2.1495,1.27861-2.33654,2.96839,5.58228-1.50302,10.3039-4.21562,14.7748-7.41101,5.65359-4.04067,11.5511-7.6223,18.30727-9.49602,9.21472-2.55556,18.12183-2.12746,26.40263,3.17047,3.28371,2.10087,5.82074,4.87169,7.07297,8.64304.41637,1.25402.90304,2.72168-1.46624,2.16108-.91893-4.10573-4.26364-5.89535-7.58513-7.3655-9.37938-4.15148-18.94877-3.62761-28.48702-.46298-6.06073,2.01086-11.26717,5.43826-16.0019,9.77118.89211.78176,1.62264.32591,2.33452.17866,3.91202-.80916,7.85614-1.4542,11.85689-1.31199,9.87781.3511,19.53207,1.79267,28.49454,6.31368-.23355.59117-1.25877.83325-.9884,1.54496.43766,1.15214,1.3433.34264,1.95933.16306,7.10468-2.07129,14.14293-4.38921,21.29612-6.272,20.76206-5.4648,38.81712,4.34234,49.06029,19.87527.54731.8299,1.03686,1.65372.68624,2.70199-4.74877-5.02181-10.61086-8.33281-17.24678-9.7549-3.39475-.72749-7.5742-1.91802-10.26042,2.16552-.83618.74608-1.67235,1.49215-2.50853,2.23822-5.36868,3.47043-10.22542,7.68336-15.87929,10.75061-10.45989,5.67455-21.37827,8.87623-33.40426,6.73517-7.57102-1.34791-13.99834-5.19663-20.37837-9.17896-4.4772-2.79459-9.03417-5.42038-14.40928-6.11171-9.36328-1.20428-18.17949.92699-26.77527,4.39081-.94123.37929-1.76613,1.16315-3.22663.73416,12.65271-11.91055,27.81774-14.18978,44.12953-12.73103-.83452-.51142-1.63991-.80209-2.46337-1.02628-9.0294-2.4582-18.11556-2.2143-27.22077-.51194-10.23394,1.91337-19.94849,5.1994-28.86793,10.71004-11.01981,6.8083-18.67373,16.02178-21.17551,29.68244-2.00231-5.42444-2.55055-10.36554-2.05128-15.41509,1.00477-10.16198,6.47001-17.92296,13.57129-24.89836-8.23257,2.86416-15.55808,6.92765-20.90568,13.96712Z"/><path class="cls-2" d="m173.65431,407.79163c-10.78015-9.39409-17.30183-21.11657-19.34488-35.30533-.16751-1.16327-.14154-1.9475,1.12653-2.58752,4.37623-2.20883,8.06117-5.36696,11.76728-9.15336,1.58515,7.30342,3.26256,14.32829,5.85645,21.69493,2.21322-12.69042,1.89417-24.98052,1.8175-37.83683,3.41975,3.40125,6.3156,6.47118,9.41181,9.32354,7.75923,7.14814,16.3542,12.98023,26.74082,15.57268,15.57153,3.88663,29.22087-.44252,41.61116-10.0235,5.56355-4.30218,10.57222-9.16118,15.48842-14.46921.38366,12.51132.1694,24.99742,1.82518,37.96079,1.90215-7.66564,4.34296-14.63638,5.6403-22.36571,4.00756,4.08253,8.01154,7.66442,12.68255,10.39915.89436.52357.56402,1.32123.44234,2.08502-2.08941,13.1159-7.91968,24.26695-17.5345,33.43371-1.13297-.27177-2.13144.23255-3.09238.65524-6.97714,3.06886-14.28448,5.12524-21.60735,7.14014-.77796.21408-1.5586.70368-2.62146-.1451,11.45-11.00702,16.18366-24.91468,18.36757-40.15401-1.64682.08773-2.3172,1.16034-3.19338,1.86973-6.28372,5.08759-12.55123,10.20261-19.57448,14.2656-11.32843,6.55366-22.80632,7.37376-34.38058.63609-4.13299-2.40591-7.90738-5.33628-11.67519-8.27176-4.03797-3.14598-8.12244-6.23228-12.78441-9.80238,1.30059,8.62483,3.43914,16.14819,6.42687,23.44896,2.88089,7.03969,7.45272,12.93397,12.45974,18.53981l.03307-.03294c-1.08276.14667-2.09823-.1216-3.1455-.38233-7.06588-1.7591-13.94971-4.08017-20.77933-6.58192-.61831-.22647-1.3664-1.07543-1.96417.08652Z"/><path class="cls-2" d="m125.747,68.20513c5.34759-7.03947,12.67311-11.10296,20.90568-13.96712-7.10127,6.9754-12.56651,14.73638-13.57129,24.89836-.49927,5.04955.04897,9.99065,2.05128,15.41509,2.50178-13.66066,10.1557-22.87413,21.17551-29.68244,8.91944-5.51063,18.63399-8.79667,28.86793-10.71004,9.10521-1.70236,18.19137-1.94625,27.22077.51194.82346.22419,1.62885.51485,2.46337,1.02628-16.31179-1.45875-31.47682.82049-44.12953,12.73103,1.46051.42899,2.2854-.35487,3.22663-.73416,8.59578-3.46382,17.412-5.5951,26.77527-4.39081,5.37511.69133,9.93208,3.31712,14.40928,6.11171,6.38003,3.98234,12.80734,7.83105,20.37837,9.17896,12.02599,2.14106,22.94437-1.06062,33.40426-6.73517,5.65387-3.06725,10.51061-7.28018,15.87929-10.75062.50609,1.19485-.51038,1.84455-1.06701,2.51234-15.49992,18.59498-34.64209,28.66862-62.64145,22.20855-1.45592-.33592-2.74818-1.45282-4.7808-1.00546,6.34281,8.30626,14.83814,14.20171,21.30205,22.35912-3.57222.98682-6.69738-.16073-9.70272-1.25438-12.0678-4.39147-22.50949-11.12476-29.81468-21.95611-3.33828-4.9496-6.68047-9.96833-6.77644-16.34846-.03313-2.20126-1.63576-1.12637-2.52784-.70822-4.95606,2.32304-8.23476,6.37843-11.07835,10.89104-4.21339,6.68643-5.92978,13.82979-3.94411,21.78804-11.06376-5.96821-13.913-15.32853-8.43209-27.0845,1.11187-2.38486,2.56177-4.55703,4.23046-6.59551.57365-.70076,1.62885-1.21572,1.24816-2.42895.35984.2282.65385.13089.88052-.1984.02248-.03267-.06252-.20148-.12351-.21946-.41752-.1232-.64888.0598-.7114.47926-6.96112,3.71782-11.85222,9.38956-15.23982,16.4005-1.69223,3.50223-3.12159,7.13099-4.693,10.6923-1.15533,2.61836-2.89656,4.84876-4.8572,6.88897-5.44613,5.66717-12.36699,6.16711-19.19537,1.28989.56967,3.7732,2.06233,6.85445,4.97351,9.04338,1.17396.88271,1.4626,1.49591.73655,2.79702-2.78427,4.98951-2.68259,10.39225-1.77393,15.76816.68103,4.02909-.16845,7.46976-2.58662,10.68604-2.88676,3.83952-5.92165,7.47162-10.34437,9.66939-5.08394,2.52636-7.89114.73166-7.72398-4.9172.03704-1.25112.79728-2.43624.13351-4.19228-3.51736,5.00541-3.68006,10.17539-2.20534,15.78899-6.1657-3.46185-7.11734-6.0102-4.9352-11.96989,1.11081-3.03377,2.81544-5.75024,4.29343-8.58903.09643-.22413.33885-.56279.26821-.6512-.30696-.38413-.59386-.14919-.8283.154-4.29648,2.09944-7.26114,5.67951-10.36046,9.51599-1.06061-2.19517-1.68002-4.27378-1.64734-6.50042.05441-3.7092.05323-7.43268,1.24023-11.01766.71644-.10409,1.1966-.56629,1.6853-1.05273,3.98293-3.96445,8.80404-6.6836,13.77813-9.14854,1.23596-.61246,2.51619-1.50669,4.15278-.71084-1.19819,2.78063-3.42557,4.97038-4.13976,7.96945-.87061,3.6558.09675,6.91368,2.62514,8.24432,2.62752,1.38281,6.2332.33408,8.54535-2.53004,2.95125-3.65584,3.97982-7.9735,3.95016-12.53557-.01838-2.82639-1.43886-4.82982-4.1134-6.15953-3.77694-1.87779-7.74735-1.51209-11.70676-1.59662-.30339-.26396-.62897-1.08164-.877.03517l.08445-.06214c-2.32509-.84844-4.51552.41557-6.79828.44362-4.62372.05687-9.2607-.04992-13.8651.55088-.11234-.19352-.08699-.36691.07611-.52014,0,0-.11118.07982-.1107.07975,3.93064-2.08015,7.36428-4.9657,11.42111-6.86542,5.21805-2.4435,10.63058-4.1739,16.30767-5.08677,1.0367-.1667,1.83718-.26403.5089-1.28974.9332-1.09691,2.2265.47426,3.35942-.59626-2.62312-1.5191-6.03426-1.75255-7.60777-4.76002,1.61283-.72797-.77444-1.92029.60088-2.87501,2.16562,1.87421,4.68516,3.43752,7.48414,4.56193.87534.35164,1.19762.44572,1.34157-.53066,2.15848-.06654,1.28084-1.14044.84428-2.26731-2.53582-6.54556-1.19771-12.8182,1.46801-18.9761.51957.13658.48934-.34619.66824-.5934l-.05498.07285Z"/><path class="cls-3" d="m199.51026,414.7023c-5.00704-5.60583-9.57887-11.50012-12.45976-18.53981-2.98773-7.30078-5.12628-14.82414-6.42687-23.44896,4.66198,3.57011,8.74645,6.6564,12.78441,9.80238,3.76781,2.93548,7.5422,5.86585,11.67519,8.27176,11.57426,6.73767,23.05216,5.91757,34.38058-.63609,7.02325-4.06299,13.29076-9.17801,19.57448-14.2656.87618-.70939,1.54656-1.782,3.19338-1.86973-2.18391,15.23933-6.91757,29.14699-18.36757,40.15401,1.06286.84878,1.8435.35918,2.62146.1451,7.32287-2.0149,14.6302-4.07128,21.60735-7.14014.96093-.42269,1.9594-.92701,3.09238-.65524-19.10882,18.0615-41.39183,24.6995-67.12404,18.37031-11.66496-2.86918-21.78462-8.70674-30.40694-17.09866.59777-1.16195,1.34586-.31299,1.96417-.08652,6.82962,2.50175,13.71345,4.82282,20.77933,6.58192,1.04727.26073,2.06274.529,3.14541.38247.075.08605.15011.172.22522.25794-.01325-.0529-.00966-.13017-.04334-.15346-.05966-.04122-.14201-.04958-.21485-.07169Z"/><path class="cls-2" d="m287.31235,58.86992c2.68622-4.08354,6.86567-2.89301,10.26042-2.16552,6.63591,1.4221,12.49801,4.7331,17.24678,9.7549,3.68897,3.118,4.25328,7.62922,5.09264,11.92311.75457,3.86013.71567,7.73258-2.09991,11.00973-.54045.62906-.09411,1.02794.57292,1.2076.10786.16527.08768.31304-.0605.44338-.1025.06379-.20508.12751-.30766.19122.02179-.05022.03054-.12533.06829-.14518.06754-.03552.15265-.03778.2304-.05393,1.57606.16162,2.97462-.97658,4.57669-.62512,1.80393,2.4223,2.5855-1.11158,4.04517-.69445.07686.60999.32469,1.11852.86296,1.45471-.85439,1.31194-2.36656,1.61706-3.61015,2.32105-.81553.46169-1.55696.85009-1.06894,1.96884,4.17367.03563,8.29541.51725,12.22914,1.94561,5.46565,1.98461,10.58465,4.71402,15.60978,7.61955.5937.71868,1.18737,1.43736,2.01037,2.43361-6.7326-.70639-13.24833.94458-19.57862-1.18847-.55927-.18847-1.16883-.07478-1.32805.69664-3.35678.36741-6.72185.67301-10.06755,1.1228-2.44878.32921-4.86406,1.37347-5.19893,3.97499-.82575,6.41483.84664,12.19372,5.72441,16.72491,1.89761,1.76282,4.4205,1.99556,6.59434,1.10034,2.13902-.88085,2.65454-3.18442,2.65929-5.4625.0035-1.69018-.34444-3.25953-1.10051-4.78556-2.16023-4.36028-5.15067-7.76412-10.67247-9.03325,1.58824-.35702,2.4741-.07966,3.39642.2176,4.18156,1.34772,8.14069,3.19601,12.08049,5.12058,4.49565,2.19613,7.85475,5.8193,11.62312,8.93284,1.0569,5.84515,2.42721,11.69507-.2868,17.81927-2.8744-4.24794-6.11946-7.76635-10.66376-9.82035-.26226-.2503-.55467-.52555-.83789-.08641-.05772.08941.21969.39511.34266.60112,2.3296,3.71956,4.326,7.59146,5.4664,11.86069.50877,1.90477-3.0453,6.24746-4.94156,5.91697-1.27544-.22231-.49306-1.18808-.48781-1.87157.03093-4.05036-.13501-8.06305-2.77004-11.65374,0,2.0555.07136,4.114-.015,6.16587-.17301,4.11-2.13441,5.39917-5.92903,4.13834-7.41941-2.46515-17.54489-13.99806-14.70367-23.59308,1.49306-5.04217.98761-10.68504-2.6735-15.64694,7.83486.18036,13.09111-3.64628,17.55161-9.18412-.9935-.64335-1.75114-.29752-2.48857-.164-8.47988,1.5354-15.76554-.64141-21.93368-6.75399-3.72947-3.69587-7.44555-7.48761-12.42354-9.56969-1.3482-.56391-.67896-1.29393-.44516-2.09324,1.26344-4.31875,2.11244-8.68504,1.7915-13.23393-.1029-1.45853-.48423-2.75984-.97829-4.00863-1.45702.00243-.96561,1.37485-1.795,2.03294-1.76625-2.04683-1.09404-4.60561-1.56921-6.86553Zm45.39828,77.06135c-.07043.01822-.17919.01572-.20269.05926-.04057.07505-.06722.20034-.03075.26659.13054.23692.26569.20811.3253-.07294.01575-.07446-.05879-.16807-.09186-.25291Z"/><path class="cls-3" d="m242.08771,205.79991c-.05064.98468-.10125,1.96934-.1519,2.95402-.52102,1.32455-.63349,2.58671.49327,3.9475.55317-1.47099.68603-2.68305.45927-3.93421,1.97819-17.41587,20.23329-27.24497,35.56399-19.20054,9.59575,5.03511,15.78997,12.76367,18.52783,23.20574.93772,3.57628,1.1304,7.24575-.00071,11.05333,2.77133-1.15512,4.07724-3.60615,5.11896-6.29165.95029.02656,1.22862-.7511,1.65792-1.36568,2.13616-3.05797,3.87869-6.3221,5.1806-9.81957.03661,9.35192-1.75386,18.16537-7.52216,25.83312-5.84949,7.77557-14.20562,10.49322-23.34956,11.53475-3.48161.39658-7.00607.4002-10.49557-.00071-17.26635-1.98388-28.41009-14.58986-28.32169-32.02655.00882-1.74531.23512-3.48952.36051-5.23424,1.0814.7466,1.21326-2.1004,2.47924-.65529Zm41.72956,12.86683c-.01061-.38881-.15886-.84192-.01175-1.15707,3.73444-7.99938,1.51945-15.25061-3.19209-21.88463-4.74455-6.68049-13.03443-9.11787-20.53552-6.61632-7.14129,2.38158-11.97388,9.24218-12.09617,17.28325-.07222,4.74922.87307,9.2958,3.00887,13.56665,3.17956,8.16818,11.44925,12.16636,20.53159,9.76188,5.89185-1.55981,10.67958-4.5166,12.29507-10.95376Zm-3.35471,12.93797c-8.47238,1.83456-16.56911,1.35843-25.36682-1.07577,7.4482,6.84704,19.21528,7.07736,25.36682,1.07577Z"/><path class="cls-3" d="m141.80173,218.76389c.94697,2.35474,2.50273,4.24429,4.51227,5.94803-1.1301-5.43794-.76891-10.6807,1.21351-15.71424,4.70053-11.93499,12.75645-20.13821,25.88965-22.14419,8.02824-1.22621,14.86934,1.43221,19.87183,7.84557,3.27865,4.20339,5.97148,8.84705,6.37226,14.41014.21038,1.77662.42075,3.55324.61433,5.18803,2.92385-1.45486,2.978-4.14983,2.97714-6.87746-.00005-.15483.20874-.30972.32033-.46457.52675,4.78894.21026,9.48959-.93022,14.20215-2.92542,12.08809-10.72292,19.14907-22.54622,21.88567-6.81347,1.57703-13.76431,1.47653-20.60631-.07021-13.78429-3.11612-22.67527-13.26029-24.9328-28.32301-.46163-3.08019-.95857-6.16919-.66067-9.30848.79618.34673.56651,1.15268.78619,1.75737,1.58683,4.36828,3.46012,8.56164,7.1187,11.6652Zm21.9702,13.01033c-.47675-.45032-1.24748-.58079-1.41366-.03753-.23033.75294.50688,1.05098,1.23114,1.06252,9.01364,5.01879,19.73173,4.01852,24.7393-3.09765-8.48465,3.14718-16.44453,4.09644-24.55677,2.07266Zm-2.93224-10.64348c.49065,2.2731,2.35751,3.49673,3.92355,4.84965,9.78179,8.45047,25.82934,3.74057,28.96716-8.44545,1.20587-4.34076,1.83202-8.74464,1.26732-13.24693-1.6953-13.51659-16.33242-20.44286-27.98104-13.39703-9.84081,5.95237-12.01001,21.46914-6.177,30.23976Z"/><path class="cls-2" d="m311.3614,181.87718c-2.57968-6.365-2.41974-13.30201-4.14035-19.84541-3.65708-13.90763-6.26304-28.11452-11.74287-41.50385-1.32848-3.24604-2.99852-6.32487-4.75073-9.36669-.69214-1.20142-1.25412-1.38674-2.49664-.77776-14.24469,6.9817-29.32141,11.40135-44.86576,14.28706-13.37351,2.48273-25.92286.04817-37.58259-6.87635-1.57206-.93361-3.63093-1.65231-3.86693-3.99217,5.9438,2.65824,11.88965,5.28295,18.29716,6.70657,10.6956,2.37637,21.27599,2.3629,31.71406-1.26554,3.85194-1.33898,3.87848-1.42607,1.61564-4.81496-1.76743-2.64697-3.63051-5.23004-5.69473-8.19097,1.38002,0,2.39506-.04888,3.40417.00761,9.65811.54061,18.3051-2.08869,25.83116-8.22517.70692-.57642,1.2763-1.10944,2.28831-.47642,6.70092,4.19165,13.41083,8.37695,18.7883,14.2915,5.24182,5.76531,7.60917,12.60107,7.25976,20.37367-.36937,8.21784.80825,16.13449,4.48979,23.57756,1.03808,2.0987,1.96004,4.32722,3.66933,5.94376,2.38931,2.25967,3.11952,4.84936,2.97248,8.09569-.24526,5.41442-.0669,10.84806-.0669,16.72743-1.93008-1.76162-3.52639-3.21859-5.12267-4.67556Z"/><path class="cls-2" d="m194.75046,317.02831c5.98923,1.17438,11.76352-.06984,17.48152-1.64983,6.63318-1.83297,13.12138-1.91045,19.69861.49506,5.61562,2.05373,11.45193,2.86646,17.37914,1.10593-.5132.88657-.0584,1.68287.21726,2.50571,1.25491,3.74621,1.46063,7.60955,1.31641,11.52166-.11058,2.99999-1.03168,5.30638-4.76616,5.7116.80778-4.10718-.16697-7.99949-1.46117-11.82079-.33898-1.00099-.31876-2.39723-1.83004-2.64621.21976-.36943.18058-.6976-.17711-.95115-.03332-.02361-.21229.06605-.23265.13145-.13193.42412.00621.7041.47245.77273.2904,4.23845,1.34766,8.43007.53824,12.73433-.54049,2.87393-2.42331,4.64596-5.29718,4.69819-1.809.0329-1.09479-1.34666-1.06029-2.08945.22965-4.94391-.50695-9.70526-2.43228-14.26727-.36641-.86821-.53188-1.86684-1.83786-2.87629.12183,2.21905.15561,4.05677.33623,5.87996.42641,4.30347-.06004,8.5421-.67821,12.7898-.24165,1.66037-1.03736,2.23105-2.67111,2.40334-6.59984.6961-6.55541.74818-6.71445-5.9559-.05761-2.4287-.31603-4.85504-.54533-7.27652-.22847-2.41287-.53531-4.81835-.9905-7.23802-1.4054,5.11159-1.5444,10.36478-1.6966,15.6059-.16963,5.84109-.10638,5.73186-5.93787,4.9182-1.83641-.25623-2.16114-1.31701-2.50062-2.65832-1.58292-6.25418-1.23494-12.54904-.38689-18.85333.0775-.57611.19913-1.14723.25308-1.72502.01207-.1292-.17488-.27691-.45407-.68453-3.32751,6.60632-5.16464,13.31416-4.13956,20.5825.25346,1.79722.24131,2.02987-1.76552,1.55077-3.20059-.76405-4.69491-2.12921-4.99542-5.61237-.38989-4.51897.33526-8.87359.71115-13.32144-3.62811,4.67436-4.1776,10.10323-3.63554,15.87099-3.37276-.29981-4.24364-2.44738-4.41248-5.04008-.26176-4.01944.19136-7.97023,1.4804-11.81068.30641-.91297.49282-1.86619.73444-2.80092Zm38.0363,2.47435c-.05557-.14299-.11247-.28931-.16936-.43562-.06379.05405-.18751.11777-.18061.16035.02447.15103.0935.29477.14561.4413.06511-.05287.13018-.10574.20437-.16603Z"/><path class="cls-3" d="m345.05481,212.2644c-2.30399-5.6889-8.19008-6.00759-12.50344-3.75487-3.73097,1.94855-6.47626,4.93563-8.74261,8.42495-.45427.6995-.57581,1.66924-1.27923,1.96386,0-4.9733.01643-10.00348-.01618-15.03336-.00543-.83292.21794-1.45336.76417-2.09751,5.94692-7.01327,16.36981-6.65888,21.19415,1.15598,5.54005,8.97418,6.37376,18.9967,4.27782,29.10125-3.05187,14.7131-10.69169,26.1961-24.84169,32.54987-2.38242,1.06978-4.8727,1.86894-8.03758,2.08581,1.61032-3.9195,1.25312-7.94984,2.67543-11.64339,4.15346.26234,7.24044-2.19905,10.22385-4.42551,9.31177-6.94931,13.52784-17.0975,16.48367-27.83152.93104-3.38107,1.65057-7.03608-.19837-10.49556Z"/><path class="cls-3" d="m124.60174,254.92668c.83998,3.88828,1.67996,7.77655,2.56562,11.87633-2.11134.04504-3.89177-.5275-5.65932-1.2221-23.17552-9.1076-34.83926-37.91083-24.27153-59.9414,1.28248-2.67359,2.93178-5.04097,5.37858-6.79594,5.06224-3.6309,14.42595-1.704,17.40671,3.61833.22456.40095.34057.91649.34317,1.3797.02514,4.45278.01505,8.90576.01505,14.01849-2.24413-2.7172-4.15131-5.08757-6.53521-6.98282-2.33202-1.85403-4.79375-3.33981-7.86741-3.47451-3.77833-.1656-6.64632,1.19061-8.11399,4.87506-1.79482,2.91801-1.18337,6.07119-.55334,9.062,1.6836,7.99224,5.17469,15.30739,9.8708,21.88858,4.24966,5.95555,9.81467,10.4837,17.42087,11.69828Z"/><path class="cls-2" d="m90.6116,445.98225c-7.90834-10.25487-16.08542-20.25347-24.94412-29.73872-3.15958-3.38303-6.00123-4.88726-10.31125-3.18514-.44278.17489-.943.20729-1.41908.29167-.0762.01354-.1656-.04737-.786-.24466,20.33888-17.9524,44.30763-19.75173,69.35896-17.25648-4.60651.85989-9.29292,1.24768-13.87798,2.28742-10.96205,2.48585-21.56563,5.94215-31.56152,11.14358-.25901.13478-.51725.27116-.7735.41112-4.95593,2.70668-4.92533,2.68221-1.5092,6.92263,6.66059,8.26779,11.68826,17.46045,15.34913,27.4115.23022.62584.31964,1.30351.47456,1.95707Z"/><path class="cls-2" d="m351.62744,447.40132c4.46211-12.13292,9.76847-23.79507,18.89545-33.26549,1.44531-1.49969.50838-2.06931-.67021-2.81613-5.71698-3.6229-12.00067-6.0082-18.30596-8.31498-8.9908-3.28923-18.24271-5.55664-27.75835-6.70952-.85571-.10366-1.69535-.33985-2.49764-.50524-.11561-.31778-.02572-.11084.16336-.13242,31.91773-3.64301,54.23171,5.13063,67.08063,17.37229-.12436.08752-.27783.26905-.35744.24098-4.57369-1.61211-7.78289-.06705-11.14138,3.42783-8.66371,9.01555-16.66147,18.51827-23.73976,28.81332-.4688.68189-.71035,1.63008-1.70775,1.84337l.03904.04601Z"/><path class="cls-2" d="m154.42662,279.52505c2.23832.87075,4.46586,1.77092,6.72079,2.59627.79423.2907,1.79281.73875,2.39488-.21719,3.58074-5.68521,9.56705-6.16105,15.31341-7.06762,1.67814-.26477,3.43339-.04072,5.28847-.04072-.1474.4068-.16594.79644-.33767.88339-9.49442,4.80607-9.78369,13.86034-6.98804,22.14045.8607,2.54919,2.269,4.91341,3.42657,7.36233-3.20109,3.49316-5.05038,7.63234-5.88333,12.26438-.14924.82995.11668,1.76985-.75389,2.63099-1.58837-2.26802-1.8667-4.86829-2.01005-7.37672-.19895-3.48177-.35528-6.99668.24851-10.47505.09409-.54204.44045-1.23307-.2823-1.50691-.69112-.26184-.97538.41419-1.27544.90629-1.54294,2.53061-2.06355,5.43984-3.03359,8.18263-.41502,1.17348-.53661,2.47903-1.41927,3.34767-4.72528-8.32748-4.56097-17.23612-3.04493-26.39151-3.32955,3.70642-4.10352,8.52717-5.8577,13.11701-2.39412-2.28449-3.51009-4.86061-3.59154-8.02607-.10711-4.16265.57617-8.23346,1.08512-12.3296Z"/><path class="cls-2" d="m262.65305,305.69087c3.29156-4.99296,4.92484-10.50549,5.03242-16.45993.085-4.7044-1.66125-8.51588-5.71527-11.13222-1.42574-.92008-2.80358-1.91445-4.90238-3.35463,6.79517-.16407,12.60073.32442,18.04842,2.97091.85461.41515,1.90794.99798,2.25884,1.77807,2.00472,4.4561,4.90713,2.81606,7.84686,1.3463.41791-.20893.83618-.52593,1.35502-.26441,3.65615,2.07845,3.71444,5.92068,3.99659,9.28671.34516,4.11746-.81382,8.06325-4.39397,11.17894-1.21551-5.64916-3.60086-10.65266-6.95275-16.24203.14058,9.34136,3.8643,18.26471-2.75201,26.34183-1.30452-3.29798-2.3646-6.32276-4.10602-9.00748-.53384-.82299-.68381-2.11653-2.08416-2.11974-.00743-.24405-.01529-.48788-.02311-.73172-.12426.04694-.24851.09388-.3728.14081.15286.18214.30573.36432.45859.5465-.20704,2.35118.53152,4.58802.86529,6.86998.73617,5.03286-.03979,9.7866-2.37006,14.67107-1.10344-4.16279-1.98201-8.02889-3.19456-11.78717-.50323-1.55985-.63656-3.71617-2.99494-4.0318Z"/><path class="cls-2" d="m345.05481,212.2644c1.84893,3.45948,1.1294,7.11449.19837,10.49556-2.95583,10.73402-7.1719,20.8822-16.48367,27.83152-2.98341,2.22646-6.07039,4.68785-10.22385,4.42551.51909-6.79144,1.68453-13.49609,2.91983-20.17845.62203-3.36503,4.73255-6.41021,8.14365-6.54257,2.92491-.1135,5.09692,1.76407,6.50219,5.58704.08536.23224.3483.39919.77207.86298-.12015-4.47914-1.30823-8.28008-4.11463-11.31887-1.33184-1.44207-1.62471-2.44193-.25555-3.79815,1.13097-1.12024,1.6335-3.46094,3.32478-3.25147,1.59142.19715,2.09887,2.3634,2.85219,3.81358,1.21366,2.33631,1.44995,4.97903,2.1698,7.87934.99711-4.28834.90893-8.10721-.29319-11.90843-.9674-3.05904-.3058-3.85314,3.04784-3.8338.47988.00277.96011-.04135,1.44017-.06378Z"/><path class="cls-2" d="m124.60174,254.92668c-7.6062-1.21458-13.17122-5.74273-17.42087-11.69828-4.6961-6.58119-8.18719-13.89634-9.8708-21.88858-.63003-2.99081-1.24148-6.14399.55334-9.062.86564.09196,1.73198.17791,2.5968.27704,2.7274.31253,3.60577,1.44695,2.51344,4.27373-1.05726,2.7361-1.34991,5.71269-.55122,8.70263,1.20376-2.7722,2.32992-5.50931,3.87364-8.06539.85141-1.40978,1.5638-1.55499,2.54387-.23707.40686.54709.74878,1.16093,1.23144,1.62991,1.84949,1.79698,2.60187,3.08178.00068,5.33444-2.67145,2.31346-3.13716,6.07878-3.54411,10.1449.57713-.82854.85993-1.20558,1.11255-1.60191,1.63183-2.56003,3.46268-4.85266,6.97655-4.2235,2.94412.52716,6.71693,4.41361,7.16974,7.36809.97216,6.34346,1.88047,12.69675,2.81494,19.046Z"/><path class="cls-2" d="m159.80252,102.36732c.17585,1.11214-.54467,1.86108-1.17199,2.5667-10.08779,11.34662-15.08428,24.94483-18.21767,39.56636-2.49096,11.62359-5.13137,23.21363-7.32219,34.90041-.09731.51905-.18688.9429.36103,1.22946-2.11887,1.44502-4.43461,2.61038-6.66993,5.31427,0-7.345.00104-13.8104-.00123-20.27579-.00032-.87526.60342-1.4008,1.12697-1.96629,7.26874-7.85103,9.93767-17.44628,10.33787-27.81701.19086-4.94581-.47722-9.92859.87111-14.81035,1.42918-5.1746,3.30483-9.80299,8.92465-12.09543,4.28941-1.74972,7.56774-5.06622,10.0467-9.1142,1.15226.52163,1.53179,1.44349,1.7147,2.50187Z"/><path class="cls-2" d="m242.80596,48.44602c-8.96247-4.52101-18.61672-5.96258-28.49454-6.31368-4.00075-.14221-7.94488.50283-11.85689,1.31199-.71189.14725-1.44242.6031-2.33452-.17866,4.73473-4.33292,9.94117-7.76032,16.0019-9.77118,9.53825-3.16463,19.10764-3.6885,28.48702.46298,3.32149,1.47015,6.6662,3.25977,7.58513,7.3655-2.93069,2.63632-5.86885,5.26276-9.3881,7.12305Z"/><path class="cls-3" d="m110.89605,106.88389c3.95941.08453,7.92982-.28116,11.70676,1.59662,2.67454,1.32971,4.09502,3.33315,4.1134,6.15953.02966,4.56207-.99892,8.87974-3.95016,12.53557-2.31215,2.86412-5.91783,3.91285-8.54535,2.53004-2.52839-1.33064-3.49575-4.58852-2.62514-8.24432.71419-2.99906,2.94157-5.18882,4.13976-7.96945-1.63658-.79586-2.91682.09838-4.15278.71084-4.9741,2.46494-9.7952,5.18409-13.77813,9.14854-.4887.48644-.96886.94864-1.6853,1.05273,1.93454-6.76815,6.10136-11.86346,11.82555-15.79413.76576-.52582,1.73371-.80625,2.15884-1.75294,0,0-.08445.06214-.08447.06216.29233-.01173.58467-.02347.87702-.03519Z"/><path class="cls-2" d="m237.27509,187.86901c.28715-6.24582,1.826-12.0882,5.55033-17.22619,4.87798-.19175,9.48132-1.85328,14.24476-2.66964,9.54293-1.63545,19.04653-1.92899,28.52059.42657-.18083,1.61711-.28026,3.23279.08536,4.84027-7.4102-.21265-14.80371-.02043-22.14923,1.05996-10.29753,1.51459-19.65684,4.87481-26.25182,13.56903Z"/><path class="cls-3" d="m347.10268,124.87993c-3.76837-3.11353-7.12747-6.7367-11.62312-8.93284-3.9398-1.92456-7.89893-3.77286-12.08049-5.12058-.92232-.29726-1.80818-.57461-3.39642-.2176,5.5218,1.26913,8.51224,4.67297,10.67247,9.03325.75607,1.52604,1.10401,3.09539,1.10051,4.78556-.00475,2.27808-.52027,4.58165-2.65929,5.4625-2.17384.89521-4.69673.66247-6.59434-1.10034-4.87777-4.53119-6.55016-10.31007-5.72441-16.72491.33487-2.60152,2.75015-3.64578,5.19893-3.97499,3.34571-.44979,6.71077-.75538,10.06755-1.1228,7.37419,3.98781,12.61905,9.76391,15.03861,17.91273Z"/><path class="cls-2" d="m156.18542,173.48284c.13147-1.66801.26292-3.33602.39437-5.00402,6.91516-1.7828,13.81355-1.64536,20.95118-1.1233,6.95003.50833,13.60589,1.96516,20.34312,3.31223,1.24794.24951,2.27838-.22715,3.34198-.69705,2.23163,5.1077,3.96791,10.37264,5.03847,15.84986.12184.62329.59888,1.28197-.23121,1.777-5.50276-5.97214-11.86204-10.56096-19.98999-12.21637-9.38054-1.91051-18.81805-3.04986-28.4065-1.86451-.47186.05833-.96054-.01945-1.44142-.03385Z"/><path class="cls-2" d="m141.80173,218.76389c-3.65858-3.10357-5.53187-7.29692-7.1187-11.6652-.21969-.60469.00998-1.41064-.78619-1.75737-.60702-4.86118.06073-9.6827.46627-14.51079.13922-1.65747,1.58294-2.15795,2.76036-2.73964,6.17032-3.04825,12.75938-4.72114,19.53078-5.74809,1.62574-.24655,3.25751-.45336,5.02533-.31485-.96858.51448-1.94731,1.01077-2.90421,1.54617-11.66003,6.52427-18.47425,19.94962-17.01052,33.47964.06111.56477.02677,1.13985.03688,1.71013Z"/><path class="cls-2" d="m308.93694,206.34884c-1.30191,3.49747-3.04445,6.7616-5.1806,9.81957-.4293.61459-.70764,1.39224-1.65792,1.36568-.34012-3.9632-.31405-7.95539-1.38349-11.84944-2.83697-10.3302-8.817-18.09413-18.42772-22.96726-.3253-.16493-.6341-.36252-1.11351-.63873,3.91059-.47283,11.98131,1.21756,18.73144,3.84596,8.25191,3.21321,8.66318,3.74264,9.1123,12.57276.1329,2.61293.45295,5.24019-.0805,7.85146Z"/><path class="cls-2" d="m294.88891,273.02386c6.81881-9.94005,9.45631-21.42367,12.12557-32.89347.12897-.55418.22794-1.16516-.36991-1.57919,3.42689-3.08449,5.34443-7.16441,7.37673-11.21801-1.58581,14.57153-3.86234,28.98141-7.22508,43.65362-.88911-1.22642-1.25669-2.3086-2.11573-3.09472-.84682-.77501-.87039-2.86464-2.35356-2.43674-1.16919.33732-.73967,2.19029-.9885,3.36163-.66046,3.10855-1.19066,6.2445-2.25531,9.31214-2.24588-1.15109-1.52878-4.50133-4.19421-5.10527Z"/><path class="cls-2" d="m135.14724,237.84529c2.97285,12.2979,5.96874,24.58728,13.06446,35.3615-2.58357.21383-2.26765,3.20121-4.25255,4.38648-.87411-3.45133-2.55566-6.57313-2.21264-10.21379.06652-.70607.23117-1.76653-.74096-1.98493-.72449-.16275-1.08104.70682-1.4574,1.25593-.92982,1.35663-1.82909,2.73422-2.74906,4.11604-1.77661-4.00298-6.94584-33.49552-7.14804-42.18345,1.31657,3.25853,3.58106,5.90416,5.39347,8.8421.04716.18384.09433.36768.14151.55152l-.03879-.1314Z"/><path class="cls-3" d="m139.68464,369.19472c.73644,11.8997,5.01733,22.64198,11.13647,33.32901-4.76425-2.42359-8.55471-4.87847-10.42616-9.72251-2.07221-5.36364-4.36702-10.61612-5.44933-16.3169-1.03636-5.45884-.88904-5.81809,4.73901-7.2896Z"/><path class="cls-3" d="m292.81186,401.04282c5.18921-8.00935,8.43988-16.75702,9.96019-26.16347.09311-.57615.19733-1.1513.26637-1.73049.4952-4.15304.91225-4.32368,4.60855-2.19172.91697.52889,1.16962,1.0625,1.03011,2.09074-1.04226,7.68125-2.93919,15.12341-6.89825,21.83386-1.96662,3.33327-5.23157,5.27998-9.04898,6.15859l.082.0025Z"/><path class="cls-3" d="m318.32461,91.04306c.14826-.13028.16844-.27805.06057-.44331,8.87661-5.99638,13.5922-14.83675,16.87512-24.63475,4.0332,7.24209.61435,18.83997-7.45977,25.20538-.53827-.33619-.7861-.84472-.86296-1.45471.10568-.59797,1.3052-.72038.70624-1.6248,1.07119-.08248.2164-.71562.30883-1.07826.28251.16048.56445.32114.84639.48182,1.15305-.28201,1.53363-1.24725,1.93736-2.19205.21115-.37093.42284-.74139.63274-1.11357.20397-.17812.42212-.36159.086-.59774-.02325-.01633-.22429.22045-.34266.33952-.26222.34122-.52445.68243-.78667,1.02363-.72342.54858-1.674.93576-1.50492,2.11853-.28783.01222-.60477.41684-.85607-.06354-.09036.37765-.18069.75529-.27101,1.13295-1.60049.75597-3.20102,1.51195-4.80152,2.26793-1.60196-.35144-3.00052.78676-4.57658.62514l.00889.00782Z"/><path class="cls-3" d="m117.64321,94.1691c1.32829,1.02571.52781,1.12304-.5089,1.28974-5.67709.91288-11.08961,2.64328-16.30767,5.08677-4.05683,1.89973-7.49047,4.78528-11.42111,6.86542,2.03774-6.4122,6.80219-10.06498,12.76432-12.38318,5.0331-1.95696,10.22626-2.18005,15.47335-.85876Z"/><path class="cls-3" d="m122.82145,89.96907c-.14395.97638-.46623.8823-1.34157.53066-2.79899-1.12441-5.31852-2.68771-7.48414-4.56193-1.37532.95472,1.01195,2.14704-.60088,2.87501-6.72215-6.09953-7.7151-13.85932-6.38501-22.37057,3.48196,9.08961,8.3397,17.19437,15.81161,23.52683Zm-10.40221-5.24736c.13026-.09751.25905-.19395.38784-.29038-.13604-.11287-.26539-.30366-.41009-.31612-.13793-.01189-.29185.16223-.43875.25459.14895.11371.29792.22741.461.35191Zm1.09449.76806c-.05595-.06205-.12386-.18341-.1656-.17498-.12418.02508-.23808.10115-.356.15731.05586.06213.12272.18324.16552.17527.12459-.02323.23956-.09812.35607-.15759Z"/><path class="cls-2" d="m255.75517,313.69922c2.28377-2.64253,4.56754-5.28505,6.85128-7.92758.86814,5.5256,2.10316,11.04435.58767,16.64621-.65135,2.40755-1.48624,4.74412-3.94202,7.07513.47595-6.03995-2.65154-10.61901-3.49693-15.79376Z"/><path class="cls-2" d="m180.83948,306.41827c2.34495,2.48289,4.68991,4.96574,7.03488,7.44863-2.83713,3.40393-3.76496,7.5066-4.31864,11.7522-.14481,1.11051.3153,2.31121-.64238,3.64984-4.81263-7.41334-4.34561-15.0425-2.07385-22.85067Z"/><path class="cls-3" d="m350.96037,105.02542c-5.02513-2.90553-10.14413-5.63494-15.60978-7.61955-3.93373-1.42836-8.05547-1.90998-12.22914-1.94561,9.91458-3.06692,23.32999,1.54238,27.83892,9.56516Z"/><path class="cls-2" d="m148.46243,273.48213c1.60944,1.78203,3.21886,3.56407,4.82829,5.3461-2.71961,3.35613-4.44416,7.24837-5.8217,11.30165-2.8262-5.82981-1.27262-11.26482.99342-16.64775Z"/><path class="cls-2" d="m203.57305,206.9552c-.11159.15485-.32039.30974-.32033.46457.00086,2.72763-.05329,5.4226-2.97714,6.87746-.19358-1.63479-.40395-3.41141-.61433-5.18803.50665-.0341.96575-.10766.87387-.80484-.70517-5.35069-.84498-10.81869-3.30714-15.80506-.10988-.22253-.01445-.54641-.01495-.8227-.0003.00041-.04304.04715-.04304.04715,4.50542,4.08008,6.00264,9.42515,6.40305,15.23145Z"/><path class="cls-2" d="m289.58062,278.66005c1.76632-1.8748,3.53264-3.74961,5.29897-5.62437-.08536.3709-.36659.8556-.22708,1.09586,2.57493,4.43517.18961,8.87281.03082,13.79047-1.80979-3.33977-2.51396-6.85165-5.10271-9.26195Z"/><path class="cls-2" d="m242.08771,205.79991c-1.26598-1.44511-1.39784,1.40189-2.47924.65529.25151-4.83216,2.48424-10.55832,5.67155-13.81845-1.15362,4.75679-2.17298,8.95997-3.19231,13.16316Z"/><path class="cls-2" d="m242.88835,208.76722c.22676,1.25116.0939,2.46322-.45927,3.93421-1.12676-1.36079-1.01429-2.62295-.49327-3.9475l.95254.01329Z"/><path class="cls-3" d="m125.80198,68.13227c-.1789.2472-.14867.72998-.66824.5934.11929-.31435.01689-.87841.66824-.5934Z"/><path class="cls-2" d="m351.5884,447.35531c-.02057.18132-.04114.36261-.06172.54393.03511-.1645.07022-.32899.10304-.49571-.00229-.00221-.04132-.04822-.04132-.04822Z"/><path class="cls-2" d="m195.99535,190.54314c-.0592-.13265-.11838-.26529-.17756-.39794.04104.15264.08206.30526.12422.45679.00116-.00113.05334-.05885.05334-.05885Z"/><polygon class="cls-2" points="129.06537 226.68677 128.97126 226.89478 129.06474 226.91714 129.06537 226.68677"/><path class="cls-3" d="m135.18603,237.97669c-.04718-.18384-.09434-.36768-.14151-.55152.08743.17352.13459.35736.14151.55152Z"/><path class="cls-2" d="m196.5777,191.15401c.43441-.05676.5962.17023.59243.5696-.00013.00014.04261-.0466.04293-.04701-.51784.14701-.57234-.19095-.59151-.5659l-.04386.04331Z"/><path class="cls-2" d="m196.62155,191.1107c-.20801-.18991-.416-.37984-.6251-.56867-.00111.00111-.05329.05883-.05445.05996.4523-.09452.60858.15387.63579.55179-.00011.00023.04375-.04308.04375-.04308Z"/><path class="cls-3" d="m89.51624,107.33129c-.1631.15323-.18845.32662-.07611.52014-.37659.04744-.47311-.15692-.35271-.45691.02713-.06757.27992-.04454.42882-.06323Z"/><path class="cls-3" d="m292.72985,401.04032c.17836.14792.35673.29581.53509.44373-.06832.05637-.13665.1127-.20497.16903-.071-.19943-.14197-.39883-.23055-.60426-.01757-.006-.09958-.0085-.09958-.0085Z"/><path class="cls-2" d="m200.30774,252.94828c5.42454-3.82821,11.24167-2.24965,17.04791-1.31073,4.55149.73606,9.05267.11742,13.56704-.67969,4.38618-.77448,8.77361-.98236,11.80459,3.32206.53245,1.72586-.43502,3.15229-.87539,4.70003-.2209.7763-1.43874,1.60218-.14254,2.49325-2.68775,4.63439-6.83574,7.52143-11.66648,9.46092-9.66032,3.87856-21.47534.36439-27.48578-8.07622-.14552-.2044-.10306-.54268-.14831-.81852-.06868-.23094.81293-.49731-.02607-.69953l.05768.07834c-.36523-2.91037-2.86326-5.28352-2.13264-8.4699Zm39.95061,9.08335c-4.05499-5.03615-10.8748-3.33138-16.69322,3.37964,5.65895-.46924,10.56154-3.52502,16.69322-3.37964Zm-21.39736,3.42293c-5.21053-6.38245-12.75874-8.77439-14.67753-3.52006,5.16294-.45277,9.22193,3.32573,14.67753,3.52006Z"/><path class="cls-1" d="m217.8319,294.25445c-4.60378-.03036-13.49618-.88575-22.12117-3.64398-3.35974-1.07439-6.51882-2.57269-9.26993-4.82028-.90605-.74029-1.79131-1.57717-1.89008-2.83696-.06643-.84699.32755-1.808,1.28798-1.07746,5.8017,4.41299,12.70805,5.81209,19.59225,6.79539,14.07991,2.01115,28.16449,2.30475,41.95012-2.14711,3.05348-.98605,6.13804-1.97086,8.75243-3.91082.56342-.41808.7831-1.09868,1.57042-.36832.69974.64909.75507,1.3094.23094,2.04516-1.04461,1.46633-2.51028,2.42559-4.0572,3.26637-9.88333,5.37175-20.61495,6.75106-36.04576,6.69801Z"/><path class="cls-1" d="m237.05094,304.54507c-2.18991,4.54123-10.44686,8.72324-16.30486,8.01746-5.03599-.60673-9.45355-2.76719-13.24774-6.1479-.2936-.26162-.89736-.51371-.45459-1.12315,10.071,2.50886,20.08678,2.79942,30.00719-.7464Z"/><path class="cls-2" d="m237.05094,304.54507c-9.92041,3.54581-19.93619,3.25526-30.00719.7464-.00007,0,.10233.04247.10215.04244-.12404-.68796-.82468-.3725-1.17107-.67331-.77575-2.04973-.75705-2.24095,1.01947-2.2213,2.31688.02561,4.64096.24098,6.944.52193,7.4617.91022,14.88255.344,22.29764-.51189,3.07277-.35464.8835,1.26682.815,2.09574Z"/><path class="cls-1" d="m200.30774,252.94828c-.73062,3.18639,1.76741,5.55954,2.13264,8.4699-2.74492-1.59828-4.39702-5.42744-3.84437-9.12955.25455-1.7053.65319-3.39369,1.56526-4.90296,1.17889,1.49762-.81959,3.07433.11395,4.57806.01084.32819.02168.65636.03252.98455Z"/><path class="cls-1" d="m241.70934,261.4732c-1.2962-.89107-.07836-1.71695.14254-2.49325.44038-1.54774,1.40784-2.97416.87539-4.70003v-7.01143c2.95809,5.42989,2.76622,7.55431-1.01793,14.20471Z"/><path class="cls-2" d="m200.27522,251.96373c-.93354-1.50373,1.06494-3.08044-.11395-4.57806.87934-1.80774,1.28364-3.91567,3.34585-5.04197-.88055,3.28369-1.19667,6.72707-3.2319,9.62003Z"/><path class="cls-2" d="m228.22768,235.17604c-4.49418-.48728-8.98437-.14567-13.47751.19397,4.44943-1.79422,8.9464-1.69068,13.47751-.19397Z"/><polygon class="cls-2" points="211.18529 236.5523 211.18917 236.40539 211.40007 236.47626 211.18529 236.5523"/><polygon class="cls-2" points="229.89647 235.7932 230.12026 235.89445 229.882 235.95648 229.89647 235.7932"/><path class="cls-2" d="m213.16836,235.90449c-.06872.02708-.14008.07928-.2052.07243-.06215-.0065-.11783-.07457-.17635-.11558.1272.01416.2544.02831.38155.04315Z"/><path class="cls-1" d="m205.97483,304.6606c.34639.30081,1.04702-.01465,1.17107.67331-.77866.45145-.8505-.32732-1.17107-.67331Z"/><path class="cls-1" d="m202.3827,261.33985c.839.20222-.04261.46859.02607.69953-.00868-.23319-.01738-.46634-.02607-.69953Z"/><path class="cls-1" d="m201.21606,169.97071c-1.0636.4699-2.09403.94656-3.34198.69705-6.73722-1.34707-13.39308-2.8039-20.34312-3.31223-7.13763-.52207-14.03602-.65951-20.95116,1.1233-7.4408,1.29954-14.57224,3.49032-21.39161,7.5845.86855-5.0603,2.80654-9.28989,5.70832-13.15405,7.2881-9.70517,17.50568-13.90036,29.06903-15.57232,8.19667-1.18516,16.35138-.77337,24.39737,1.11417,8.35086,1.95907,12.41592,14.88722,6.85314,21.5196Z"/><path class="cls-1" d="m285.59078,168.39975c-9.47407-2.35556-18.97767-2.06202-28.52059-.42657-4.76344.81636-9.36678,2.47789-14.24476,2.66964-2.78651-2.35933-3.48053-5.51835-3.32331-8.95132.05761-1.25793.35723-2.50568.55977-3.75591.90857-5.6076,3.81955-8.77809,9.76776-9.81698,15.06583-2.63129,29.50888-1.89093,42.94079,6.19397,8.15869,4.91087,14.25397,13.78091,15.39213,22.47155-6.99786-4.6722-14.67885-6.82822-22.57178-8.38439Z"/><path class="cls-1" d="m170.86461,63.54704c.06252-.41946.29389-.60246.7114-.47926.06098.01799.14599.1868.12351.21946-.22667.32929-.52068.42659-.88052.1984-.00018-.00038.04561.0614.04561.0614Z"/><path class="cls-1" d="m106.88668,132.40609c.23444-.30319.52134-.53813.8283-.154.07065.08841-.17177.42707-.26821.6512-.18542-.1653-.37275-.33126-.56009-.49721Z"/><path class="cls-1" d="m110.89605,106.88389c-.29235.01172-.58468.02345-.87702.03519.24805-1.11683.57363-.29915.87702-.03519Z"/><path class="cls-2" d="m199.51026,414.7023c.07284.02211.15518.03047.21485.07169.03368.02329.03009.10056.04334.15346-.07511-.08595-.15022-.17189-.22522-.25794.00009-.00014-.03298.03279-.03297.03279Z"/><path class="cls-1" d="m327.64374,88.09092c.59902.90436-.60049,1.02677-.70617,1.62473-1.45967-.41713-2.24123,3.11675-4.04517.69445,1.60039-.756,3.20092-1.51198,4.80141-2.26795l-.05007-.05123Z"/><path class="cls-3" d="m318.31572,91.03523c-.07775.01615-.16286.01841-.2304.05393-.03775.01985-.0465.09496-.06829.14518.10258-.06371.20515-.12743.30766-.19122-.00007-.00007-.00896-.00789-.00896-.00789Z"/><path class="cls-1" d="m332.71063,135.9313c.03307.08482.10761.17843.09186.25289-.05961.28106-.19476.30987-.3253.07294-.03647-.06625-.00982-.19154.03075-.26659.0235-.04354.13226-.04104.20269-.05924Z"/><path class="cls-1" d="m335.65689,133.39356c-.12297-.20601-.40037-.51171-.34266-.60112.28323-.43914.57563-.16389.83789.08641-.16447.17046-.32983.34259-.49523.51471Z"/><path class="cls-1" d="m250.99061,219.85863c-2.1358-4.27085-3.08109-8.81744-3.00887-13.56665.12229-8.04107,4.95488-14.90167,12.09617-17.28325,7.50109-2.50155,15.79097-.06417,20.53552,6.61632,4.71155,6.63402,6.92653,13.88525,3.19209,21.88463-.14711.31515.00114.76826.01175,1.15707-.43055-.10872-.65217-.39887-.65249-.82918-.00179-2.42722-1.45442-3.85393-3.5764-4.30213-2.17084-.45857-2.59682,1.60307-3.31192,3.04341-3.47389,6.99702-12.0186,9.00196-18.32121,4.27582-2.09719-1.57262-3.77062-3.5393-5.0067-5.892-1.62307,1.42298-.14672,3.77525-1.95794,4.89596Zm23.39635-13.38851c3.44014.03342,6.07278-2.71602,6.10661-6.3775.03132-3.39157-2.91662-6.56288-6.102-6.56442-3.13445-.00152-5.89074,3.14168-5.91753,6.74815-.02614,3.52669,2.48824,6.16051,5.91292,6.19377Z"/><path class="cls-2" d="m250.99061,219.85863c1.81122-1.12071.33487-3.47298,1.95794-4.89596,1.23609,2.3527,2.90951,4.31938,5.0067,5.892,6.30261,4.72614,14.84732,2.7212,18.32121-4.27582.7151-1.44034,1.14108-3.50198,3.31192-3.04341,2.12198.4482,3.57461,1.87491,3.5764,4.30213.00032.43032.22194.72047.65249.82918-1.61549,6.43716-6.40323,9.39395-12.29507,10.95376-9.08234,2.40448-17.35203-1.59369-20.53159-9.76188Z"/><path class="cls-1" d="m280.46257,231.60472c-6.15154,6.00159-17.91862,5.77128-25.36682-1.07577,8.79772,2.4342,16.89444,2.91033,25.36682,1.07577Z"/><path class="cls-1" d="m160.83968,221.13074c-5.83301-8.77062-3.66381-24.2874,6.177-30.23976,11.64862-7.04583,26.28573-.11956,27.98104,13.39703.5647,4.50229-.06145,8.90617-1.26732,13.24693-1.9246,1.47149-1.9341-1.30444-3.28326-1.42714-.42971.5342-.91066,1.13098-1.39041,1.72874-6.43637,8.01958-16.22389,7.36992-21.46384-1.42528-.24815-.41651-.48652-.83888-.73653-1.25429-1.38613-2.30319-2.25075-2.30017-4.22612-.5193-2.0543,1.85205-1.20612,4.3331-1.79056,6.49308Zm31.54532-20.89247c.01207-3.41082-2.91614-6.57429-6.11379-6.60498-3.19734-.03068-5.93133,3.27306-5.85185,7.07141.06156,2.94194,2.85349,5.66754,5.89265,5.75265,3.15322.0883,6.06119-2.88965,6.07298-6.21908Z"/><path class="cls-2" d="m160.83968,221.13074c.58443-2.15998-.26374-4.64103,1.79056-6.49308,1.97537-1.78087,2.83999-1.78389,4.22612.5193.25001.4154.48838.83777.73653,1.25429,5.23995,8.7952,15.02747,9.44487,21.46384,1.42528.47975-.59776.9607-1.19454,1.39041-1.72874,1.34916.1227,1.35866,2.89863,3.28326,1.42714-3.13782,12.18602-19.18537,16.89592-28.96716,8.44545-1.56605-1.35291-3.43291-2.57655-3.92355-4.84965Z"/><path class="cls-1" d="m163.77191,231.77422c8.11226,2.02378,16.07214,1.07452,24.55679-2.07266-5.00756,7.11617-15.72566,8.11644-24.7393,3.09765.06082-.34166.12167-.68333.18251-1.02499Z"/><path class="cls-2" d="m163.77191,231.77422c-.06084.34166-.12168.68333-.18251,1.02499-.72426-.01154-1.46147-.30958-1.23114-1.06252.16619-.54327.93691-.4128,1.41365.03753Z"/><path class="cls-1" d="m232.78676,319.50266c-.07418.0603-.13926.11317-.20437.16603-.05211-.14653-.12115-.29027-.14561-.4413-.00689-.04258.11683-.10631.18061-.16035.0569.14631.11379.29263.16936.43562Z"/><path class="cls-1" d="m242.84871,322.20449c-.46623-.06862-.60438-.34861-.47245-.77273.02036-.06541.19933-.15507.23265-.13145.35769.25355.39687.58172.17711.95115-.00032.00014.06268-.04697.06268-.04697Z"/><path class="cls-1" d="m270.34733,299.9688c-.15286-.18218-.30573-.36436-.45859-.5465.12429-.04694.24855-.09388.3728-.14081.00782.24383.01568.48767.02311.73172-.00046.00014.06268-.0444.06268-.0444Z"/><path class="cls-2" d="m330.73694,85.30284c-.40427.94433-.78485,1.90957-1.9379,2.19158l-.16126-.21977.18311-.20191c-.16908-1.18277.7815-1.56995,1.50492-2.11854.13772.11542.27476.23163.41112.34863Z"/><path class="cls-2" d="m330.32582,84.95422c.26222-.3412.52445-.68241.78667-1.02363.08443.08835.17058.17499.25844.25993-.21169.37047-.42337.74092-.63453,1.11186-.13583-.11653-.27287-.23274-.41059-.34815Z"/><path class="cls-2" d="m331.11249,83.93058c.11836-.11908.31941-.35586.34266-.33952.33612.23615.11797.41961-.086.59774-.08607-.08322-.17222-.16986-.25665-.25821Z"/><path class="cls-1" d="m327.69382,88.14216c.09033-.37766.18065-.7553.27115-1.13282.00014.00013-.01293.00346-.01293.00346-.09183.36245.76296.99558-.30823,1.07806-.00007.00006.05.0513.05.0513Z"/><path class="cls-1" d="m328.8209,87.07275l-.18311.20191.16126.21977c-.28194-.16067-.56388-.32134-.84639-.48182-.00061.0002.01246-.00314.01232-.00327.25115.48026.56809.07563.85593.06341Z"/><path class="cls-2" d="m112.41924,84.72171c-.16308-.1245-.31205-.2382-.461-.35191.1469-.09236.30082-.26647.43875-.25459.1447.01246.27405.20325.41009.31612-.12879.09643-.25758.19287-.38784.29038Z"/><path class="cls-2" d="m113.51486,85.49221c-.11763.05705-.2326.13194-.35719.15516-.04281.00797-.10967-.11314-.16552-.17527.11792-.05615.23181-.13223.356-.15731.04173-.00843.10965.11293.16672.17741Z"/><path class="cls-1" d="m240.25835,262.03163c-6.13168-.14539-11.03427,2.9104-16.69322,3.37964,5.81842-6.71102,12.63823-8.41579,16.69322-3.37964Z"/><path class="cls-1" d="m218.861,265.45456c-5.4556-.19432-9.51458-3.97283-14.67753-3.52006,1.91879-5.25433,9.46699-2.86239,14.67753,3.52006Z"/><path class="cls-3" d="m274.38696,206.47012c-3.42468-.03326-5.93906-2.66709-5.91292-6.19377.02679-3.60647,2.78308-6.74967,5.91753-6.74815,3.18538.00154,6.13332,3.17285,6.102,6.56442-.03382,3.66148-2.66647,6.41092-6.10661,6.3775Z"/><path class="cls-3" d="m192.38501,200.23827c-.01179,3.32943-2.91976,6.30738-6.07298,6.21908-3.03916-.08511-5.8311-2.8107-5.89265-5.75265-.07949-3.79835,2.6545-7.1021,5.85185-7.07141,3.19765.03068,6.12586,3.19416,6.11379,6.60498Z"/></g></svg>