<svg xmlns="http://www.w3.org/2000/svg" width="154.281" height="51.263" viewBox="0 0 154.281 51.263"><g transform="translate(-103.233 -37.441)"><path d="M133.34,40.215a5.529,5.529,0,0,0-1.371,3.921v10.3a5.352,5.352,0,0,0,1.268,3.892,5.447,5.447,0,0,0,4.042,1.3,5.281,5.281,0,0,0,3.835-1.312,5.114,5.114,0,0,0,1.356-3.85V48h-5.014v3.51h1.181v3.158a.994.994,0,0,1-.373.81,1.565,1.565,0,0,1-.994.31c-.5,0-.953-.127-1.091-.384a1.7,1.7,0,0,1-.2-.8V44.136a2.526,2.526,0,0,1,.057-.487,1.581,1.581,0,0,1,.2-.515,1.248,1.248,0,0,1,.388-.4,1.172,1.172,0,0,1,.65-.16,1.087,1.087,0,0,1,.966.6,3.141,3.141,0,0,1,.392,1.519l3.892-.677a5.8,5.8,0,0,0-.192-2.1,4.091,4.091,0,0,0-.943-1.679,4.5,4.5,0,0,0-1.683-1.107,6.574,6.574,0,0,0-2.4-.4,5.144,5.144,0,0,0-3.968,1.477m20.253,19.234V55.611h-5.4v-4.66h4.721V47.115h-4.721V42.75h5.4V38.915h-9.412V59.448Zm8.7-9.878-3.805-10.655h-3.512V59.448h4.012V48.616h.148l3.818,10.832h3.409V38.915H162.44V49.57Zm15.635,9.878V55.611h-5.4v-4.66h4.721V47.115h-4.721V42.75h5.4V38.915h-9.41V59.448ZM179.4,38.915V59.448h4.012v-8h.8l2.417,8h4.1l-2.949-8.91a4.782,4.782,0,0,0,1.711-2.124,8.856,8.856,0,0,0,.561-3.421,8.313,8.313,0,0,0-.428-2.848,4.8,4.8,0,0,0-1.194-1.886,4.434,4.434,0,0,0-1.831-1.034,8.282,8.282,0,0,0-2.329-.31Zm4.753,3.835a2.077,2.077,0,0,1,1.487.544,2.291,2.291,0,0,1,.576,1.728,3.836,3.836,0,0,1-.177,1.283,2.024,2.024,0,0,1-.487.783,1.624,1.624,0,0,1-.692.4,3.253,3.253,0,0,1-.827.1h-.62V42.75Zm14.924,16.7H203.3l-3.924-20.533h-4.9l-3.9,20.533h4.248l.62-4.014h3.008Zm-2.213-15.224h.177l.443,4.16.384,3.274h-1.858l.413-3.274Zm16.873,15.224V55.611h-5.4v-16.7h-4.01V59.448ZM139.346,84.487h4.217l-3.924-20.531h-4.9l-3.894,20.531H135.1l.62-4.012h3.008Zm-2.213-15.224h.177l.441,4.162.384,3.272h-1.856l.411-3.272Zm17.536,7.067a4.522,4.522,0,0,0-.555-1.666,4.608,4.608,0,0,0-1.251-1.356,9.6,9.6,0,0,0-2.23-1.181,8.33,8.33,0,0,1-1.278-.605,2.579,2.579,0,0,1-.69-.576,1.394,1.394,0,0,1-.3-.618,4.278,4.278,0,0,1-.057-.736,5.53,5.53,0,0,1,.044-.681,2.068,2.068,0,0,1,.175-.633,1.383,1.383,0,0,1,.363-.473.991.991,0,0,1,.643-.19,1.148,1.148,0,0,1,.683.177,1.223,1.223,0,0,1,.394.485,2.23,2.23,0,0,1,.19.692,7.274,7.274,0,0,1,.044.827l3.953-.856a7.038,7.038,0,0,0-.238-1.768,4.632,4.632,0,0,0-.81-1.669,4.341,4.341,0,0,0-1.578-1.236,5.8,5.8,0,0,0-2.538-.487,6.2,6.2,0,0,0-2.464.441,4.336,4.336,0,0,0-1.652,1.207,4.869,4.869,0,0,0-.928,1.839,8.879,8.879,0,0,0-.3,2.344,10.624,10.624,0,0,0,.148,1.842,4.265,4.265,0,0,0,.633,1.588,5.484,5.484,0,0,0,1.4,1.413,11.7,11.7,0,0,0,2.42,1.28,8.846,8.846,0,0,1,.943.458,1.965,1.965,0,0,1,.605.517,1.73,1.73,0,0,1,.308.7,4.859,4.859,0,0,1,.091,1.029q0,.443-.044.886a2.9,2.9,0,0,1-.175.766,1.309,1.309,0,0,1-.382.529,1.031,1.031,0,0,1-.681.207,1.051,1.051,0,0,1-1.038-.559,4.5,4.5,0,0,1-.335-1.683l-4.042.766a7,7,0,0,0,.3,2.057,4.518,4.518,0,0,0,.93,1.694,4.27,4.27,0,0,0,1.652,1.145,6.473,6.473,0,0,0,2.432.416,6.655,6.655,0,0,0,2.6-.441,3.925,3.925,0,0,0,1.637-1.255A5.054,5.054,0,0,0,154.553,81a12.245,12.245,0,0,0,.251-2.567,14.633,14.633,0,0,0-.135-2.105m11.859,0a4.534,4.534,0,0,0-.557-1.669,4.59,4.59,0,0,0-1.247-1.356,9.62,9.62,0,0,0-2.232-1.181,8.266,8.266,0,0,1-1.28-.605,2.687,2.687,0,0,1-.69-.574,1.408,1.408,0,0,1-.293-.62,4.283,4.283,0,0,1-.057-.736,5.536,5.536,0,0,1,.044-.681,2.026,2.026,0,0,1,.173-.633,1.383,1.383,0,0,1,.365-.473.991.991,0,0,1,.643-.19,1.143,1.143,0,0,1,.683.177,1.215,1.215,0,0,1,.392.485,2.23,2.23,0,0,1,.192.694,7.758,7.758,0,0,1,.042.827l3.953-.859a7.139,7.139,0,0,0-.234-1.768,4.646,4.646,0,0,0-.812-1.666,4.314,4.314,0,0,0-1.58-1.238,5.792,5.792,0,0,0-2.536-.487,6.2,6.2,0,0,0-2.464.441,4.319,4.319,0,0,0-1.652,1.209,4.827,4.827,0,0,0-.93,1.839,8.851,8.851,0,0,0-.3,2.341,10.6,10.6,0,0,0,.15,1.842,4.256,4.256,0,0,0,.635,1.588,5.477,5.477,0,0,0,1.4,1.415,11.781,11.781,0,0,0,2.417,1.278,8.651,8.651,0,0,1,.943.458,1.917,1.917,0,0,1,.605.517,1.731,1.731,0,0,1,.312.707,5.155,5.155,0,0,1,.086,1.027c0,.3-.015.591-.042.886a2.656,2.656,0,0,1-.177.766,1.338,1.338,0,0,1-.376.532,1.246,1.246,0,0,1-1.723-.354,4.464,4.464,0,0,1-.335-1.683l-4.042.766a7,7,0,0,0,.3,2.057,4.548,4.548,0,0,0,.93,1.694,4.287,4.287,0,0,0,1.652,1.145,6.424,6.424,0,0,0,2.432.416,6.662,6.662,0,0,0,2.6-.441,3.913,3.913,0,0,0,1.637-1.255A5.023,5.023,0,0,0,166.412,81a12.091,12.091,0,0,0,.249-2.565,14.664,14.664,0,0,0-.133-2.107m11.2,8.155V80.652h-5.4v-4.66h4.723V72.156h-4.723V67.791h5.4V63.956h-9.412V84.487Zm9.68-4.012L189.286,73h.236V84.487h4.012V63.956h-3.746l-2.006,5.4-1.418,4.16h-.175L184.8,69.443l-2.038-5.487h-3.744V84.487h4.012V72.913h.266l1.909,7.562Zm12.737-8.615h-.686V67.479h.6a2.084,2.084,0,0,1,1.418.4c.3.264.443.852.443,1.915,0,1.38-.591,2.065-1.772,2.065m1.89,7.269a2.619,2.619,0,0,1-.253.888,1.517,1.517,0,0,1-.532.612,1.628,1.628,0,0,1-.9.219h-.892V75.577h.922a1.59,1.59,0,0,1,1.283.5,2.733,2.733,0,0,1,.428,1.751c0,.4-.019.96-.059,1.3m1.477-5.531a2.74,2.74,0,0,0,1.019-.618,3.614,3.614,0,0,0,.692-.943,4.889,4.889,0,0,0,.4-1.135,5.6,5.6,0,0,0,.133-1.228,5.987,5.987,0,0,0-1.371-4.276,5.414,5.414,0,0,0-4.115-1.445h-4.63V84.487h4.542a5.619,5.619,0,0,0,4.307-1.548q1.446-1.547,1.445-4.854a7.97,7.97,0,0,0-.118-1.388,4.69,4.69,0,0,0-.4-1.251,3.643,3.643,0,0,0-.738-1.019,3.025,3.025,0,0,0-1.164-.679ZM216.76,84.487V80.65h-5.073V63.956h-4.01V84.487Zm4.115-13.038-1.73-7.493h-4.274l4.012,12.182v8.349H222.9V76.138l3.98-12.182h-4.244l-1.612,7.493Z" transform="translate(30.638 1.439)" fill="#9da1b2"/><g transform="translate(103.233 37.441)"><path d="M119.377,49.486a2.287,2.287,0,1,0,2.257,2.287,2.271,2.271,0,0,0-2.257-2.287" transform="translate(-87.826 -24.078)" fill="#9da1b2"/><path d="M136.946,78.058l-.926-7.282h-2.462l-.926,7.282h-4.316l3.961-29.969h4.966l3.98,29.969Zm-9.6-20.078H123.27V53.454a2.392,2.392,0,0,0-.061-.5,1.794,1.794,0,0,0-.2-.527,1.257,1.257,0,0,0-.4-.409,1.167,1.167,0,0,0-.656-.169c-.017,0-.036,0-.061.006v-.006a1.2,1.2,0,0,0-.66.169,1.287,1.287,0,0,0-.4.409,1.681,1.681,0,0,0-.2.527,2.374,2.374,0,0,0-.059.5V73.088a1.781,1.781,0,0,0,.2.821c.135.264.462.394.966.394a1.439,1.439,0,0,0,.962-.321,1.024,1.024,0,0,0,.382-.831V67.479h-.9V63.872h4.974v9.062a4.772,4.772,0,0,1-5.269,5.309,5.5,5.5,0,0,1-4.1-1.335,5.571,5.571,0,0,1-1.289-4V53.454a5.715,5.715,0,0,1,1.4-4.033,6.108,6.108,0,0,1,8.052,0,5.733,5.733,0,0,1,1.4,4.033Zm24.043,5.094A3.107,3.107,0,0,1,154.5,59.97l-.766-3.835a3.1,3.1,0,1,1-2.375-5.736l-2.175-3.253a3.1,3.1,0,0,1-4.388-4.394l-3.253-2.171A3.105,3.105,0,1,1,135.8,38.2l-3.833-.764a3.106,3.106,0,1,1-6.212,0l-3.835.764a3.1,3.1,0,0,1-5.736,2.377l-3.257,2.175a3.1,3.1,0,1,1-4.39,4.39L106.37,50.4a3.1,3.1,0,0,1-2.377,5.736l-.759,3.835a3.1,3.1,0,0,1,0,6.208l.759,3.837a3.106,3.106,0,0,1,2.377,5.74l2.171,3.251a3.1,3.1,0,1,1,4.39,4.392l3.257,2.168a3.1,3.1,0,0,1,5.736,2.375l3.835.764a3.106,3.106,0,0,1,6.212,0l3.833-.764a3.1,3.1,0,0,1,5.738-2.375l3.253-2.168a3.1,3.1,0,1,1,4.388-4.39l2.175-3.257a3.1,3.1,0,1,1,2.377-5.736l.764-3.837a3.108,3.108,0,0,1-3.109-3.1" transform="translate(-103.233 -37.441)" fill="#9da1b2"/></g></g></svg>