<svg xmlns="http://www.w3.org/2000/svg" width="29.23" height="29.231" viewBox="0 0 29.23 29.231"><path d="M27.143,1H2.081A2.1,2.1,0,0,0,0,3.107V28.123a2.1,2.1,0,0,0,2.081,2.107H27.143a2.1,2.1,0,0,0,2.088-2.107V3.107A2.1,2.1,0,0,0,27.143,1ZM8.834,26.055H4.5V12.105H8.841v13.95ZM6.668,10.2A2.512,2.512,0,1,1,9.18,7.688,2.513,2.513,0,0,1,6.668,10.2ZM25.074,26.055H20.742V19.269c0-1.618-.033-3.7-2.251-3.7-2.258,0-2.6,1.762-2.6,3.582v6.9H11.555V12.105h4.156V14.01h.059a4.563,4.563,0,0,1,4.1-2.251c4.385,0,5.2,2.89,5.2,6.649Z" transform="translate(0 -1)" fill="#ebebeb"/></svg>