<?xml version="1.0" encoding="utf-8"?>
<!-- Generator: Adobe Illustrator 25.4.6, SVG Export Plug-In . SVG Version: 6.00 Build 0)  -->
<svg version="1.1" id="Layer_1" xmlns="http://www.w3.org/2000/svg" xmlns:xlink="http://www.w3.org/1999/xlink" x="0px" y="0px"
	 viewBox="0 0 987.8 220.2" style="enable-background:new 0 0 987.8 220.2;" xml:space="preserve">
<style type="text/css">
	.st0{fill:#707074;}
</style>
<path class="st0" d="M703.9,67.3h-25.2V0h-22.2v210.4c8.9,5.6,28.3,9.9,46.4,9.9c41,0,74.5-25,74.5-74.4
	C777.4,98.5,744.6,67.3,703.9,67.3z M702.1,200.8c-7.5,0-18.9-1.5-23.4-4v-110h23.7c28.3,0,52.1,21,52.1,58.4
	C754.5,179.1,734.9,200.8,702.1,200.8L702.1,200.8z M987.8,142.4c0-46-19.3-75.1-55.5-75.1c-34.7,0-57.9,30.6-57.9,75.1
	c0,42.6,22.3,77.8,67.2,77.8c16,0,33.3-4.6,45.7-13l-7.2-16.1c-9.6,5.6-21.7,10.4-34.9,10.4c-30.4,0-47-21.5-47.6-52.6h90.1v-6.5
	H987.8L987.8,142.4z M898,133.4c0.3-24.5,13.9-44.5,35.6-44.5c22.6,0,33.2,20,33.5,44.5H898z M616.4,117.1
	c0-34.9-19.3-48.2-48.9-48.2h-93.6V0h-22.2v66.1h-22.5c-40.7,0-72.7,31.2-72.7,78.5c0,49.4,32.3,74.4,73.3,74.4
	c18.1,0,35.2-4.3,44.1-9.9V85.7l89,0.6c17.8,0,31.3,9.9,31.3,32.1v9.3l-26.3,0.9c-14.5,0.6-25.5,2.2-35.2,7.1
	c-14.5,6.8-23.9,20.1-23.9,39.5c0,28.1,19.4,45.1,45.4,45.1c17.8,0,31.8-7.1,42.9-17.9l4.3,17.8H621c-1.8-6.6-4.6-24-4.6-52.7V117.1
	z M451.8,195.6c-6.7,2.5-13.1,4-20.7,4c-32.9,0-51.6-21.6-51.6-55.6c0-37.4,22.6-58.4,50.9-58.4h21.4L451.8,195.6L451.8,195.6z
	 M594.2,181.9c-6.7,7.1-19.1,19.1-36.9,19.1c-16.3,0-26.1-11.1-26.1-27.2c0-9.6,4.4-17.9,12.6-22.5c6.3-3.4,13.7-5.3,26.1-5.6
	l24.3-0.9L594.2,181.9L594.2,181.9z M34.8,200c-7.5,0-12.6-3.4-12.6-15.4V0H0v191.7c0,17.6,10.2,28.4,28.3,28.4
	c6.6,0,14.9-1.5,20.7-4.3l-5.2-18C41.7,198.8,37.2,200,34.8,200L34.8,200z M127.7,66.1c-34.7,0-57.9,30.6-57.9,75.1
	c0,42.6,22.3,77.8,67.2,77.8c16,0,33.3-4.6,45.7-13l-7.2-16.1c-9.6,5.6-21.7,11-34.9,11c-30.4,0-47-20.9-47.6-52h90.3v-7.7
	C183.3,95.2,163.9,66.1,127.7,66.1L127.7,66.1z M93.3,133.4c0.3-24.5,13.9-44.5,35.6-44.5c22.6,0,33.2,20,33.5,44.5
	C162.4,133.4,93.3,133.4,93.3,133.4z M287.2,68.3c-18.4,0-33.5,10.7-49.2,24.3l-1.9-17.1h-21.7V220h22.3V110.6
	C250,98.6,266,88.7,282,88.7c20.2,0,26.5,17.2,26.5,39.1l0.7,92.3h18.7V119.6C327.8,82.8,309.5,68.3,287.2,68.3z M846.4,198.9
	c-7.5,0-12-3.4-12-15.4V0h-20.2v191.9c0,17.6,8.7,27.8,26.8,27.8c6.6,0,14.2-1.9,19.9-4.6l-5.2-18.1
	C853.6,197.8,848.8,198.9,846.4,198.9L846.4,198.9z"/>
</svg>
