<svg xmlns="http://www.w3.org/2000/svg" width="121.181" height="54.402" viewBox="0 0 121.181 54.402"><g transform="translate(-23 -151.4)"><g transform="translate(90.976 156.237)"><path d="M335.551,194.366c1.014.728,2.054,1.274,2.054,2.47,0,.338-.442.676-1.4.676a2.336,2.336,0,0,1-1.924-.754c-.312-.416.13-.936-.13-1.352-.208-.338-.676-.182-.988-.338-.364-.208-.39-.364-.65-.884a12.475,12.475,0,0,0-2.262-2.7,4.131,4.131,0,0,0-2.314-1.352,6.576,6.576,0,0,1-.7.026c-.78,0-1.456.754-2.548,1.222a6.15,6.15,0,0,1-1.716.6l-.156.208,1.014-.026c.936,0,2.184-.13,3.121-.13.988,0,1.456.884,1.82,1.794a50.873,50.873,0,0,0,3.173,6.735,5.115,5.115,0,0,1,1.17,3.017c0,.416-.026.936-.572.936-.728,0-2.626-.78-2.626-1.612,0-.65.494-.91.494-1.56,0-.416-.6-.338-.728-.7-.468-1.976-1.04-3.953-2.158-5.123-.572-.6-.65-.884-1.222-.884a2.555,2.555,0,0,0-.884.182c-1.56.572-3.615,2.288-6.163,3.069-.988.312-1.144-.26-2.158-.078h.078c-.806.156-1.456.65-2.574.936a17.692,17.692,0,0,1-6.319.364,38.791,38.791,0,0,0-4.317-.468c-.65,1.846-2.028,4.291-4.031,5.227a1.709,1.709,0,0,0-1.066,2.366c.416,1.508,1.742,2.626,2.47,3.9.65,1.118,1.69,2.861,2.783,3.433,1.118.572,1.794,1.4,1.794,2.106,0,.338-.13.546-.468.546h-2.21a.632.632,0,0,1-.572-.338c-.312-.572-.1-1.118-.494-1.612-.312-.364-.546-.26-.91-.572-.676-.65-.156-1.014-.676-1.82a52.99,52.99,0,0,0-3.2-4.343c-.676-.832-1.482-1.248-1.482-2.366,0-1.352,1.352-1.586,1.326-2.939a7.052,7.052,0,0,1-3.433,1.352,2.8,2.8,0,0,0-.988.7,2.7,2.7,0,0,0-.806,1.872,25.925,25.925,0,0,0-.312,5.487,3,3,0,0,0,1.482,2.236,2.66,2.66,0,0,1,1.378,1.82c0,.234-.078.494-.416.494h-2.392a.583.583,0,0,1-.494-.312c-.26-.468-.1-.806-.208-1.352-.234-1.118-1.482-1.04-1.482-2.184,0-.338.208-.78.234-1.482a29,29,0,0,0,.078-7.073c-.208-1.768,1.612-1.82,2.548-3.381a8.273,8.273,0,0,0,.728-1.144,2.588,2.588,0,0,0,.234-1.56,10.45,10.45,0,0,1-.156-3.771,5.857,5.857,0,0,1,1.248-2.783c0-.026,0-.156-.208-.156-.936.078-.936-.156-1.586-.156a1.364,1.364,0,0,0-1.17.78.767.767,0,0,1-.442-.676,1.343,1.343,0,0,1,.39-.988c.13-.13,0-.208-.156-.208-.728,0-1.456.91-1.612,1.56-.442-.078-.468-.65-.676-.65s-.338.312-.338.6c0,2.158,3.511,2.626,3.511,5.461,0,3.277-3.953,2.6-3.953,3.771a.643.643,0,0,0,.468.572.839.839,0,0,1-.832.442,1.462,1.462,0,0,1-1.508-1.508c0-1.794,2.392-1.82,2.392-3.173,0-.65-.39-.832-.78-1.144-2.288-1.612-3.563-3.225-3.563-5.9a4.736,4.736,0,0,1,4.577-5.045c3.771,0,3.875,4.343,7.307,4.707a7.565,7.565,0,0,1,4.265-1.378c2.236,0,3.2.572,5.565.572a7.9,7.9,0,0,0,4.421-1.56,10.263,10.263,0,0,0,1.638-1.144,8.674,8.674,0,0,0,2.861-5.565v.1c0-.572-.13-.91-.416-.91-.806,0-1.508.754-2.314,1.508-.494.546.26.78-.884,1.4-.416.208-.884-.182-1.326-.182-.91,0-1.3-1.066-1.3-2.028,0-.468.364-.6.572-1.04.468-.91.442-1.248.884-2.158.26-.6.754-1.014.7-1.456,0-.156-.13-.26-.13-.442,0-.91,1.222-1.508,1.222-2.418,0-.494-.572-.754-.7-1.144-.13-.416-.026-.494-.026-.494a.162.162,0,0,1,.156-.1c.468,0,.676.494,1.118.78.026-.6-.156-.728-.156-1.17,0-.234-.026-.6.208-.6.312,0,.26.416.546.6.338.26.65.234,1.014.468.468.312.728.806.91.832.468.078.6-.494.364-.832.546-.026,1.066.416,1.794.416a2.369,2.369,0,0,1,1.69.468c.7.6.832,1.066,1.612,1.066a.876.876,0,0,0,.7-.468,1.708,1.708,0,0,1,0,2.262c.234.7,1.248.78,1.716,1.118s.416.494.728.7a.584.584,0,0,0,.7,0,1.675,1.675,0,0,1-1.56,1.924c.026,1.222,1.326,1.95,1.872,2.262a2.009,2.009,0,0,1-1.482,1.118c.156.728.988,1.82.572,2.783a.623.623,0,0,0-.91.546c0,.6.78.91-.026,1.352-.364.208-.442.728.234,1.248a10.2,10.2,0,0,1,2.7-.208c.6,0,1.4-.182,1.95-.182a2.982,2.982,0,0,1,2.366,1.222A39.043,39.043,0,0,0,335.551,194.366Z" transform="translate(-284.4 -170)" fill="#9da1b2" fill-rule="evenodd"/></g><g transform="translate(91.977 171.502)"><path d="M288.393,232.419c.416,0,1.144-2.236,2.652-2.236.442,0,.546.156.546.338,0,.312-.494.572-.494.988a.137.137,0,0,0,.156.156c.364,0,.65-.806,2.158-.806a3.993,3.993,0,0,1,1.118.13c.156.026.494.208.364-.26a3.243,3.243,0,0,0-3.121-2.028,3.784,3.784,0,0,0-3.511,3.2C288.237,232.211,288.237,232.419,288.393,232.419Z" transform="translate(-288.25 -228.7)" fill="#9da1b2" fill-rule="evenodd"/></g><g transform="translate(115.994 159.494)"><path d="M384.713,184.364c-.442-.182-.494-.416-.364-.936.1-.572.13-.806-.13-.884-.234-.078-.546.078-.832.416a6.5,6.5,0,0,0-.832,1.17c-.13.468.442.416.026,1.17a15.121,15.121,0,0,0-1.222,2.47,5.048,5.048,0,0,1-.7,1.378c-.208.26.26.312.806.13.572-.208.6.468.416.936-.182.338-.026.468.442.1.442-.338-.234-.6-.078-1.69a5.59,5.59,0,0,1,.988-2.5c.494-.832.936-1.456,1.82-1.144C385.337,185.17,385.181,184.572,384.713,184.364Z" transform="translate(-380.606 -182.524)" fill="#9da1b2" fill-rule="evenodd"/></g><g transform="translate(137.94 188.014)"><path d="M465.884,294.124c.156,0,.208-.234.208-.442a2.158,2.158,0,0,0-.65-1.482c-.1.7-.442,1.17-.442,1.482C465,293.916,465.65,294.124,465.884,294.124Z" transform="translate(-465 -292.2)" fill="#9da1b2" fill-rule="evenodd"/></g><g transform="translate(142.517 181.565)"><path d="M483.068,268.986c.26,0,.676-.1.676-.312A1.832,1.832,0,0,0,482.6,267.4C482.99,268.1,482.6,268.986,483.068,268.986Z" transform="translate(-482.6 -267.4)" fill="#9da1b2" fill-rule="evenodd"/></g><g transform="translate(123.241 160.357)"><path d="M409.73,199.459c3.8,1.742,3.563,4.941,3.9,4.135a3.312,3.312,0,0,0-.7-3.433c-1.04-1.222-1.456-.91-1.04-1.924,1.638-4,2.7-10.064-2.262-12.2-.572-.234-1.04-.234-1.04-.13s.546.26,1.17.7c3.3,2.184,2.288,8.139-.728,11.052C408.013,198.627,408.481,198.887,409.73,199.459Z" transform="translate(-408.475 -185.844)" fill="#9da1b2" fill-rule="evenodd"/></g><g transform="translate(110.479 200.471)"><path d="M360.414,341.5c.26,0,.13-.416.026-.572a2.289,2.289,0,0,0-1.04-.832c.1.416.13,1.4.546,1.4Z" transform="translate(-359.4 -340.1)" fill="#9da1b2" fill-rule="evenodd"/></g><g transform="translate(98.907 200.497)"><path d="M315.992,341.578c.26,0,.078-.416-.026-.572a2.3,2.3,0,0,0-1.066-.806c.1.416.182,1.378.572,1.378Z" transform="translate(-314.9 -340.2)" fill="#9da1b2" fill-rule="evenodd"/></g><rect width="106.489" height="1.846" transform="translate(24.144 203.955)" fill="#9da1b2"/><g transform="translate(100.601 173.312)"><path d="M334.75,241.418c2.08-.234,2.418-.7,2.783-2.288a4.954,4.954,0,0,1,1.17-2.028,6.017,6.017,0,0,0,.91-1.118c.1-.208.156-.364,0-.312-.234.156-.936.65-1.248.884a9.965,9.965,0,0,1-4.655,1.56c-1.924,0-3.563-.572-5.331-.572-5.253,0-7.2,4.109-6.943,6.5.026.364.1.416.234.416.364,0,.676-1.4,2-2.652a9.483,9.483,0,0,1,6.969-2.861c2.158,0,3.043.7,3.043.988,0,.546-.91.572-.858,1.118C332.851,241.184,333.345,241.6,334.75,241.418Z" transform="translate(-321.413 -235.661)" fill="#9da1b2" fill-rule="evenodd"/></g><g transform="translate(23 151.4)"><path d="M36.314,168.823l1.248,3.277H35.04l1.274-3.277ZM27,168.3c.624,0,1.352.286,1.352,1.066a1.163,1.163,0,0,1-1.274,1.17H25.314V168.3Zm9.6,15.083c.884,0,1.508.364,1.508,1.274a1.242,1.242,0,0,1-1.43,1.3h-1.43v-2.574Zm30.737.026a1.363,1.363,0,0,1,1.534,1.4c0,.858-.624,1.4-1.638,1.4H66.012v-2.808ZM27.239,172.2a1.23,1.23,0,0,1,1.378,1.2c0,1.014-.936,1.248-1.69,1.248H25.288V172.2h1.95Zm36.536,4.187h1.9v-9.8h-1.9v9.8Zm-1.352-23.066a3.108,3.108,0,0,1,0,6.215h-1.3v-6.215ZM23.416,151.53v9.8h6.267v-1.82H25.314v-7.957h-1.9Zm7.931,0v9.8h6.267v-1.82H33.246v-7.957h-1.9Zm24.548,0-2.5,4.239-2.652-4.239h-2.21l3.823,5.877-2.366,3.9h2.132l5.9-9.8H55.9v.026Zm-12.742,1.664a3.226,3.226,0,1,1-3.147,3.2,3.169,3.169,0,0,1,3.147-3.2Zm3.615,30.087a3.226,3.226,0,1,1-3.147,3.2,3.169,3.169,0,0,1,3.147-3.2ZM69,154.235c0,1.352.858,2.262,2.626,2.808,1.092.364,1.976.65,1.976,1.508,0,.806-.806,1.144-1.586,1.144a5.657,5.657,0,0,1-2.861-.936v1.9a6.276,6.276,0,0,0,2.913.754,3.137,3.137,0,0,0,3.381-2.939c0-1.872-1.456-2.574-2.73-2.965-1.638-.52-1.924-.858-1.924-1.326,0-.676.624-1.014,1.56-1.014a5.86,5.86,0,0,1,2.444.624V152a5.591,5.591,0,0,0-2.47-.546c-1.95,0-3.329,1.092-3.329,2.783ZM79.2,171.476a5.027,5.027,0,0,0,5.253,5.019,9.05,9.05,0,0,0,2.6-.416v-5.019h-1.82v3.589a6.436,6.436,0,0,1-.754.052,3.229,3.229,0,1,1,.1-6.449,6.74,6.74,0,0,1,2.262.416v-1.82a7.954,7.954,0,0,0-2.288-.364c-3.017,0-5.357,2-5.357,4.993ZM23,186.532a5.027,5.027,0,0,0,5.253,5.019,9.05,9.05,0,0,0,2.6-.416v-4.993h-1.82v3.589a6.446,6.446,0,0,1-.754.052,3.229,3.229,0,1,1,.1-6.449,6.865,6.865,0,0,1,2.262.416v-1.82a7.953,7.953,0,0,0-2.288-.364A4.986,4.986,0,0,0,23,186.532Zm36.8-4.889v6.163a1.85,1.85,0,0,1-1.976,1.95,1.9,1.9,0,0,1-2-1.95v-6.163H53.945v6.215a3.878,3.878,0,0,0,7.749,0v-6.215ZM56.13,166.587H54.258v9.8H56.13v-4.629l3.979,4.629h2.444l-4.369-4.967,4.109-4.837H60.031l-3.9,4.629v-4.629Zm8.061,15.057v9.778h1.82V188.04h1.3a3.2,3.2,0,0,0,3.459-3.225,3.129,3.129,0,0,0-3.329-3.173ZM39.2,176.39h2.054l-4.031-9.856H35.456l-4.031,9.856h1.95l1.014-2.574h3.823l.988,2.574Zm36.12-9.8v6.449l-5.175-6.449H68.56v9.8h1.846v-6.761l5.383,6.761h1.352v-9.8Zm-25.745,0v6.449L44.4,166.587H42.816v9.8h1.846v-6.761l5.383,6.761H51.4v-9.8Zm-16.2,15.057v9.778h1.846V187.7h1.2l2.054,3.719h2.132l-2.366-4.031a2.9,2.9,0,0,0,1.768-2.7,2.994,2.994,0,0,0-3.3-3.043H33.376Zm-9.96-15.057v9.8H27c2.184,0,3.485-1.092,3.485-2.913a2.654,2.654,0,0,0-1.4-2.288,2.289,2.289,0,0,0,1.092-1.9c0-1.638-1.2-2.7-3.043-2.7ZM59.25,151.53v9.8H62.4a4.9,4.9,0,1,0,0-9.8Zm-21.168,4.889a5.071,5.071,0,0,0,10.142,0,5.071,5.071,0,0,0-10.142,0ZM41.7,186.506a5.071,5.071,0,0,0,10.142,0,5.071,5.071,0,0,0-10.142,0Z" transform="translate(-23 -151.4)" fill="#9da1b2" fill-rule="evenodd"/></g></g></svg>