<svg xmlns="http://www.w3.org/2000/svg" width="135.683" height="41.874" viewBox="0 0 135.683 41.874"><path d="M14.394,0h4.132V.778h-.778c-.136,0-.373.157-.715.468s-.513.555-.513.715V13.825c0,.164.171.4.513.715s.579.471.715.471h.778v.775h-6.1V15h.778c.136,0,.37-.157.7-.471s.492-.551.492-.715V2.331L8.668,16.069,2.945,2.094V13.822c0,.164.164.4.489.715s.562.471.7.471h.775v.775H0V15H.778c.164,0,.408-.157.736-.471S2,13.983,2,13.819V1.961c0-.161-.164-.4-.489-.715S.942.778.778.778H0V0H4.578L9.324,11.819h.122ZM24.21,14.188a3.727,3.727,0,0,0,2-.447,3.936,3.936,0,0,0,1.225-1.35h.656a5.9,5.9,0,0,1-1.616,2.656,4.306,4.306,0,0,1-3,.984,4.156,4.156,0,0,1-3.4-1.556,5.7,5.7,0,0,1-1.267-3.72,5.444,5.444,0,0,1,1.427-3.968,4.617,4.617,0,0,1,3.434-1.473,5.182,5.182,0,0,1,2.045.37,5.384,5.384,0,0,1,1.595,1.047l-1.49,2.341-.614.038a4.146,4.146,0,0,0-.122-2.094A1.521,1.521,0,0,0,23.45,6.1,2.526,2.526,0,0,0,21.2,7.2a5.178,5.178,0,0,0-.736,2.907,4.358,4.358,0,0,0,1,2.9,3.434,3.434,0,0,0,2.746,1.179Zm10.141,1.595H28.174V15h.789c.164,0,.408-.157.736-.471s.489-.551.489-.715V1.961c0-.161-.161-.4-.489-.715a1.406,1.406,0,0,0-.736-.468h-.789V0h6.176V.778h-.778c-.164,0-.408.157-.736.468s-.489.555-.489.715V8.424l5.643-6.3c.108-.136,0-.394-.286-.775s-.52-.572-.656-.572h-.757V0h5.723V.778h-.778A2.945,2.945,0,0,0,40.2,1.4c-.548.422-.872.7-.984.8L35.377,6.323l5.52,7.328a4.578,4.578,0,0,0,.918.817,2.341,2.341,0,0,0,.963.534h1.145a1.267,1.267,0,0,0,.7-.408c.3-.276.45-.506.45-.7V7.443c0-.164-.15-.384-.45-.656a1.267,1.267,0,0,0-.7-.408H43.3V5.6h3.64v8.3c0,.192.157.422.471.7a1.4,1.4,0,0,0,.673.408h1.27c.136,0,.349-.136.653-.408a1.082,1.082,0,0,0,.45-.7V7.443c0-.164-.15-.384-.45-.656s-.516-.408-.653-.408H48.7V5.6h3.231l.408,2.076a17.508,17.508,0,0,1,1.78-1.637,3.49,3.49,0,0,1,2.226-.7,2.792,2.792,0,0,1,2.027.82,2.837,2.837,0,0,1,.837,2.125V13.9c0,.192.15.422.45.7s.516.408.653.408h.656v.775H55.616V15h.565a1.277,1.277,0,0,0,.7-.408c.3-.276.45-.506.45-.7V8.424a1.9,1.9,0,0,0-.412-1.267,1.5,1.5,0,0,0-1.225-.492,3.838,3.838,0,0,0-2.23.8q-1.12.8-1.12,1.33V13.9c0,.192.15.422.45.7a1.267,1.267,0,0,0,.7.408h.572v.775H39.432l-5.489-7.89L32.348,9.61v4.212c0,.164.161.4.489.715s.572.471.736.471h.778Zm5.479,17.8-.049-.049q.78.654,1.577,1.309t1.7,1.27h.939v.817H42.276a5.381,5.381,0,0,1-2.045-.366,6.588,6.588,0,0,1-1.881-1.27A6.093,6.093,0,0,1,36.162,36.7a8.462,8.462,0,0,1-2.963.468,5.3,5.3,0,0,1-3.49-1.288,4.187,4.187,0,0,1-1.556-3.374h0a5.492,5.492,0,0,1,.7-2.739,5.9,5.9,0,0,1,1.856-2,7.363,7.363,0,0,1-.921-1.514,4.379,4.379,0,0,1-.349-1.8,3.312,3.312,0,0,1,1.019-2.6,4.006,4.006,0,0,1,2.788-.921,5,5,0,0,1,1.72.244,3.326,3.326,0,0,0,1.145.248,1.93,1.93,0,0,0,.45-.042.5.5,0,0,0,.286-.244h.7v3.72h-.7a3.374,3.374,0,0,0-1.047-2,3.315,3.315,0,0,0-2.6-1.186,3.116,3.116,0,0,0-2.006.593,2.01,2.01,0,0,0-.736,1.654,2.554,2.554,0,0,0,.614,1.678,4.013,4.013,0,0,0,1.637,1.145q1.511,1.64,3.27,3.291t3.353,3.088a5.151,5.151,0,0,0,.635-1.511,7.709,7.709,0,0,0,.185-1.745,2.223,2.223,0,0,0-.677-1.7,2.54,2.54,0,0,0-1.818-.632v-.792H43.27v.736h-.611c-.136,0-.4.23-.8.7a2.048,2.048,0,0,0-.593,1.022v.042a8.375,8.375,0,0,1-.408,2.31,7.216,7.216,0,0,1-1.029,2.02Zm-5.356,2.373a5.932,5.932,0,0,0,1.9-.286,6.03,6.03,0,0,0,1.532-.771l-.122-.08q-1.745-1.556-3.434-3.189t-3.273-3.437a4.969,4.969,0,0,0-.939,1.4,4.857,4.857,0,0,0-.328,1.961A4.079,4.079,0,0,0,31.3,34.592a4.631,4.631,0,0,0,3.168,1.35ZM45.8,3.109h-.042a1.3,1.3,0,0,1-.918-.37,1.183,1.183,0,0,1-.391-.9V1.8A1.218,1.218,0,0,1,44.84.837a1.5,1.5,0,0,1,1.919,0,1.218,1.218,0,0,1,.391.963h-.042c.028,0,.042,0,.042.038a1.183,1.183,0,0,1-.391.9,1.249,1.249,0,0,1-.879.37ZM56.181,35.862a5.426,5.426,0,0,0,3.189-.817,6.281,6.281,0,0,0,1.919-2.373h.824A6.979,6.979,0,0,1,59.7,36a6.476,6.476,0,0,1-3.964,1.207,6.745,6.745,0,0,1-5.44-2.443,8.762,8.762,0,0,1-2.045-5.828,8.937,8.937,0,0,1,1.881-5.726,6.281,6.281,0,0,1,5.192-2.369,6.065,6.065,0,0,1,2.17.349,5,5,0,0,0,1.839.349,1.277,1.277,0,0,0,.572-.1,1.546,1.546,0,0,0,.408-.3h.572V26.7h-.7a5.862,5.862,0,0,0-1.267-3.067A4.041,4.041,0,0,0,55.4,21.8,4.32,4.32,0,0,0,52.172,23a6.047,6.047,0,0,0-1.4,3.863v-.08q-.042.45-.063.9c0,.3-.021.611-.021.939a10.972,10.972,0,0,0,.042,1.166c.042.394.056.757.08,1.085a5.782,5.782,0,0,0,1.595,3.535,4.959,4.959,0,0,0,3.772,1.452Zm12.911-22.94a2.9,2.9,0,0,1-.921,2.289,3.4,3.4,0,0,1-2.352.82,3.891,3.891,0,0,1-1.637-.307,3.039,3.039,0,0,0-1.309-.307.729.729,0,0,0-.447.1l-.328.265h-.475v-3.6h.614a3.311,3.311,0,0,0,.96,1.842,3.273,3.273,0,0,0,2.638,1.145,2.816,2.816,0,0,0,1.473-.328,1.152,1.152,0,0,0,.53-1.047,1.347,1.347,0,0,0-.632-1.246,10.818,10.818,0,0,0-1.288-.677c-.384-.161-.729-.311-1.047-.447s-.677-.286-1.085-.45a5.374,5.374,0,0,1-1.553-1.085,2.338,2.338,0,0,1-.614-1.7,2.645,2.645,0,0,1,.82-2.094,3.884,3.884,0,0,1,3.657-.45,2.568,2.568,0,0,0,1.127.269.848.848,0,0,0,.349-.063.447.447,0,0,0,.227-.227h.53V8.773h-.614a2.973,2.973,0,0,0-.837-1.637,2.792,2.792,0,0,0-2.268-1.022,2,2,0,0,0-1.33.37,1.179,1.179,0,0,0-.429.939,1.131,1.131,0,0,0,.45.981,7.918,7.918,0,0,0,1.225.7c.384.161.743.311,1.085.447l1.124.45a5.524,5.524,0,0,1,1.595,1.022,2.443,2.443,0,0,1,.778,1.891Zm2.676,14.967A5.116,5.116,0,0,1,73.3,31.814a5.171,5.171,0,0,1-1.535,3.947,5,5,0,0,1-3.535,1.452,5.049,5.049,0,0,1-3.58-1.452,5.171,5.171,0,0,1-1.532-3.947,5.12,5.12,0,0,1,8.664-3.926ZM71.277,33.5v.08c.028-.3.045-.6.059-.9s.021-.6.021-.9,0-.59-.021-.876-.031-.555-.059-.8a3.388,3.388,0,0,0-.879-2,2.861,2.861,0,0,0-2.146-.736,2.792,2.792,0,0,0-2.094.736,3.343,3.343,0,0,0-.879,1.961V30.01a6.022,6.022,0,0,0-.1.858c0,.3-.021.6-.021.9s0,.593.021.879a4.993,4.993,0,0,0,.1.8,3.51,3.51,0,0,0,.879,1.961,2.718,2.718,0,0,0,2.094.778,2.792,2.792,0,0,0,2.167-.757A3.489,3.489,0,0,0,71.277,33.5ZM74.63,16.052a4.233,4.233,0,0,1-3.374-1.574,5.622,5.622,0,0,1-1.33-3.744A5.65,5.65,0,0,1,71.277,6.9,4.142,4.142,0,0,1,74.63,5.381a3.458,3.458,0,0,1,2.676,1.047,3.894,3.894,0,0,1,1.047,2.516l.042.736-6.791.544a4.351,4.351,0,0,0,.977,2.687,3.2,3.2,0,0,0,2.7,1.288,3.838,3.838,0,0,0,2.024-.447,3.615,3.615,0,0,0,1.207-1.312h.614a5.527,5.527,0,0,1-1.556,2.638,4.219,4.219,0,0,1-2.938.953Zm-.042-9.9a2.561,2.561,0,0,0-2.31,1.082,4.338,4.338,0,0,0-.757,2.272l5.112-.436a4.317,4.317,0,0,0-.227-2.027q-.335-.907-1.818-.911Zm12.349,30.01c.164,0,.387-.143.673-.429s.429-.509.429-.673V29.479a1.835,1.835,0,0,0-.387-1.207,1.521,1.521,0,0,0-1.246-.471,3.346,3.346,0,0,0-1.986.736q-1,.74-1,1.228V35.08c0,.164.143.387.429.673s.5.429.635.429H85.1v.778H79.865v-.778h.572c.164,0,.387-.143.673-.429s.429-.509.429-.673V29.5a1.839,1.839,0,0,0-.408-1.249,1.535,1.535,0,0,0-1.228-.471,3.3,3.3,0,0,0-2.024.778q-1,.775-1,1.309V35.1c0,.164.143.387.429.673s.513.429.677.429h.572v.778H73.322V36.2h.614c.136,0,.349-.143.632-.429S75,35.262,75,35.1V28.583c0-.161-.143-.38-.429-.653s-.5-.408-.632-.408h-.614v-.778h3.141l.408,1.965q.9-.942,1.637-1.577A3.106,3.106,0,0,1,80.6,26.5a3.008,3.008,0,0,1,1.8.551,2.307,2.307,0,0,1,.942,1.616c.625-.6,1.2-1.106,1.717-1.514a3.207,3.207,0,0,1,2.045-.614,2.844,2.844,0,0,1,2,.757,2.792,2.792,0,0,1,.82,2.15v5.583c0,.164.143.387.429.673s.5.429.632.429H91.6v.778H86.366v-.778ZM80.109,7.551a2.791,2.791,0,0,0-.635-.7c-.349-.3-.579-.45-.7-.45h-.45V5.6h5.52v.778h-.653c-.136,0-.314.136-.53.408a1.2,1.2,0,0,0-.328.7l2.443,5.028,2.251-4.99a1.015,1.015,0,0,0-.307-.736q-.349-.408-.555-.408h-.674V5.6h4.132v.778h-.45c-.136,0-.349.143-.635.429a2.575,2.575,0,0,0-.551.715l-3.49,7.4-3,5.768-.89-.454,3.106-5.6ZM98.635,26.485a3.462,3.462,0,0,1,2.942,1.431,6.163,6.163,0,0,1,1.047,3.762,6.281,6.281,0,0,1-1.186,3.926,3.647,3.647,0,0,1-3.025,1.556,3.922,3.922,0,0,1-2.146-.513,4.226,4.226,0,0,1-1.371-1.532v4.906c0,.192.15.422.45.7s.52.408.656.408h.66v.747H91.272V41.1h.656a1.19,1.19,0,0,0,.673-.408,1.1,1.1,0,0,0,.429-.7V28.583c0-.161-.143-.38-.429-.653a1.19,1.19,0,0,0-.673-.408h-.656V26.7h3.312l.328,2.129a5.042,5.042,0,0,1,1.574-1.8,3.863,3.863,0,0,1,2.15-.572Zm2.045,6.871v.038l.08-.817a8,8,0,0,0,.042-.817,5.935,5.935,0,0,0-.042-.715c-.028-.234-.056-.457-.08-.677a3.49,3.49,0,0,0-.82-1.94,2.261,2.261,0,0,0-1.745-.7,2.732,2.732,0,0,0-2.045.8,4.885,4.885,0,0,0-1.145,1.982v2.659a2.792,2.792,0,0,0,.858,2.045,2.844,2.844,0,0,0,2.094.858h.042a2.443,2.443,0,0,0,1.961-.757,3.674,3.674,0,0,0,.8-1.986Zm23.1,1.717c0,.164.15.387.45.673s.516.429.653.429h.614v.778h-5.356v-.778h.593c.14,0,.349-.143.656-.429s.45-.509.45-.673V29.525a1.993,1.993,0,0,0-.387-1.246,1.424,1.424,0,0,0-1.207-.513,3.793,3.793,0,0,0-2.23.817q-1.127.824-1.124,1.309v5.154c0,.192.15.422.45.7a1.267,1.267,0,0,0,.7.408h.6v.778h-8.682l-.286-2.125a12.184,12.184,0,0,1-1.431,1.574,2.792,2.792,0,0,1-1.965.757,2.519,2.519,0,0,1-1.839-.778,2.7,2.7,0,0,1-.778-2,2.3,2.3,0,0,1,1.124-2.188,8.3,8.3,0,0,1,2.188-.879l2.659-.534.042-1.225a2.443,2.443,0,0,0-.572-1.7,2.558,2.558,0,0,0-1.965-.635,1.874,1.874,0,0,0-1.78.817,2.331,2.331,0,0,0,.1,2.129h-.736l-1.4-2.045a5.719,5.719,0,0,1,4.254-1.637,4.809,4.809,0,0,1,2.823.8,2.645,2.645,0,0,1,1.145,2.31v5.479c0,.164.15.38.45.653s.516.412.653.412h1.228a1.256,1.256,0,0,0,.7-.412c.3-.272.45-.489.45-.653V28.583c0-.161-.15-.38-.45-.653a1.267,1.267,0,0,0-.7-.408h-.614V26.7H116.5l.408,2.129a19.026,19.026,0,0,1,1.745-1.637,3.458,3.458,0,0,1,2.247-.7,2.792,2.792,0,0,1,2.024.817,2.834,2.834,0,0,1,.841,2.129Zm-14.108-3.626-2.443.614a2.268,2.268,0,0,0-1.35.754,2.094,2.094,0,0,0-.37,1.249V34.1a1.577,1.577,0,0,0,.45,1.127,1.469,1.469,0,0,0,1.106.468h.059a2.307,2.307,0,0,0,1.473-.611,4.6,4.6,0,0,0,1.047-1.186Zm26.007-4.7v.778h-.492c-.108,0-.307.143-.593.429a5.2,5.2,0,0,0-.593.673l-3.434,7.443L127.5,41.794l-.858-.45,3.067-5.6-3.6-7.073a2.868,2.868,0,0,0-.635-.7c-.349-.3-.565-.45-.673-.45h-.492v-.775h5.52v.778h-.614c-.136,0-.321.136-.551.408a1.186,1.186,0,0,0-.349.7l2.443,5.032,2.261-5.046a.942.942,0,0,0-.307-.7c-.23-.272-.415-.408-.551-.408h-.653v-.764Z" fill="#9da1b2"/></svg>