<svg xmlns="http://www.w3.org/2000/svg" width="145.465" height="35.974" viewBox="0 0 145.465 35.974"><g transform="translate(-660.726 -204.857)"><path d="M747.229,256.2h-6.244c-.06,0-.121,0-.18,0-.171.008-.255-.059-.293-.239-.1-.479-.236-.951-.337-1.43a3.052,3.052,0,0,1-.005-.563c-.244.2-.445.352-.636.516a9.216,9.216,0,0,1-2.937,1.643,12.809,12.809,0,0,1-2.407.569,9.106,9.106,0,0,1-1.146.081c-.481.013-.963,0-1.445,0a9.414,9.414,0,0,1-3.431-.683,6.6,6.6,0,0,1-2.12-1.333,6.04,6.04,0,0,1-1.776-3.149,8.938,8.938,0,0,1-.154-1.134,7.25,7.25,0,0,1-.066-1.073,7.55,7.55,0,0,1,.647-2.96,5.712,5.712,0,0,1,2.506-2.591,11.362,11.362,0,0,1,3.5-1.167c.682-.118,1.363-.246,2.048-.347.5-.073,1-.1,1.5-.159s.994-.132,1.489-.211c.566-.09,1.137-.166,1.692-.3a4.42,4.42,0,0,0,1.642-.706,1.855,1.855,0,0,0,.716-1.13,3.37,3.37,0,0,0-.245-2.032,2.187,2.187,0,0,0-1.335-1.235,5.916,5.916,0,0,0-1.4-.316,10.89,10.89,0,0,0-1.4-.05,4.849,4.849,0,0,0-2.412.611,2.759,2.759,0,0,0-1.031,1.029,3.88,3.88,0,0,0-.549,1.769c0,.135-.06.2-.2.194-.073,0-.145,0-.217,0h-5.852c-.117,0-.234-.01-.4-.017.1-.622.163-1.218.308-1.793a7.07,7.07,0,0,1,1.414-2.838,8.341,8.341,0,0,1,3.35-2.35,13.9,13.9,0,0,1,2.834-.786c.493-.089,1-.1,1.5-.164a26.843,26.843,0,0,1,3.278-.06c.439,0,.878.1,1.318.124a10.837,10.837,0,0,1,1.56.229,9.313,9.313,0,0,1,3.9,1.6,5.165,5.165,0,0,1,1.747,2.235,6.961,6.961,0,0,1,.434,1.842,13.2,13.2,0,0,1,.052,1.472c.005,4.236,0,8.471.009,12.706a10.377,10.377,0,0,0,.2,2.03c.071.351.123.707.215,1.052S747.094,255.79,747.229,256.2Zm-7.363-11.5c-.358.164-.685.343-1.031.467a18.713,18.713,0,0,1-3.3.64c-.448.074-.9.135-1.342.226a6.886,6.886,0,0,0-1.935.654,2.806,2.806,0,0,0-1.521,1.938,3.519,3.519,0,0,0-.039,1.348,2.512,2.512,0,0,0,1.311,1.908,4.409,4.409,0,0,0,1.829.48,7.853,7.853,0,0,0,2.644-.2,4.581,4.581,0,0,0,1.965-1.083,4.172,4.172,0,0,0,.994-1.569,8.073,8.073,0,0,0,.421-2.5c.032-.66.006-1.323.006-1.985Z" transform="translate(-37.523 -15.952)" fill="#707074"/><path d="M676.767,253.8c-.185.246-.313.43-.456.6a11.9,11.9,0,0,1-.847.976,8.455,8.455,0,0,1-2.5,1.668,10.91,10.91,0,0,1-2.451.676,2.47,2.47,0,0,1-.433.011c-.494,0-.988,0-1.481,0a9.273,9.273,0,0,1-3.934-.862,5.8,5.8,0,0,1-2.052-1.6,7.652,7.652,0,0,1-1.529-3.406c-.111-.561-.206-1.127-.279-1.694a9.586,9.586,0,0,1-.078-1.217q-.008-7.581,0-15.162c0-.036,0-.073,0-.108.008-.28.008-.286.282-.287.566,0,1.132,0,1.7,0h4.154l.289,0a.141.141,0,0,1,.154.158c0,.108,0,.216,0,.325q0,6.606,0,13.212a10.092,10.092,0,0,0,.379,2.8,3.919,3.919,0,0,0,.864,1.6,2.863,2.863,0,0,0,1.089.747,4.586,4.586,0,0,0,1.688.3,6.893,6.893,0,0,0,1.957-.22,3.713,3.713,0,0,0,2.164-1.621,6.571,6.571,0,0,0,.805-2.291,11.891,11.891,0,0,0,.157-1.532c.134-2.163.037-4.326.057-6.489s0-4.332,0-6.5c0-.554-.063-.493.508-.494q2.781,0,5.563,0c.072,0,.144,0,.217,0,.284.007.284.007.292.278,0,.072,0,.144,0,.217q0,11.389,0,22.779c0,.536.057.487-.479.488q-2.673,0-5.346,0c-.072,0-.144,0-.216,0-.235-.01-.245-.012-.246-.25,0-.818,0-1.637,0-2.455Z" transform="translate(0 -16.91)" fill="#707074"/><path d="M797.654,227.675q0,7.941,0,15.882c0,.519.045.473-.458.473q-2.853,0-5.706,0c-.433,0-.416.029-.416-.407q0-15.99,0-31.98c0-.036,0-.073,0-.108.007-.284.007-.291.278-.291q3.016,0,6.031,0c.26,0,.263.01.271.262,0,.1,0,.193,0,.289Z" transform="translate(-77.24 -3.783)" fill="#707074"/><path d="M828.382,241.443H825.1c-.324,0-.328,0-.329-.312q0-3.265,0-6.53c0-.3.005-.308.3-.309q3.321,0,6.643,0c.288,0,.292.007.292.312q0,3.265,0,6.531c0,.3,0,.308-.332.308Q830.025,241.445,828.382,241.443Z" transform="translate(-97.206 -17.441)" fill="#707074"/><path d="M828.346,281.316H825.1c-.324,0-.329,0-.329-.313q0-3.265,0-6.531c0-.3.005-.308.3-.308q3.322,0,6.643,0c.288,0,.293.007.293.311q0,3.265,0,6.531c0,.305,0,.309-.332.309Q830.006,281.318,828.346,281.316Z" transform="translate(-97.206 -41.069)" fill="#707074"/><path d="M918.738,271.642v-1.979c0-.373,0-.746,0-1.119,0-.213.018-.229.227-.231.506-.006,1.012,0,1.517,0,.156,0,.219.067.21.218,0,.072,0,.144,0,.217v8.664c0,.072,0,.145,0,.216-.012.206-.018.218-.238.221q-.7.007-1.409,0c-.213,0-.225-.018-.233-.226-.006-.167,0-.335,0-.554a2.174,2.174,0,0,1-1.12.8,3.094,3.094,0,0,1-2.686-.372,2.955,2.955,0,0,1-1.024-1.32,4.613,4.613,0,0,1-.365-2.177,3.731,3.731,0,0,1,1.09-2.55,2.6,2.6,0,0,1,1.439-.684,3.166,3.166,0,0,1,.96-.019,2.45,2.45,0,0,1,1.472.757C918.608,271.537,918.646,271.564,918.738,271.642Zm.037,2.719a2.678,2.678,0,0,0-.192-1.132,2.114,2.114,0,0,0-.416-.662,1.5,1.5,0,0,0-2.391.632,3.176,3.176,0,0,0-.126,1.833,1.842,1.842,0,0,0,.927,1.339,1.468,1.468,0,0,0,1.625-.247,1.69,1.69,0,0,0,.449-.8C918.717,275,918.736,274.681,918.775,274.361Z" transform="translate(-149.847 -37.6)" fill="#707074"/><path d="M919.474,240.184c.166-.161.272-.273.389-.373a2.118,2.118,0,0,1,1.466-.589,4.571,4.571,0,0,1,1.039.069,1.861,1.861,0,0,1,1.515,1.625,10.872,10.872,0,0,1,.137,1.424c.02,1.167.006,2.335.006,3.5,0,.084,0,.169,0,.253.009.157-.067.211-.217.21-.494,0-.988,0-1.481,0-.249,0-.256-.009-.257-.275,0-1.119.009-2.238-.007-3.358a8.376,8.376,0,0,0-.126-1.065,1.084,1.084,0,0,0-1.327-.843c-.729.134-1.086.5-1.123,1.44-.049,1.213-.012,2.43-.013,3.646,0,.486.047.456-.439.456-.421,0-.843,0-1.264,0-.239,0-.241-.011-.251-.245,0-.072,0-.145,0-.217v-8.628c0-.485-.033-.443.452-.444h1.084c.434,0,.421-.035.42.4q0,1.3,0,2.6Z" transform="translate(-152.167 -18.909)" fill="#707074"/><path d="M964.7,249.3a3.211,3.211,0,0,1-1.868.726,3.769,3.769,0,0,1-1.512-.16,1.846,1.846,0,0,1-1.238-1.765,2.736,2.736,0,0,1,.1-.889,1.725,1.725,0,0,1,1.035-1.076,5.422,5.422,0,0,1,1.4-.316c.462-.057.92-.14,1.38-.214a.794.794,0,0,0,.171-.052c.357-.147.475-.31.473-.642a.737.737,0,0,0-.493-.725,1.9,1.9,0,0,0-1.306.02.858.858,0,0,0-.488.5,1.332,1.332,0,0,0-.079.239.177.177,0,0,1-.2.157q-.794,0-1.589,0c-.121,0-.187-.06-.171-.176a2.582,2.582,0,0,1,.1-.526,2.074,2.074,0,0,1,1.093-1.235,3.7,3.7,0,0,1,1.63-.381c.325,0,.65,0,.975,0a3.757,3.757,0,0,1,1.266.231,2,2,0,0,1,.943.7,1.53,1.53,0,0,1,.278.95c0,1.191,0,2.383,0,3.574a4.344,4.344,0,0,0,.182,1.418c.051.154.018.2-.139.205-.53.006-1.06,0-1.589,0a.226.226,0,0,1-.264-.228A2.937,2.937,0,0,0,964.7,249.3Zm-.078-2.634c-.4.065-.768.113-1.129.186a6.773,6.773,0,0,0-.936.241.794.794,0,0,0-.519.825.712.712,0,0,0,.581.724,2.328,2.328,0,0,0,.818.056,1.216,1.216,0,0,0,1.138-1.024A4.431,4.431,0,0,0,964.625,246.666Z" transform="translate(-177.392 -22.477)" fill="#707074"/><path d="M941.976,247.648a3.546,3.546,0,0,1-.5,1.063,2.769,2.769,0,0,1-1.885,1.213,3.579,3.579,0,0,1-1.1.06,5.512,5.512,0,0,1-1.025-.164,3.131,3.131,0,0,1-2.17-2.394,4.117,4.117,0,0,1,.123-2.479,3.238,3.238,0,0,1,2.641-2.185,3.565,3.565,0,0,1,2.088.222,3.469,3.469,0,0,1,.69.448,3.537,3.537,0,0,1,1.215,2.3,6.233,6.233,0,0,1,.014.973.14.14,0,0,1-.159.153l-.289,0H937.65c-.072,0-.145,0-.217,0-.272.008-.31.056-.249.327a1.8,1.8,0,0,0,.332.786,1.681,1.681,0,0,0,1.634.492,1.936,1.936,0,0,0,.714-.328c.083-.068.19-.137.224-.229.09-.243.263-.269.486-.263C941.029,247.657,941.484,247.648,941.976,247.648Zm-1.858-2.114c-.052-.159-.092-.293-.139-.425a1.232,1.232,0,0,0-.954-.874,1.672,1.672,0,0,0-.847.038,1.457,1.457,0,0,0-1,1.123.109.109,0,0,0,.1.154,2.112,2.112,0,0,0,.216.007q1.153,0,2.306,0C939.892,245.556,939.985,245.544,940.118,245.534Z" transform="translate(-162.626 -22.426)" fill="#707074"/><path d="M937.918,215.657a3.121,3.121,0,0,1-.824,1.468,2.8,2.8,0,0,1-1.615.8,7.449,7.449,0,0,1-.785.072,3.535,3.535,0,0,1-2.46-.839,3.021,3.021,0,0,1-.783-1.108,4.167,4.167,0,0,1-.292-2.224,3.478,3.478,0,0,1,1.128-2.267,3.216,3.216,0,0,1,1.525-.771,3.775,3.775,0,0,1,2.123.129,2.967,2.967,0,0,1,1.535,1.3,4.112,4.112,0,0,1,.522,1.447,6.6,6.6,0,0,1,.02,1.008c0,.1-.06.15-.161.151l-.289,0H933.59c-.072,0-.145,0-.217,0-.258.007-.321.063-.254.292a3.546,3.546,0,0,0,.292.765,1.183,1.183,0,0,0,1.08.6,3.308,3.308,0,0,0,.682-.032,1.489,1.489,0,0,0,.946-.671.32.32,0,0,1,.293-.163c.458,0,.915,0,1.373,0A.527.527,0,0,1,937.918,215.657Zm-3.355-2.065c.431,0,.863,0,1.3,0,.178,0,.213-.042.176-.179a1.41,1.41,0,0,0-1.468-1.2,1.457,1.457,0,0,0-1.43,1.165c-.035.184-.025.21.167.213C933.723,213.6,934.143,213.592,934.563,213.592Z" transform="translate(-160.23 -3.461)" fill="#707074"/><path d="M1001.288,215.791c.058-.15.106-.258.141-.37q.5-1.575,1-3.151c.087-.274.173-.548.253-.824.033-.116.088-.2.218-.2.611,0,1.223,0,1.893,0-.121.342-.222.641-.332.937q-.418,1.129-.843,2.256-.662,1.767-1.327,3.533c-.152.4-.3.81-.457,1.211a1.99,1.99,0,0,1-1.677,1.324,6.545,6.545,0,0,1-1.644-.015c-.1-.01-.158-.052-.159-.154,0-.49,0-.979,0-1.454a7.732,7.732,0,0,1,.931.023.826.826,0,0,0,.816-1.149c-.176-.446-.335-.9-.5-1.347q-.378-1.01-.759-2.018c-.338-.9-.673-1.8-1.018-2.689-.173-.449-.174-.46.294-.46h1.336c.387,0,.308-.007.416.313.438,1.295.867,2.593,1.3,3.89C1001.2,215.546,1001.238,215.646,1001.288,215.791Z" transform="translate(-199.691 -3.783)" fill="#707074"/><path d="M879.173,281.5a3.562,3.562,0,0,1-2.317-.771,2.972,2.972,0,0,1-.922-1.264,4.417,4.417,0,0,1-.277-2.085,3.325,3.325,0,0,1,1.484-2.63,3.17,3.17,0,0,1,1.483-.506,4.4,4.4,0,0,1,.677-.063,3.854,3.854,0,0,1,2.1.633,3.165,3.165,0,0,1,1.129,1.457,4.544,4.544,0,0,1,.263,2.051,3.49,3.49,0,0,1-.887,2.116,3.054,3.054,0,0,1-1.775.956C879.817,281.444,879.494,281.465,879.173,281.5Zm-1.567-3.669a3.081,3.081,0,0,0,.225,1.253,1.551,1.551,0,0,0,1.377.933,1.574,1.574,0,0,0,1.479-1.111,3.351,3.351,0,0,0-.018-2.187A1.39,1.39,0,0,0,879.4,275.7a1.433,1.433,0,0,0-1.551.865A2.73,2.73,0,0,0,877.606,277.83Z" transform="translate(-127.349 -41.077)" fill="#707074"/><path d="M936.8,281.5a3.8,3.8,0,0,1-1.839-.447,3.145,3.145,0,0,1-1.616-2.184,5.021,5.021,0,0,1-.06-1.721,3.146,3.146,0,0,1,.9-1.958,3.192,3.192,0,0,1,1.972-.946,6.12,6.12,0,0,1,.713-.066,3.742,3.742,0,0,1,2.422.856,3.172,3.172,0,0,1,.972,1.652,3.9,3.9,0,0,1,.16,1.313,3.959,3.959,0,0,1-.632,2.069,3.175,3.175,0,0,1-2.064,1.327C937.419,281.451,937.107,281.466,936.8,281.5Zm-1.61-3.673a2.774,2.774,0,0,0,.37,1.488,1.148,1.148,0,0,0,.355.395,1.573,1.573,0,0,0,1.189.253,1.477,1.477,0,0,0,1.124-.9,3.571,3.571,0,0,0,.235-1.152,5.017,5.017,0,0,0-.059-.531,2.254,2.254,0,0,0-.321-1.016,1.531,1.531,0,0,0-2.767.546A8.018,8.018,0,0,0,935.188,277.827Z" transform="translate(-161.483 -41.078)" fill="#707074"/><path d="M867.329,246.394a3.467,3.467,0,0,1,.609-2.263,2.978,2.978,0,0,1,1.994-1.3,4.627,4.627,0,0,1,2.207.076,3.1,3.1,0,0,1,2.186,2.324,4.2,4.2,0,0,1-.7,3.676,2.879,2.879,0,0,1-1.27.855A4.159,4.159,0,0,1,871.2,250a4.058,4.058,0,0,1-1.824-.238,3.137,3.137,0,0,1-1.912-2.1A3.389,3.389,0,0,1,867.329,246.394Zm1.958,0a2.3,2.3,0,0,0,.212,1.246,1.433,1.433,0,0,0,.833.8,1.525,1.525,0,0,0,1.927-.807,3.538,3.538,0,0,0,.26-1.4,3.135,3.135,0,0,0-.6-1.608,1.5,1.5,0,0,0-2.445.559A2.674,2.674,0,0,0,869.287,246.4Z" transform="translate(-122.421 -22.447)" fill="#707074"/><path d="M897.413,275.252a2.623,2.623,0,0,1,.987-.819,2.469,2.469,0,0,1,1.606-.208c.163.037.33.052.494.085a1.784,1.784,0,0,1,1.388,1.36,3.86,3.86,0,0,1,.155,1.17c-.011,1.347,0,2.7,0,4.043,0,.036,0,.072,0,.108,0,.323,0,.326-.314.328-.458,0-.915,0-1.372,0-.258,0-.267-.011-.268-.264,0-.734,0-1.468,0-2.2,0-.493.009-.987,0-1.48a4.418,4.418,0,0,0-.079-.784,1.023,1.023,0,0,0-1.03-.83,3.3,3.3,0,0,0-.465.036c-.526.124-.809.482-.947,1.143a6.483,6.483,0,0,0-.072,1.326c0,.914,0,1.829,0,2.743,0,.3-.005.308-.3.31-.469,0-.939,0-1.408,0-.238,0-.247-.011-.249-.245,0-.529,0-1.059,0-1.588q0-2.328,0-4.656c0-.1,0-.192,0-.288a.141.141,0,0,1,.158-.154h1.553c.125,0,.167.071.167.184C897.413,274.774,897.413,274.977,897.413,275.252Z" transform="translate(-139.139 -41.073)" fill="#707074"/><path d="M955.075,275.114a6.059,6.059,0,0,1,.748-.589,2.435,2.435,0,0,1,1.693-.321c.176.033.355.047.53.085a1.719,1.719,0,0,1,1.191.792,3.416,3.416,0,0,1,.346.9,3.9,3.9,0,0,1,.089.89c.009,1.36,0,2.719,0,4.079,0,.368,0,.368-.381.369H958.1c-.381,0-.382,0-.383-.368,0-.541,0-1.083,0-1.624,0-.674.006-1.348,0-2.021a2.442,2.442,0,0,0-.214-.975.891.891,0,0,0-.879-.569,2.161,2.161,0,0,0-.466.029,1.119,1.119,0,0,0-.913.864,3.135,3.135,0,0,0-.124.776c.006,1.143,0,2.286,0,3.429,0,.084,0,.169,0,.253.009.159-.072.209-.22.208q-.758-.006-1.517,0c-.148,0-.229-.048-.22-.208,0-.072,0-.144,0-.217q0-3.05,0-6.1c0-.434-.025-.414.411-.413.4,0,.794,0,1.192,0,.273,0,.272.007.28.289q.006.215.015.431C955.065,275.11,955.078,275.118,955.075,275.114Z" transform="translate(-173.292 -41.069)" fill="#707074"/><path d="M873.2,217.3a2.611,2.611,0,0,0-.226.2,2.279,2.279,0,0,1-1.488.794,3.129,3.129,0,0,1-1.661-.184,1.914,1.914,0,0,1-1.172-1.529,5.394,5.394,0,0,1-.076-.891c-.008-1.347,0-2.694,0-4.041,0-.06,0-.12,0-.18.011-.212.019-.228.229-.23.493-.006.987,0,1.48,0h.072c.121,0,.175.06.174.178,0,.084,0,.168,0,.252,0,1.2,0,2.406,0,3.609a2.942,2.942,0,0,0,.137.81.77.77,0,0,0,.512.563,1.544,1.544,0,0,0,1.255-.063,1.334,1.334,0,0,0,.623-1.114c.145-1.124.04-2.255.073-3.382.008-.272.032-.544.048-.816.274-.012.548-.03.822-.036s.529,0,.794,0c.282,0,.286.007.289.28,0,.337,0,.674,0,1.01v5.124c0,.084,0,.168,0,.253,0,.132-.051.2-.19.2q-.758,0-1.516,0a.153.153,0,0,1-.175-.176C873.2,217.739,873.2,217.548,873.2,217.3Z" transform="translate(-123.162 -3.78)" fill="#707074"/><path d="M889.964,211.748a2.314,2.314,0,0,1,.925-.788,2.707,2.707,0,0,1,1.788-.2,4.022,4.022,0,0,1,.886.277,1.631,1.631,0,0,1,.793.943,3.52,3.52,0,0,1,.229,1.229c.013,1.408,0,2.816,0,4.224,0,.048,0,.1,0,.144.011.157-.067.211-.217.21-.493,0-.987,0-1.481,0-.249,0-.255-.009-.256-.275,0-1.215.007-2.431-.007-3.646a3.264,3.264,0,0,0-.133-.845.886.886,0,0,0-.977-.721,2.518,2.518,0,0,0-.5.025,1.149,1.149,0,0,0-.893,1.016,4.382,4.382,0,0,0-.08.855c-.009,1.047,0,2.094,0,3.141,0,.084,0,.169,0,.253,0,.132-.05.2-.189.2-.53,0-1.06,0-1.589,0-.119,0-.178-.055-.176-.175,0-.072,0-.144,0-.216q0-3.032,0-6.065c0-.436-.022-.411.413-.41h1.084c.4,0,.388-.015.386.4C889.964,211.431,889.964,211.546,889.964,211.748Z" transform="translate(-134.725 -3.456)" fill="#707074"/><path d="M1005.142,242.788a3.829,3.829,0,0,1,1.615.2,2.172,2.172,0,0,1,1.418,1.6.75.75,0,0,1,.013.179c0,.227-.016.251-.241.254-.445,0-.891,0-1.336,0a.256.256,0,0,1-.291-.207.956.956,0,0,0-.96-.724,3.49,3.49,0,0,0-.783.064.536.536,0,0,0-.474.477.519.519,0,0,0,.352.535,7.533,7.533,0,0,0,.814.278c.646.177,1.306.308,1.941.518a1.59,1.59,0,0,1,1.153,1.224,2.155,2.155,0,0,1-.468,1.918,2.485,2.485,0,0,1-1.45.808,4.994,4.994,0,0,1-1.206.142,4.3,4.3,0,0,1-2.208-.539,2.143,2.143,0,0,1-.986-1.4c-.007-.035,0-.073-.01-.108-.087-.462-.088-.463.395-.463h1.192c.112,0,.208,0,.233.156a1.15,1.15,0,0,0,1.121.987,1.6,1.6,0,0,0,1.113-.2.588.588,0,0,0,.039-1.068,4.189,4.189,0,0,0-.968-.369c-.552-.159-1.116-.273-1.666-.435a2.121,2.121,0,0,1-.956-.554,1.664,1.664,0,0,1-.4-1.332,2.1,2.1,0,0,1,.089-.42,1.888,1.888,0,0,1,1.279-1.307A3.808,3.808,0,0,1,1005.142,242.788Z" transform="translate(-202.224 -22.469)" fill="#707074"/><path d="M966.781,212.94c-.24,0-.481,0-.722,0a.2.2,0,0,1-.227-.167.888.888,0,0,0-.913-.708,2.414,2.414,0,0,0-.671.015.952.952,0,0,0-.422.173.475.475,0,0,0,.074.83,3.518,3.518,0,0,0,1.049.357,10.33,10.33,0,0,1,1.868.505,1.741,1.741,0,0,1,1.073,2.069,2.451,2.451,0,0,1-.3.839,2.336,2.336,0,0,1-1.5.981,5.427,5.427,0,0,1-2.1.106,3.559,3.559,0,0,1-1.63-.608,2.134,2.134,0,0,1-.854-1.562c-.025-.195.018-.234.218-.236.482-.006.963,0,1.444,0,.121,0,.2.026.218.173a.966.966,0,0,0,.739.837,1.871,1.871,0,0,0,1.294-.01.813.813,0,0,0,.489-.45.5.5,0,0,0-.2-.685,2.361,2.361,0,0,0-.856-.36q-.747-.193-1.5-.359a3.555,3.555,0,0,1-1.048-.462,1.426,1.426,0,0,1-.655-1.139,2.052,2.052,0,0,1,.172-1.054,1.881,1.881,0,0,1,1.06-1.025,5.014,5.014,0,0,1,3.516,0,2.026,2.026,0,0,1,1.312,1.628c.06.316-.035.321-.28.315C967.214,212.935,967,212.94,966.781,212.94Z" transform="translate(-178.23 -3.452)" fill="#707074"/><path d="M917.635,215.725c.119-.376.24-.751.355-1.128.129-.424.246-.852.378-1.274.193-.618.4-1.232.589-1.851a.288.288,0,0,1,.331-.242c.469.014.939,0,1.408.006a2.138,2.138,0,0,1,.263.037c-.029.113-.045.205-.075.293-.674,2-1.334,4.006-2.033,6-.224.638-.064.53-.742.537-.433,0-.867,0-1.3,0-.32,0-.331,0-.445-.307-.1-.269-.18-.546-.273-.819q-.707-2.078-1.416-4.155c-.151-.442-.307-.883-.458-1.326-.022-.065-.031-.135-.05-.221a1.433,1.433,0,0,1,.223-.038c.517,0,1.035,0,1.553,0,.251,0,.258.006.331.239q.644,2.058,1.281,4.118a.977.977,0,0,1,.023.139Z" transform="translate(-150.182 -3.777)" fill="#707074"/><path d="M888.464,243.491c0,.829,0,1.659,0,2.489,0,.295-.006.3-.3.3q-.686,0-1.371,0c-.272,0-.278-.007-.279-.289q0-1.767,0-3.535,0-.667,0-1.334c0-.439.017-.4-.42-.4-.156,0-.313,0-.469,0-.134,0-.2-.055-.2-.193,0-.337,0-.673,0-1.01,0-.123.064-.172.18-.171.216,0,.433,0,.649,0,.244-.006.239-.009.256-.24a5.77,5.77,0,0,1,.075-.747,1.8,1.8,0,0,1,1.446-1.522,3.887,3.887,0,0,1,1.712-.022c.121.023.165.077.164.189,0,.361,0,.721,0,1.082,0,.144-.079.184-.207.182-.2,0-.409-.005-.613,0-.36.008-.47.095-.552.439a2.026,2.026,0,0,0-.067.387c-.01.23.01.247.237.252.277.005.553,0,.83,0,.209,0,.224.019.228.23q.009.451,0,.9c0,.227-.013.235-.256.24s-.505,0-.758,0c-.277,0-.283.007-.284.282C888.462,241.832,888.464,242.661,888.464,243.491Z" transform="translate(-133.149 -18.887)" fill="#707074"/><path d="M991.39,243.817c0-.649,0-1.3,0-1.947,0-.282-.006-.284-.277-.288-.229,0-.457,0-.686,0-.138,0-.193-.064-.191-.2,0-.325,0-.649,0-.974,0-.161.079-.207.224-.2.24,0,.481,0,.721,0,.155,0,.214-.06.212-.214,0-.469,0-.937,0-1.406,0-.438-.015-.406.417-.406.4,0,.794,0,1.191,0,.345,0,.347,0,.348.366,0,.457,0,.913,0,1.37,0,.28.007.283.279.286.289,0,.577,0,.866,0,.208,0,.221.019.225.233q.009.451,0,.9c0,.225-.014.233-.258.237-.288.005-.577,0-.866,0-.237,0-.245.009-.246.246,0,.733,0,1.466,0,2.2,0,.313-.005.625,0,.938a2.476,2.476,0,0,0,.055.352c.037.221.2.29.391.3.213.012.427,0,.641,0,.274,0,.279,0,.282.286,0,.337,0,.673,0,1.01a.213.213,0,0,1-.194.25c-.035.006-.068.033-.1.033a6.778,6.778,0,0,1-2.037-.123,1.424,1.424,0,0,1-1-1.386c0-.012,0-.024,0-.036Z" transform="translate(-195.257 -19.747)" fill="#707074"/><path d="M905.306,243.691c0-.589,0-1.178,0-1.767,0-.341,0-.342-.33-.345q-.289,0-.577,0a.154.154,0,0,1-.178-.174c0-.337,0-.673,0-1.01,0-.139.067-.192.2-.19.181,0,.361,0,.541,0,.341,0,.343,0,.345-.33,0-.409,0-.818,0-1.226,0-.072,0-.144,0-.216.01-.237.013-.246.247-.249q.74-.007,1.48,0c.209,0,.223.018.226.231.005.445,0,.89,0,1.335,0,.084,0,.169,0,.252-.011.161.073.208.22.2.253-.005.505,0,.758,0a.933.933,0,0,1,.251.009c.055.016.133.083.135.13.011.36.008.721.007,1.082,0,.129-.089.154-.2.154-.3,0-.6,0-.9,0-.261,0-.269.007-.269.259,0,.986-.005,1.972,0,2.958a1.908,1.908,0,0,0,.082.529.361.361,0,0,0,.334.286c.188,0,.37.1.565.017a.4.4,0,0,1,.248,0c.054.016.129.086.13.133.011.408.013.817,0,1.226,0,.143-.1.213-.316.219-.337.011-.674,0-1.01.007a3.226,3.226,0,0,1-1.089-.194,1.208,1.208,0,0,1-.831-.994,4.785,4.785,0,0,1-.073-.819C905.3,244.7,905.306,244.2,905.306,243.691Z" transform="translate(-144.287 -19.745)" fill="#707074"/><path d="M990.385,213.57c0,.488,0,.954-.006,1.42a.194.194,0,0,1-.124.141,6.031,6.031,0,0,1-2.133-.086,1.323,1.323,0,0,1-.938-.83,2.445,2.445,0,0,1-.12-.738c-.012-1.166-.005-2.333-.005-3.5,0-.072,0-.144,0-.216-.009-.24-.009-.244-.244-.249-.217-.005-.434,0-.65,0-.138,0-.194-.063-.192-.2,0-.3,0-.6,0-.9,0-.159.071-.212.22-.208.192.005.385,0,.578,0,.286,0,.289-.007.29-.312,0-.457,0-.914,0-1.371,0-.084,0-.168,0-.252a.141.141,0,0,1,.158-.153h1.625c.153,0,.169.1.169.219,0,.457,0,.914,0,1.371,0,.1.005.193,0,.289-.01.154.056.216.211.213.3-.007.6-.005.9,0,.244,0,.253.012.258.237q.008.414,0,.83c0,.225-.014.233-.258.237-.288.005-.578,0-.866,0-.237,0-.245.009-.246.246,0,.926-.007,1.852,0,2.778a4.6,4.6,0,0,0,.077.711.349.349,0,0,0,.33.328c.261.015.524.016.785.02A1.328,1.328,0,0,0,990.385,213.57Z" transform="translate(-192.732 -0.744)" fill="#707074"/><path d="M870.6,273.118v4.255c0,.084,0,.169,0,.253-.011.205-.018.218-.238.22q-.775.007-1.551,0c-.214,0-.222-.017-.233-.225,0-.072,0-.144,0-.216v-8.726c0-.364,0-.365.348-.367q.667,0,1.335,0c.338,0,.341,0,.342.336Q870.6,270.882,870.6,273.118Z" transform="translate(-123.166 -37.6)" fill="#707074"/><path d="M980.234,243.939a3.616,3.616,0,0,1,.937-.841,2.4,2.4,0,0,1,1.522-.308c.105.006.143.073.143.17V244.6c-.242,0-.453.009-.664,0a1.632,1.632,0,0,0-1.78,1.469,5.135,5.135,0,0,0-.079.891c-.011.842,0,1.684,0,2.526,0,.4.016.388-.4.387s-.818,0-1.228,0c-.322,0-.324,0-.327-.314,0-.361,0-.722,0-1.083v-5.088c0-.1,0-.192,0-.288a.14.14,0,0,1,.153-.158l1.553,0c.121,0,.173.061.173.178C980.234,243.387,980.234,243.663,980.234,243.939Z" transform="translate(-188.216 -22.473)" fill="#707074"/><path d="M951.964,212.058c.107-.147.162-.22.215-.3a2.4,2.4,0,0,1,2.064-1.041c.344,0,.39.056.391.4,0,.4,0,.794,0,1.191,0,.242-.008.332-.321.271a2,2,0,0,0-.815,0,1.574,1.574,0,0,0-1.261,1.1,2.44,2.44,0,0,0-.135.81c.006,1,0,2,0,3,0,.3-.005.3-.3.306-.47,0-.939,0-1.409,0-.236,0-.244-.01-.245-.249,0-.674,0-1.348,0-2.021v-4.151c0-.1,0-.193,0-.289a.14.14,0,0,1,.158-.154c.494,0,.987,0,1.481,0,.152,0,.173.1.172.216C951.963,211.424,951.964,211.7,951.964,212.058Z" transform="translate(-171.504 -3.475)" fill="#707074"/><path d="M909.551,214.673v3.03c0,.084,0,.168,0,.252a.141.141,0,0,1-.159.152h-1.624c-.125,0-.169-.07-.168-.183,0-.072,0-.144,0-.216q0-3.03,0-6.06c0-.438-.014-.407.416-.407h1.119c.453,0,.421-.031.421.438Q909.551,213.176,909.551,214.673Z" transform="translate(-146.287 -3.783)" fill="#707074"/><path d="M981.2,214.688v2.994c0,.084,0,.168,0,.252,0,.121-.059.174-.177.174-.18,0-.361,0-.542,0-.325,0-.65,0-.975,0-.249,0-.255-.012-.26-.272,0-.18,0-.361,0-.541V211.7c0-.084,0-.168,0-.252-.009-.156.065-.213.216-.212.505,0,1.01,0,1.516,0,.207,0,.22.017.222.235.006.421,0,.842,0,1.262Z" transform="translate(-188.743 -3.782)" fill="#707074"/><path d="M908.551,206.453c-.24,0-.48,0-.72,0-.22-.005-.234-.015-.238-.22q-.01-.576,0-1.152c0-.2.018-.217.238-.22q.738-.007,1.477,0c.22,0,.233.014.237.22q.01.576,0,1.152c0,.2-.018.215-.237.22C909.056,206.458,908.8,206.453,908.551,206.453Z" transform="translate(-146.284)" fill="#707074"/><path d="M980.218,206.455c-.252,0-.5,0-.756,0-.146,0-.223-.046-.221-.206q.007-.594,0-1.188c0-.162.081-.2.224-.2.5,0,1.008,0,1.512,0,.2,0,.215.016.218.238q.008.558,0,1.116c0,.224-.014.232-.257.237S980.458,206.455,980.218,206.455Z" transform="translate(-188.743 -0.002)" fill="#707074"/></g></svg>