<?xml version="1.0" encoding="utf-8"?>
<!-- Generator: Adobe Illustrator 25.4.6, SVG Export Plug-In . SVG Version: 6.00 Build 0)  -->
<svg version="1.1"
	 id="svg4155" xmlns:cc="http://creativecommons.org/ns#" xmlns:dc="http://purl.org/dc/elements/1.1/" xmlns:rdf="http://www.w3.org/1999/02/22-rdf-syntax-ns#" xmlns:svg="http://www.w3.org/2000/svg"
	 xmlns="http://www.w3.org/2000/svg" xmlns:xlink="http://www.w3.org/1999/xlink" x="0px" y="0px" viewBox="0 0 354.3 67.7"
	 style="enable-background:new 0 0 354.3 67.7;" xml:space="preserve">
<style type="text/css">
	.st0{fill:#707074;}
	.st1{fill-rule:evenodd;clip-rule:evenodd;fill:#707074;}
</style>
<g id="g4163" transform="matrix(1.25,0,0,-1.25,-38.308125,106.02925)">
	<g id="g4165" transform="scale(0.1,0.1)">
		<path id="path4167" class="st0" d="M1435.6,609.9c0,0,0-21.1,0-31.1c2.9,5.7,22.1,38.2,60.5,38.2h11.9v-53.6h-12.2
			c-35.3,0-54.8-26-54.8-58.3V385.8h-62.9v224.1L1435.6,609.9"/>
		<path id="path4169" class="st0" d="M2093.3,582.7v27.2h57.5V306.5h-63.1v79.3h-65.2c-66.2,0-117.8,51.7-117.8,115.6
			c0,66,54.1,115.7,114.2,115.7C2067.9,617,2093.3,582.7,2093.3,582.7L2093.3,582.7z M2087.7,500.8c0,34-28.1,61.4-62.5,61.4
			c-33.9,0-61.5-25.9-62.5-59.5c-1-34.3,26.2-63.2,62.5-63.2l62.5,0V500.8"/>
		<path id="path4171" class="st1" d="M1315.6,692.2v-53.8h-62.9v53.8H1315.6z M1315.6,609.9V385.8h-62.9v224.1H1315.6"/>
		<path id="path4173" class="st0" d="M1120.8,385.8V487h-113.2V385.8h-63.7l0.1,178.2c0,70.7,60.9,128.2,136.3,128.2h104.3V385.8
			C1184.5,385.8,1120.8,385.8,1120.8,385.8z M1080.2,638.4c-40.1,0-72.6-30.6-72.6-68.5v-32h113.2l0,100.5L1080.2,638.4"/>
		<path id="path4175" class="st1" d="M1859.9,609.9V385.8H1797v224.1H1859.9z M1859.9,692.2v-53.8H1797v53.8H1859.9"/>
		<path id="path4177" class="st1" d="M2556.3,609.9V385.8h-62.9v224.1H2556.3z M2556.3,692.2v-53.8h-62.9v53.8H2556.3"/>
		<path id="path4179" class="st1" d="M2206.3,609.9h62.9V484.6c0-34.1,25.1-52.3,49.6-52.3c23.6,0,51,15.6,51,52.3v125.3h62.9V385.7
			h-57.5v27.1l-1-1.1c-18.3-20.8-44-33.2-73.7-33.2c-48.3,0-94.2,39.5-94.2,96.8L2206.3,609.9"/>
		<path id="path4181" class="st0" d="M1673.3,692.2V439.5h82v-53.6l-145.8-0.1v306.5H1673.3"/>
		<path id="path4183" class="st0" d="M2789.6,413v-27.2h57.5v306.4H2784v-82.3h-65.2c-66.2,0-117.7-51.7-117.7-115.6
			c0-66,54-115.7,114.2-115.7C2764.2,378.7,2789.6,413,2789.6,413z M2784,494.8c0-34-28.1-61.3-62.5-61.3
			c-33.9,0-61.5,25.8-62.5,59.5c-1,34.3,26.2,63.2,62.5,63.2l62.5,0V494.8"/>
		<path id="path4185" class="st0" d="M3018.7,378.6c-70,0-126.8,53.4-126.8,119.2c0,65.8,56.7,119.2,126.7,119.2
			c70,0,122.5-53.4,122.5-119.2c0-6.5-0.2-12.8-1.1-20.2l-187.8,0c9.4-27.8,34.1-47.7,66.4-47.7c29.8,0,48.1,9.2,63.1,26.7
			l45.3-29.4C3102.4,397.3,3064.7,378.6,3018.7,378.6L3018.7,378.6z M2952.4,518.5h128.4c-9.1,27.8-30.1,47.2-62.2,47.2
			C2986.4,565.7,2961.5,545.9,2952.4,518.5"/>
		<path id="path4187" class="st0" d="M577,692.2c63.3,0,114.6-51.3,114.6-114.6V463.1H577c-63.3,0-114.6,51.3-114.6,114.6
			C462.4,640.9,513.7,692.2,577,692.2z M768.9,385.8H577c-106,0-191.9,85.9-191.9,191.9c0,106,85.9,191.9,191.9,191.9
			c106,0,191.9-85.9,191.9-191.9V385.8L768.9,385.8z M577.4,848.2H306.5V577.3c0-149.6,121.3-270.9,270.9-270.9
			c149.6,0,270.9,121.2,270.9,270.9C848.3,726.9,727,848.2,577.4,848.2"/>
	</g>
</g>
</svg>
