<?xml version="1.0" encoding="utf-8"?>
<!-- Generator: Adobe Illustrator 25.4.1, SVG Export Plug-In . SVG Version: 6.00 Build 0)  -->
<svg version="1.1"
	 id="svg2" inkscape:version="0.47 r22583" xmlns:cc="http://creativecommons.org/ns#" xmlns:dc="http://purl.org/dc/elements/1.1/" xmlns:inkscape="http://www.inkscape.org/namespaces/inkscape" xmlns:rdf="http://www.w3.org/1999/02/22-rdf-syntax-ns#" xmlns:sodipodi="http://sodipodi.sourceforge.net/DTD/sodipodi-0.dtd" xmlns:svg="http://www.w3.org/2000/svg"
	 xmlns="http://www.w3.org/2000/svg" xmlns:xlink="http://www.w3.org/1999/xlink" x="0px" y="0px" viewBox="0 0 194.6 38.3"
	 style="enable-background:new 0 0 194.6 38.3;" xml:space="preserve">
<style type="text/css">
	.st0{fill-rule:evenodd;clip-rule:evenodd;fill:#9DA1B2;}
</style>
<sodipodi:namedview  bordercolor="#666666" borderopacity="1" gridtolerance="10" guidetolerance="10" id="namedview20" inkscape:current-layer="svg2" inkscape:cx="52.777778" inkscape:cy="26" inkscape:pageopacity="0" inkscape:pageshadow="2" inkscape:window-height="1004" inkscape:window-maximized="1" inkscape:window-width="1280" inkscape:window-x="-8" inkscape:window-y="-8" inkscape:zoom="2.16" objecttolerance="10" pagecolor="#ffffff" showgrid="false">
	</sodipodi:namedview>
<defs>
	
		<inkscape:perspective  id="perspective24" inkscape:persp3d-origin="125 : 17.333333 : 1" inkscape:vp_x="0 : 26 : 1" inkscape:vp_y="0 : 1000 : 0" inkscape:vp_z="250 : 26 : 1" sodipodi:type="inkscape:persp3d">
		</inkscape:perspective>
</defs>
<g id="layer1" transform="translate(-173.76543,-272.64083)">
	<g id="g2420" transform="matrix(1.0806398,0,0,1.0806398,-170.89662,249.83272)">
		<path id="path2384" class="st0" d="M471.5,48l13.4-18.4h6.4L477.8,48H471.5z M463.7,21.1h35.4v35.4h-35.4V21.1z M468.6,26.1v25.5
			h25.4V26.1H468.6L468.6,26.1z"/>
		<g id="g2386">
			<path id="path2388" class="st0" d="M326.8,43.7l-0.7-0.4l-0.7-0.3l-0.8-0.2l-0.8-0.1h-3v11.9h2.6l1.1-0.1l0.9-0.2l0.8-0.3
				l0.7-0.4l0.6-0.5l0.5-0.7l0.3-0.8l0.3-0.9l0.1-1l0.1-1.1l-0.1-0.9l-0.1-0.9l-0.3-0.9l-0.3-0.8l-0.6-0.8L326.8,43.7z M324.8,56.2
				l-1.2,0.1h-4.6V41.3h4.2l1,0.1l1.1,0.1l1,0.2l1,0.3l1,0.5l0.7,0.7l0.6,0.7l0.5,0.9l0.4,0.9l0.2,1l0.2,1.1l0,1.1l0,1.2l-0.2,1.1
				l-0.3,1l-0.4,0.9l-0.6,0.8l-0.6,0.7l-0.8,0.6l-0.9,0.5L326,56L324.8,56.2z"/>
			<path id="path2390" class="st0" d="M336.8,46.9l-0.7,0.1l-0.6,0.3l-0.5,0.4l-0.4,0.5l-0.3,0.6l-0.2,0.7l-0.1,0.7h5.6l-0.1-0.7
				l-0.1-0.7l-0.3-0.6l-0.4-0.5l-0.5-0.4l-0.6-0.3L336.8,46.9z M333.9,51.5v0.2l0,0.7l0.2,0.6l0.2,0.6l0.3,0.6l0.5,0.4l0.5,0.4
				l0.6,0.2l0.7,0.1l0.7-0.1l0.6-0.2l0.5-0.3l0.4-0.5l0.3-0.6l0.2-0.7h1.7l-0.3,1l-0.4,0.8l-0.6,0.6l-0.6,0.5l-0.8,0.4l-0.9,0.2
				l-0.9,0.1l-1-0.1l-0.9-0.2l-0.8-0.4l-0.6-0.5l-0.5-0.6l-0.4-0.7l-0.3-0.8l-0.2-0.9l-0.1-1l0.1-1l0.2-0.9l0.3-0.9l0.4-0.7l0.5-0.7
				l0.7-0.6L335,46l0.9-0.2l1-0.1l1,0.1l0.8,0.2l0.7,0.4l0.6,0.5l0.4,0.6l0.4,0.7l0.3,0.7l0.1,0.8l0.1,0.9l0,0.9L333.9,51.5
				L333.9,51.5z"/>
			<polygon id="polygon2392" class="st0" points="350,56.3 349.9,54.7 349.4,55.3 348.8,55.8 348.2,56.1 347.5,56.4 346.6,56.4 
				345.7,56.4 345,56.1 344.4,55.8 343.9,55.4 343.5,54.8 343.3,54.1 343.1,53.3 343,52.4 343,45.9 344.8,45.9 344.8,52.3 
				344.9,52.8 344.9,53.4 345.1,53.8 345.3,54.2 345.6,54.6 346,54.8 346.5,55 347.1,55 347.9,55 348.5,54.8 348.9,54.4 349.3,53.9 
				349.6,53.4 349.8,52.8 349.8,52.1 349.9,51.4 349.9,45.9 351.6,45.9 351.6,53.6 351.7,56.3 			"/>
			<polygon id="polygon2394" class="st0" points="357.4,56.4 356.7,56.4 356.1,56.2 355.6,55.9 355.2,55.4 355,54.8 354.9,54 
				354.9,47.2 353,47.2 353,45.9 354.9,45.9 354.9,43.9 356.7,43.1 356.7,45.9 358.9,45.9 358.9,47.2 356.7,47.2 356.7,53.8 
				356.8,54.2 356.9,54.6 357.2,54.8 357.5,55 358.1,55 359,54.9 359,56.3 358.2,56.4 			"/>
			<polygon id="polygon2396" class="st0" points="363.9,56.5 363.1,56.5 362.4,56.4 361.7,56.1 361.1,55.8 360.6,55.3 360.3,54.7 
				360,54 360,53.1 361.7,53.1 361.8,53.8 362,54.3 362.3,54.7 362.8,55 363.3,55.2 364,55.3 364.5,55.2 365.1,55.1 365.5,54.9 
				365.9,54.5 366.2,54.1 366.2,53.5 366.2,53.1 366,52.6 365.7,52.4 365.3,52.1 364.7,51.9 363.9,51.6 363.2,51.5 362.7,51.3 
				362.1,51.1 361.6,50.9 361.2,50.6 360.8,50.2 360.5,49.8 360.3,49.3 360.2,48.6 360.3,47.9 360.6,47.3 361,46.7 361.5,46.4 
				362.1,46 362.7,45.8 363.4,45.7 364.1,45.6 364.8,45.7 365.5,45.8 366.1,46 366.6,46.4 367.1,46.8 367.4,47.3 367.7,48 
				367.7,48.8 366,48.8 365.9,48.2 365.6,47.6 365.2,47.3 364.7,47 364,46.9 363.5,46.9 363,47.1 362.6,47.3 362.3,47.5 362,47.9 
				361.9,48.4 362,48.9 362.2,49.2 362.5,49.5 362.8,49.7 363.6,50 364.3,50.2 365,50.4 365.5,50.6 366.1,50.8 366.6,51 367,51.3 
				367.4,51.6 367.7,52.1 367.9,52.6 368,53.3 367.9,54 367.7,54.6 367.3,55.2 366.9,55.6 366.4,56 365.8,56.2 365.2,56.4 
				364.6,56.5 			"/>
			<polygon id="polygon2398" class="st0" points="374.1,56.5 373.1,56.4 372.2,56.2 371.4,55.8 370.7,55.4 370.2,54.7 369.7,54 
				369.4,53.1 369.3,52.2 369.2,51.2 369.3,50.2 369.4,49.2 369.7,48.3 370.2,47.5 370.7,46.9 371.4,46.3 372.2,45.9 373.1,45.6 
				374.2,45.6 375,45.6 375.8,45.8 376.4,46.1 377,46.5 377.5,47 377.9,47.6 378.2,48.4 378.3,49.2 376.5,49.2 376.4,48.5 
				376.2,47.9 375.9,47.5 375.4,47.2 374.9,47 374.2,46.9 373.4,47 372.8,47.2 372.3,47.5 371.9,47.9 371.5,48.5 371.3,49.1 
				371.1,49.7 371.1,50.4 371,51.1 371.1,51.8 371.1,52.4 371.3,53.1 371.6,53.7 371.9,54.2 372.3,54.6 372.8,55 373.4,55.2 
				374.1,55.3 374.8,55.2 375.4,54.9 375.9,54.6 376.2,54.1 376.5,53.5 376.6,52.8 378.4,52.8 378.2,53.7 377.9,54.5 377.5,55.1 
				377,55.6 376.4,56 375.7,56.3 374.9,56.5 			"/>
			<polygon id="polygon2400" class="st0" points="386.9,56.3 386.9,49.9 386.9,49.3 386.8,48.8 386.6,48.3 386.4,47.9 386.1,47.6 
				385.7,47.3 385.2,47.1 384.6,47.1 383.9,47.2 383.3,47.4 382.8,47.8 382.5,48.2 382.2,48.8 382,49.4 381.9,50.1 381.8,50.8 
				381.8,56.3 380.1,56.3 380.1,41.3 381.8,41.3 381.8,47.5 382.3,46.8 382.9,46.3 383.5,46 384.2,45.8 385.1,45.7 386,45.8 
				386.7,46 387.3,46.3 387.8,46.8 388.2,47.4 388.4,48 388.6,48.9 388.6,49.8 388.6,56.3 			"/>
			<path id="path2402" class="st0" d="M395.2,46.9l-0.7,0.1l-0.6,0.3l-0.5,0.4l-0.4,0.5l-0.3,0.6l-0.2,0.7l-0.1,0.7h5.5l-0.1-0.7
				l-0.1-0.7l-0.2-0.6l-0.4-0.5l-0.5-0.4L396,47L395.2,46.9z M392.3,51.5v0.2l0,0.7l0.2,0.6l0.2,0.6l0.3,0.6l0.4,0.4L394,55l0.6,0.2
				l0.7,0.1l0.7-0.1l0.6-0.2l0.5-0.3l0.4-0.5l0.3-0.6l0.2-0.7h1.6l-0.2,1l-0.4,0.8l-0.5,0.6l-0.6,0.5l-0.8,0.4l-0.8,0.2l-1,0.1
				l-1-0.1l-0.8-0.2l-0.7-0.4l-0.6-0.5l-0.5-0.6l-0.4-0.7l-0.3-0.8l-0.2-0.9l-0.1-1l0.1-1l0.2-0.9l0.3-0.9l0.4-0.7L392,47l0.7-0.6
				l0.8-0.4l0.9-0.2l1-0.1l1,0.1L397,46l0.7,0.4l0.6,0.5l0.4,0.6l0.4,0.7l0.3,0.7l0.1,0.8l0.1,0.9l0.1,0.9L392.3,51.5L392.3,51.5z"
				/>
			<path id="path2404" class="st0" d="M411.2,49.3h-3.1v5.5h3l0.6,0l0.6-0.1l0.5-0.1l0.5-0.1l0.4-0.3l0.4-0.4l0.3-0.4l0.1-0.5
				l0.1-0.7l-0.1-0.7l-0.2-0.6l-0.3-0.5l-0.4-0.4l-0.5-0.2l-0.6-0.2l-0.7-0.1L411.2,49.3z M411.2,42.9h-3.1v5h2.8l0.6,0l0.6-0.1
				l0.5-0.2l0.5-0.3l0.3-0.3l0.3-0.4l0.2-0.6l0.1-0.6l-0.1-0.7l-0.2-0.6l-0.3-0.4l-0.4-0.3l-0.5-0.3l-0.6-0.1L411.2,42.9z
				 M411.1,56.3h-4.9V41.3h5.1l0.8,0.1l0.7,0.1l0.7,0.2l0.6,0.3l0.6,0.4l0.5,0.5l0.4,0.6l0.2,0.7l0.1,0.8l-0.1,0.9l-0.2,0.7
				l-0.4,0.6l-0.6,0.5l-0.7,0.4l-0.8,0.3l0.8,0.2l0.7,0.3l0.6,0.4l0.5,0.5l0.4,0.6l0.2,0.8l0.1,0.9l-0.1,0.9l-0.2,0.8l-0.4,0.6
				l-0.5,0.5l-0.5,0.4l-0.7,0.3l-0.7,0.2l-0.7,0.1l-0.8,0.1L411.1,56.3z"/>
			<path id="path2406" class="st0" d="M423.7,51h-0.5l-0.5,0.1l-0.6,0l-0.6,0.1l-0.5,0.2l-0.5,0.2l-0.4,0.3l-0.3,0.4l-0.2,0.5
				l-0.1,0.6l0.1,0.6l0.2,0.5l0.4,0.4l0.5,0.2l0.5,0.2l0.6,0l0.7,0l0.6-0.2l0.4-0.2l0.4-0.4l0.2-0.5l0.2-0.5l0.1-0.6l0.1-0.6l0-0.6
				v-0.7h-0.3L424,51L423.7,51L423.7,51z M424.9,56.3l-0.2-1.5l-0.6,0.6l-0.6,0.5l-0.7,0.3l-0.7,0.2l-0.8,0l-0.7,0l-0.7-0.2
				l-0.6-0.2l-0.5-0.3l-0.4-0.4l-0.4-0.5l-0.2-0.7l-0.1-0.7l0.1-0.8l0.2-0.7l0.3-0.5l0.4-0.4l0.6-0.4l0.6-0.3l0.7-0.2l0.7-0.1
				l0.7-0.1l0.7,0h0.7l0.5,0h0.5v-0.6l0-0.7l-0.1-0.5l-0.2-0.4l-0.3-0.4l-0.4-0.3l-0.5-0.2l-0.7,0l-0.5,0l-0.5,0.1l-0.3,0.3
				l-0.3,0.4l-0.2,0.4l-0.1,0.6h-1.7l0.1-0.8l0.3-0.7l0.4-0.5l0.5-0.4l0.6-0.3l0.6-0.2l0.7-0.1l0.7-0.1l0.9,0.1l0.8,0.2l0.6,0.2
				l0.5,0.4l0.4,0.5l0.3,0.7l0.1,0.8l0.1,1v3.9l0.1,1l0.1,0.9l0.1,0.7l0.1,0.5L424.9,56.3L424.9,56.3z"/>
			<polygon id="polygon2408" class="st0" points="435.4,56.3 435.4,49.9 435.4,49.4 435.3,48.8 435.2,48.4 435,48 434.7,47.6 
				434.3,47.3 433.8,47.2 433.1,47.1 432.5,47.2 431.9,47.4 431.4,47.8 431.1,48.2 430.8,48.7 430.6,49.2 430.4,49.8 430.4,50.5 
				430.4,51.1 430.4,56.3 428.6,56.3 428.6,47.9 428.6,47.1 428.6,46.4 428.5,45.9 430.3,45.9 430.3,47.5 430.8,46.9 431.4,46.4 
				432.1,46 432.8,45.8 433.6,45.7 434.5,45.8 435.3,46 435.9,46.4 436.4,46.8 436.8,47.4 437.1,48.1 437.2,48.9 437.3,49.8 
				437.3,56.3 			"/>
			<path id="path2410" class="st0" d="M446.4,56.3l-4.9-5.9l4.5-4.6h2.2l-4.7,4.5l5.1,5.9L446.4,56.3L446.4,56.3z M439.7,56.3V41.3
				h1.7v14.9H439.7z"/>
		</g>
	</g>
</g>
</svg>
