<svg xmlns="http://www.w3.org/2000/svg" width="33.406" height="27.132" viewBox="0 0 33.406 27.132"><path d="M29.972,8.264c.021.3.021.594.021.89,0,9.051-6.889,19.48-19.48,19.48A19.348,19.348,0,0,1,0,25.561a14.164,14.164,0,0,0,1.653.085,13.712,13.712,0,0,0,8.5-2.925,6.859,6.859,0,0,1-6.4-4.748,8.634,8.634,0,0,0,1.293.106,7.241,7.241,0,0,0,1.8-.233,6.848,6.848,0,0,1-5.49-6.719v-.085a6.9,6.9,0,0,0,3.095.869,6.857,6.857,0,0,1-2.12-9.157A19.461,19.461,0,0,0,16.449,9.918a7.729,7.729,0,0,1-.17-1.569A6.853,6.853,0,0,1,28.128,3.665a13.48,13.48,0,0,0,4.345-1.653,6.828,6.828,0,0,1-3.01,3.773,13.725,13.725,0,0,0,3.943-1.06,14.717,14.717,0,0,1-3.434,3.54Z" transform="translate(0 -1.502)" fill="#ebebeb"/></svg>