<svg xmlns="http://www.w3.org/2000/svg" width="163" height="26.69" viewBox="0 0 163 26.69"><g transform="translate(-64.486 -91.995)"><g transform="translate(64.486 91.995)"><path d="M64.311,45.874l-.066.171a6.765,6.765,0,0,1,3.581,6.29,7.6,7.6,0,0,1-7.918,7.333c-6.02,0-8.095-3.52-8.095-6.754,0-4.144,2.9-6.9,2.9-10.677a5.9,5.9,0,0,0-4.646-5.695l-.1.171a4.889,4.889,0,0,1,1.484,3.537c0,4.078-3.438,6.975-3.438,11.654,0,4.31,3.013,8.7,11.737,8.7,7.775,0,11.875-3.807,11.875-7.858-.006-3.476-2.494-6.417-7.311-6.875Z" transform="translate(-48.011 -33.917)" fill="#707074"/><path d="M103.521,58.51,93.186,45.184V57.2l2.108.5v.552H90.488V57.7l1.722-.5V44.108a3.675,3.675,0,0,0-1.473-.839c-.21-.044-.491-.094-.491-.094v-.552h4.078L103.151,54.1V43.689l-2.108-.508V42.63h4.806v.552l-1.722.508V55.6c0,1.1.077,2.709.094,2.913Zm21.608-8.487c0,5.518-3.863,8.718-8.084,8.718a8.308,8.308,0,0,1-.039-16.609,7.863,7.863,0,0,1,8.122,7.9Zm-2.687.828c0-4.056-2.428-7.99-5.728-7.99-3.509,0-5.093,3.394-5.093,7.024s2,8.133,5.772,8.133C120.936,58.019,122.442,54.432,122.442,50.851Zm6.026-7.173-1.655-.508v-.552h6.34v.552l-1.986.508,4.376,11.93,4.376-11.93-1.986-.508v-.552h4.69v.552l-1.655.508-5.479,14.871h-1.4Zm37.467,6.594h-1V43.441c3.311,0,5.281.761,5.281,3.465C170.194,48.915,168.473,50.272,165.934,50.272ZM194.3,57.7l2.207-.5V43.684l-2.207-.508v-.552h6.881v.552l-2.207.508V57.2l2.207.5v.552H194.3Zm11.1-3.741h.436l1.462,3.366a6.55,6.55,0,0,0,2.8.7c1.9,0,3.631-1.1,3.631-3.079,0-1.5-.971-2.395-2.544-3.217l-1.556-.806c-1.86-.966-3.719-2.334-3.719-4.536,0-2.395,1.655-4.243,5.2-4.243a12.217,12.217,0,0,1,3.664.6l.37,3.62h-.469l-1.352-2.9a4.7,4.7,0,0,0-2.29-.6,2.719,2.719,0,0,0-3.013,2.632c0,1.385.921,2.257,2.5,3.073l1.843.96c2.516,1.3,3.708,2.511,3.708,4.745,0,2.759-2.588,4.475-5.8,4.475a13.85,13.85,0,0,1-4.464-.668ZM141.611,57.7l1.771-.5,5.468-14.584,1.826-.469,5.645,15.047,1.771.508v.552h-6.7V57.7l2.268-.508-1.6-4.326h-6.015l-1.589,4.326,2.268.5v.552h-5.115Zm4.856-5.987h5.2l-2.582-6.975Zm22.624-1.1c.552-.138,3.647-.927,3.647-3.863,0-2.356-1.8-4.183-6.252-4.183-2.759,0-5.518.061-5.866.072v.552l1.815.508v13.5l-1.815.508v.552h6.423V57.7l-2.108-.508v-6.1h1.815l4.641,7.173H175.5V57.71l-2.08-.552Zm13.563-7.173V57.2l-2.207.5v.552h6.881V57.7l-2.207-.5V43.441h3.714l1.225,2.638h.475l-.353-3.438H177.594l-.353,3.438h.475l1.214-2.61ZM64.907,53.367l2.207-20.852h-4.58l2.207,20.852Z" transform="translate(-53.065 -32.515)" fill="#707074"/></g></g></svg>