<?xml version="1.0" encoding="UTF-8"?>
<svg id="Layer_1" xmlns="http://www.w3.org/2000/svg" version="1.1" xmlns:xlink="http://www.w3.org/1999/xlink" viewBox="0 0 198 43">
  <!-- Generator: Adobe Illustrator 29.1.0, SVG Export Plug-In . SVG Version: 2.1.0 Build 142)  -->
  <defs>
    <style>
      .st0 {
        mask: url(#mask-1);
      }

      .st1, .st2 {
        fill: #fff;
      }

      .st3 {
        mask: url(#mask);
      }

      .st2 {
        fill-rule: evenodd;
      }

      .st4 {
        fill: #707074;
      }
    </style>
    <mask id="mask" x=".7" y=".7" width="41.4" height="41.4" maskUnits="userSpaceOnUse">
      <g id="c">
        <path id="a" class="st2" d="M.7,21.4c0,11.4,9.2,20.6,20.5,20.7h.4c11.4,0,20.5-9.3,20.5-20.7S32.9.7,21.5.7.7,10,.7,21.4"/>
      </g>
    </mask>
    <mask id="mask-1" x="188" y="15" width="9.3" height="13" maskUnits="userSpaceOnUse">
      <g id="e">
        <path id="d" class="st2" d="M188,15h9.3v13h-9.3v-13Z"/>
      </g>
    </mask>
  </defs>
  <g class="st3">
    <path class="st4" d="M42.2.7H.7v41.4h41.4V.7Z"/>
  </g>
  <path class="st1" d="M16.1,10.7v21.5l18.6-10.8s-18.6-10.8-18.6-10.8ZM17.9,13.8l13.3,7.7-13.3,7.7v-15.3Z"/>
  <path class="st1" d="M11.8,13l14.6,8.4-14.6,8.4s0-16.8,0-16.8ZM13.6,16.1v10.6l9.2-5.3s-9.2-5.3-9.2-5.3Z"/>
  <path class="st4" d="M53.4,15.8h4.4c2.6,0,4.3,1.5,4.3,3.8h0c0,2.5-2,3.9-4.5,3.9h-2.2v3.6h-2v-11.2ZM57.7,21.7c1.5,0,2.4-.8,2.4-2h0c0-1.3-.9-2-2.4-2h-2.3v4h2.3ZM67,15.8h2v9.4h5.9v1.8h-7.9v-11.2ZM79.3,22.3v-6.5h2v6.4c0,2.1,1.1,3.2,2.8,3.2s2.8-1.1,2.8-3.1v-6.5h2v6.4c0,3.4-1.9,5-4.8,5s-4.8-1.7-4.8-4.9h0ZM94.5,15.8h5c1.4,0,2.5.4,3.2,1.1.6.6.9,1.4.9,2.4h0c0,1.9-1.1,3-2.7,3.4l3,4.2h-2.3l-2.8-3.9h-2.5v3.9h-2v-11.2s0,0,0,0ZM99.4,21.4c1.4,0,2.3-.7,2.3-1.9h0c0-1.2-.9-1.9-2.3-1.9h-2.9v3.8h2.9ZM113,15.7h1.8l4.9,11.3h-2.1l-1.1-2.7h-5.3l-1.2,2.7h-2l4.9-11.3s0,0,0,0ZM115.8,22.6l-1.9-4.5-1.9,4.5h3.9ZM124.5,15.8h2v9.4h5.9v1.8h-7.9v-11.2ZM136.6,25.4l1.2-1.4c1.1.9,2.1,1.5,3.5,1.5s2-.6,2-1.4h0c0-.8-.4-1.3-2.5-1.7-2.4-.6-3.7-1.3-3.7-3.4h0c0-2,1.6-3.3,3.8-3.3s2.9.5,4.1,1.4l-1.1,1.5c-1-.8-2-1.2-3-1.2s-1.8.6-1.8,1.3h0c0,.9.5,1.3,2.7,1.8,2.4.6,3.6,1.4,3.6,3.3h0c0,2.1-1.7,3.4-4,3.4s-3.3-.6-4.7-1.8ZM150.6,15.8h2v11.2h-2v-11.2ZM157.9,21.5h0c0-3.2,2.4-5.8,5.8-5.8s3.2.5,4.3,1.5l-1.3,1.5c-.9-.7-1.7-1.2-3.1-1.2-2.1,0-3.6,1.8-3.6,4h0c0,2.3,1.5,4,3.8,4s2-.3,2.7-.9v-2.1h-2.9v-1.7h4.8v4.7c-1.1.9-2.7,1.7-4.7,1.7-3.5,0-5.8-2.5-5.8-5.8h0ZM173.9,15.8h2v4.7h5.4v-4.7h2v11.2h-2v-4.7h-5.4v4.7h-2v-11.2Z"/>
  <g class="st0">
    <path class="st4" d="M188.1,15.8v1.8h3.6v9.4h2v-9.4h3.6v-1.8h-9.1Z"/>
  </g>
</svg>