<svg xmlns="http://www.w3.org/2000/svg" width="120.73396" height="57.70565" viewBox="0 0 120.73396 57.70565"><defs><style>.cls-1{fill:none;}.cls-2{fill:#fff;}.cls-3{clip-path:url(#clip-path);}.cls-4{clip-path:url(#clip-path-2);}.cls-5{fill:url(#linear-gradient);}.cls-6{fill:#9da1b2;}</style><clipPath id="clip-path"><path class="cls-1" d="M79.303.5V57.192h25.2a15.4479,15.4479,0,0,0,15.44934-15.448h0a15.44729,15.44729,0,0,0-14.5-15.41733h0a14.15615,14.15615,0,0,0,6.10934-11.65334h0A14.17239,14.17239,0,0,0,97.395.5H79.303Z"/></clipPath><clipPath id="clip-path-2"><rect class="cls-1" x="79.30377" y="0.49917" width="40.64876" height="56.6928"/></clipPath><linearGradient id="linear-gradient" x1="-598.89502" y1="422.70875" x2="-597.89501" y2="422.70875" gradientTransform="translate(24423.66688 -17153.75759) scale(40.6488)" gradientUnits="userSpaceOnUse"><stop offset="0" stop-color="#797f84"/><stop offset="0.14039" stop-color="#797f84"/><stop offset="0.24" stop-color="#f5fcfe"/><stop offset="0.75897" stop-color="#515458"/><stop offset="1" stop-color="#515458"/></linearGradient></defs><g id="g15727"><g id="g13142"><path id="path13144" class="cls-2" d="M79.32414,57.13533V26.326l26.092.05734a15.39057,15.39057,0,0,1-.948,30.752Z"/></g><g id="g13188"><path id="path13190" class="cls-2" d="M79.32414.55585H97.35747a14.11438,14.11438,0,0,1,8.04,25.71333l-26.07334.73867Z"/></g><g id="g13192"><g class="cls-3"><g id="g13194"><g id="g13200"><g id="g13202"><g class="cls-4"><g id="g13204"><path id="path13222" class="cls-5" d="M79.303.5V57.192h25.2a15.4479,15.4479,0,0,0,15.44934-15.448h0a15.44729,15.44729,0,0,0-14.5-15.41733h0a14.15615,14.15615,0,0,0,6.10934-11.65334h0A14.17239,14.17239,0,0,0,97.395.5H79.303Z"/></g></g></g></g></g></g></g><g id="g15680"><path id="path13348" class="cls-6" d="M48.59623,20.90536h.96151v-9.352h-.96151Z"/><path id="path13360" class="cls-6" d="M44.40881,21.019c-.89067,0-2.96267-.32654-2.96267-3.356,0-3.016,2.072-3.34267,2.96267-3.34267.88666,0,2.95066.32654,2.95066,3.34267,0,3.02935-2.064,3.356-2.95066,3.356m0-5.87334c-.74267,0-1.988.32654-1.988,2.51734,0,1.16.34935,2.544,2.01334,2.544.728,0,1.94933-.33069,1.94933-2.544,0-1.148-.34265-2.51734-1.97466-2.51734"/><path id="path13364" class="cls-6" d="M39.72281,20.90559l-2.09734-3.98668H35.08281v3.98668h-1V12.43227a.84374.84374,0,0,1,.95333-.87867h2.81334a2.52076,2.52076,0,0,1,2.62266,2.63862,2.55457,2.55457,0,0,1-1.82,2.55067l2.184,4.16264Zm-2.07467-4.92534a1.71066,1.71066,0,0,0,1.82534-1.788,1.60632,1.60632,0,0,0-1.73734-1.72534H35.08281v3.51331Z"/><path id="path13368" class="cls-6" d="M61.75254,20.90559v-3.796c0-1.564-.96-1.776-1.9-1.776l-.16932.00132c-.928,0-1.03467.11869-1.092.18144a.57246.57246,0,0,0-.112.39331v4.996h-.96134V15.639a1.09366,1.09366,0,0,1,.544-.996,3.49617,3.49617,0,0,1,1.492-.22146l.48934.00381c1.82933.05594,2.68267.90935,2.68267,2.68268v3.796Z"/><path id="path13372" class="cls-6" d="M53.38107,20.90559c-1.78267,0-2.648-.64534-2.648-1.972a2.015,2.015,0,0,1,2.25867-1.93336,3.78545,3.78545,0,0,1,2.11067.55335l.00267.00266V16.6456c0-1.208-.756-1.37338-1.57334-1.37338a4.31649,4.31649,0,0,0-2.164.56132l-.08534.05063-.336-.83738.05866-.03778a4.829,4.829,0,0,1,2.552-.688c1.64,0,2.47333.744,2.47333,2.20938v3.228a1.00545,1.00545,0,0,1-.50933.88669,2.73,2.73,0,0,1-1.39867.25854Zm-.38933-3.03067c-.792,0-1.284.41062-1.284,1.072,0,.768.5,1.096,1.67333,1.096,0,0,.35732-.00133.54933-.00133a2.4144,2.4144,0,0,0,1.06934-.18253.44052.44052,0,0,0,.108-.33068L55.10509,18.455l-.00133-.00132a3.66413,3.66413,0,0,0-2.112-.57867"/><path id="path13376" class="cls-6" d="M67.03974,20.90547c-.92533,0-3.076-.32653-3.076-3.356,0-1.99732.972-3.19065,2.59867-3.19065a2.98445,2.98445,0,0,1,2.032.90267l.00681.00755V11.55573h.93733v8.06a1.20114,1.20114,0,0,1-.53867.99332,2.4065,2.4065,0,0,1-1.336.29591Zm-.49067-5.62131c-.60133,0-1.61066.29482-1.61066,2.26532,0,1.56133.76666,2.456,2.10134,2.456h.39466a1.943,1.943,0,0,0,1.06-.19464.54469.54469,0,0,0,.104-.36281l.00133-3.18269a3.11521,3.11521,0,0,0-2.05066-.98133"/><path id="path13380" class="cls-6" d="M69.85468,26.32078H68.76c-3.28267,0-5.82666,1.22268-5.82666,5.45066v7.692h1.984v-7.692c0-2.82669,1.52667-3.54,3.84267-3.54h1.09467Z"/><path id="path13384" class="cls-6" d="M60.84627,32.48454c0-4.228-2.44267-6.368-5.69867-6.368-2.876,0-5.904,2.03734-5.904,6.776,0,4.864,3.05333,6.77467,6.43734,6.77467A8.87628,8.87628,0,0,0,60.7436,38.1645l-.68533-1.732a7.75629,7.75629,0,0,1-4.24933,1.29869c-1.93467,0-4.35067-.84-4.60667-4.024h9.644Zm-9.61734-.484c.22935-3.10668,2.16267-4.12532,3.944-4.12532,1.75466,0,3.664,1.09332,3.664,4.12532Z"/><path id="path13388" class="cls-6" d="M35.9108,26.32078H34.81613c-3.28266,0-5.82666,1.22268-5.82666,5.45066v7.692h1.984v-7.692c0-2.82669,1.52666-3.54,3.84266-3.54H35.9108Z"/><path id="path13392" class="cls-6" d="M26.90361,32.48454c0-4.228-2.444-6.368-5.7-6.368-2.87467,0-5.90267,2.03734-5.90267,6.776,0,4.864,3.052,6.77467,6.436,6.77467a8.89034,8.89034,0,0,0,5.06534-1.50268l-.688-1.732a7.75629,7.75629,0,0,1-4.24933,1.29869c-1.93334,0-4.35067-.84-4.60534-4.024h9.644Zm-9.61867-.484c.22933-3.10668,2.16267-4.12532,3.944-4.12532,1.756,0,3.664,1.09332,3.664,4.12532Z"/><path id="path13396" class="cls-6" d="M10.61334,29.53121a4.50208,4.50208,0,0,0,2.38933-4.14666c0-3.43466-2.38933-4.85867-5.20933-4.85867H2.43067A1.70239,1.70239,0,0,0,.5,22.30722v15.3627a1.70207,1.70207,0,0,0,1.93067,1.78h5.896a5.08217,5.08217,0,0,0,5.31067-5.29069,4.65465,4.65465,0,0,0-3.024-4.628M2.508,22.35786H7.43734c2.084,0,3.55733.86529,3.55733,3.07732a3.29594,3.29594,0,0,1-3.60933,3.408H2.508ZM8.09734,37.56847H2.508V30.72581H7.92c2.03333,0,3.68533,1.11864,3.68533,3.46a3.18424,3.18424,0,0,1-3.508,3.38263"/><path id="path13400" class="cls-6" d="M42.38081,26.1841h-.04933c-3.196.04008-6.16533,2.26935-6.16533,6.75864,0,4.38132,2.468,6.11336,5.164,6.11336a6.239,6.239,0,0,0,4.24934-1.77737l-.00945,1.744c0,3.3613-2.56133,4.39465-5.61333,4.39465H38.91137v1.784h1.19734c3.89333,0,7.35466-1.70666,7.35466-6.13868V31.41607c0-4.028-2.16133-5.21865-5.08266-5.232M45.554,35.24145a6.41026,6.41026,0,0,1-4.096,1.92932c-1.73066,0-3.308-1.01864-3.308-4.228,0-3.36,1.928-4.90267,4.192-4.92534,2.04534.00265,3.21467.69863,3.21467,3.39867Z"/></g></g></svg>